SplineFontDB: 2.0
FontName: Denemo
FullName: Denemo
FamilyName: Denemo
Weight: Book
Copyright: Copyright (c) 2001 by Robert Allgeyer. Free public license.\nRe-ordered for denemo (c) Richard Shann 2007
Version: 4.10
ItalicAngle: 0
UnderlinePosition: -102
UnderlineWidth: 51
Ascent: 819
Descent: 205
Order2: 1
NeedsXUIDChange: 1
XUID: [1021 341 2104685160 13796880]
FSType: 0
OS2Version: 1
OS2_WeightWidthSlopeOnly: 0
OS2_UseTypoMetrics: 1
CreationTime: 1112935786
ModificationTime: 1201268904
PfmFamily: 17
TTFWeight: 400
TTFWidth: 5
LineGap: 29
VLineGap: 0
Panose: 2 0 0 0 0 0 0 0 0 0
OS2TypoAscent: -102
OS2TypoAOffset: 1
OS2TypoDescent: -17
OS2TypoDOffset: 1
OS2TypoLinegap: 0
OS2WinAscent: 0
OS2WinAOffset: 1
OS2WinDescent: 3
OS2WinDOffset: 1
HheadAscent: 0
HheadAOffset: 1
HheadDescent: -3
HheadDOffset: 1
OS2SubXSize: 209
OS2SubYSize: 209
OS2SubXOff: 0
OS2SubYOff: 293
OS2SupXSize: 209
OS2SupYSize: 209
OS2SupXOff: 0
OS2SupYOff: 293
OS2StrikeYSize: 104
OS2StrikeYPos: 524
OS2Vendor: '    '
Lookup: 4 0 0 "'frac' Diagonal Fractions in Latin lookup 0"  {"'frac' Diagonal Fractions in Latin lookup 0 subtable"  } ['frac' ('latn' <'dflt' > ) ]
TtfTable: prep 111
\,[p-\,[R#])Vg2"on])!%TS5!!E</!6tS/!*K:-/%kod!7q4K!-eK7!!k*g!!!$d!;Z]%!,MW@
/%ko`!0R>%!)W_N!!k*g!!3-f!&O[%!#GV@/%kob!#bhO!"T&9!!k*d!!WE+!!b"S
EndTtf
TtfTable: fpgm 1725
\,ZL[9=Os.:fst'!KL<m!WRk`!/)B'!!rW-?X>=o!!+Vn+@U!4YQ8,`\,ZR]\,ZOZ+YC2(""YQa
YQH1@;HP/H+Gq;!8S!]$7NcAQA?Z1_7NcAQA5ZMSAVsVD+KtiE=D8n^!*!&DYWu>1BcsV[<*1<J
5\4)$3\@iA"=tZbYQQ7A;HP0$=Wg0VC11YW"=6M[C11XN=<i]+0E!K4!!OoH+Ktqp:fpRsY^f+\
YWtTZ)^-@I7BjR(=KoS/)^/?e/[tcb/0H'(Bgf0+?m$R\I;'NdYQ8,`\,Zab\,Z^_/[tcd/5%+i
""$rKY^d[s5Zru%+Ktqp;cp7*-6]V/MM`@1,?Z.n""$rK,9aPt!/cXQMBc7H\,ZUX;cp7+,t5<E
5YtQ-+h.P<,9\#1"!pA\+X8.5)^/?P/[tce/5&oD778(<+^$D,!"(8M\,Zh3=Kql-N`ijms+Rr_
KH7T'#lk'7?7iYe$S3DC7;5/o!FRLh!":Eg!"18"/[tci/0IEd"!pE7=<grkMBIdJA;VL!+D>1o
YQQ7A+D>1o;HP/TMHMSTYQ.U(BcsV[<*1<J5Zo%?+KtiF=<Xn6AQ`.s/[tcj/0IEd"=6N8=<i]+

StartChar: exclam
Encoding: 33 33 4
Width: 256
GlyphClass: 2
Flags: W
Fore
210 38 m 1,0,-1
 210 1 l 1,1,-1
 0 1 l 1,2,-1
 0 6 l 1,3,-1
 63 86 l 2,4,5
 78 104 78 104 93.5 122.5 c 128,-1,6
 109 141 109 141 121.5 158.5 c 128,-1,7
 134 176 134 176 142.5 193 c 128,-1,8
 151 210 151 210 151 225 c 0,9,10
 151 257 151 257 132 276 c 128,-1,11
 113 295 113 295 81 295 c 0,12,13
 56 295 56 295 44.5 282.5 c 128,-1,14
 33 270 33 270 18 233 c 1,15,-1
 0 233 l 1,16,17
 6 260 6 260 13 273.5 c 128,-1,18
 20 287 20 287 32 300 c 0,19,20
 60 331 60 331 101 331 c 0,21,22
 140 331 140 331 166.5 306 c 128,-1,23
 193 281 193 281 193 245 c 0,24,25
 193 215 193 215 177.5 187 c 128,-1,26
 162 159 162 159 129 123 c 2,27,-1
 54 38 l 1,28,-1
 210 38 l 1,0,-1
210 419 m 1,29,-1
 210 382 l 1,30,-1
 0 382 l 1,31,-1
 0 387 l 1,32,-1
 63 467 l 2,33,34
 78 485 78 485 93.5 503.5 c 128,-1,35
 109 522 109 522 121.5 539.5 c 128,-1,36
 134 557 134 557 142.5 574 c 128,-1,37
 151 591 151 591 151 606 c 0,38,39
 151 638 151 638 132 657 c 128,-1,40
 113 676 113 676 81 676 c 0,41,42
 56 676 56 676 44.5 663.5 c 128,-1,43
 33 651 33 651 18 614 c 1,44,-1
 0 614 l 1,45,46
 6 641 6 641 13 654.5 c 128,-1,47
 20 668 20 668 32 681 c 0,48,49
 60 712 60 712 101 712 c 0,50,51
 140 712 140 712 166.5 687 c 128,-1,52
 193 662 193 662 193 626 c 0,53,54
 193 596 193 596 177.5 568 c 128,-1,55
 162 540 162 540 129 504 c 2,56,-1
 54 419 l 1,57,-1
 210 419 l 1,29,-1
EndSplineSet
EndChar
StartChar: quotedbl
Encoding: 34 34 5
Width: 256
GlyphClass: 2
Flags: W
Fore
51 717 m 1,0,-1
 0 717 l 1,1,-1
 0 0 l 1,2,-1
 51 0 l 1,3,-1
 51 717 l 1,0,-1
156 717 m 1,4,-1
 102 717 l 1,5,-1
 102 0 l 1,6,-1
 156 0 l 1,7,-1
 156 717 l 1,4,-1
EndSplineSet
EndChar
StartChar: numbersign
Encoding: 35 35 6
Width: 256
GlyphClass: 2
Flags: W
Fore
224 112 m 1,0,-1
 224 80 l 1,1,-1
 175 80 l 1,2,-1
 175 0 l 1,3,-1
 136 0 l 1,4,-1
 136 80 l 1,5,-1
 0 80 l 1,6,-1
 0 112 l 1,7,-1
 153 329 l 1,8,-1
 175 329 l 1,9,-1
 175 112 l 1,10,-1
 224 112 l 1,0,-1
136 112 m 1,11,-1
 136 262 l 1,12,-1
 29 112 l 1,13,-1
 136 112 l 1,11,-1
87 546 m 1,14,-1
 87 562 l 1,15,16
 114 567 114 567 126 572 c 128,-1,17
 138 577 138 577 150 588 c 0,18,19
 160 597 160 597 169.5 614 c 128,-1,20
 179 631 179 631 179 645 c 0,21,22
 179 669 179 669 163 679.5 c 128,-1,23
 147 690 147 690 123 690 c 128,-1,24
 99 690 99 690 84 677 c 128,-1,25
 69 664 69 664 52 636 c 1,26,-1
 36 636 l 1,27,28
 44 659 44 659 50 670 c 128,-1,29
 56 681 56 681 68 691 c 0,30,31
 94 715 94 715 131 715 c 0,32,33
 166 715 166 715 190 696 c 128,-1,34
 214 677 214 677 214 647 c 0,35,36
 214 627 214 627 204.5 606 c 128,-1,37
 195 585 195 585 169 567 c 1,38,39
 186 560 186 560 190.5 557 c 128,-1,40
 195 554 195 554 203 547 c 1,41,42
 212 534 212 534 218 523.5 c 128,-1,43
 224 513 224 513 224 493 c 0,44,45
 224 438 224 438 185 409 c 0,46,47
 168 394 168 394 142.5 387.5 c 128,-1,48
 117 381 117 381 90 381 c 0,49,50
 65 381 65 381 50 387 c 128,-1,51
 35 393 35 393 35 407 c 0,52,53
 35 415 35 415 39.5 417 c 128,-1,54
 44 419 44 419 54 419 c 0,55,56
 60 419 60 419 66.5 418 c 128,-1,57
 73 417 73 417 84 411 c 0,58,59
 98 402 98 402 109 401.5 c 128,-1,60
 120 401 120 401 129 406 c 2,61,62
 155 414 155 414 169.5 425 c 128,-1,63
 184 436 184 436 186 466 c 0,64,65
 189 493 189 493 175.5 514 c 128,-1,66
 162 535 162 535 138 543 c 0,67,68
 129 545 129 545 119.5 545.5 c 128,-1,69
 110 546 110 546 87 546 c 1,14,-1
EndSplineSet
EndChar
StartChar: dollar
Encoding: 36 36 7
Width: 256
GlyphClass: 2
Flags: W
Fore
224 112 m 1,0,-1
 224 80 l 1,1,-1
 175 80 l 1,2,-1
 175 0 l 1,3,-1
 136 0 l 1,4,-1
 136 80 l 1,5,-1
 0 80 l 1,6,-1
 0 112 l 1,7,-1
 153 329 l 1,8,-1
 175 329 l 1,9,-1
 175 112 l 1,10,-1
 224 112 l 1,0,-1
136 112 m 1,11,-1
 136 262 l 1,12,-1
 29 112 l 1,13,-1
 136 112 l 1,11,-1
224 500 m 1,14,-1
 224 468 l 1,15,-1
 175 468 l 1,16,-1
 175 387 l 1,17,-1
 136 387 l 1,18,-1
 136 468 l 1,19,-1
 0 468 l 1,20,-1
 0 500 l 1,21,-1
 153 717 l 1,22,-1
 175 717 l 1,23,-1
 175 500 l 1,24,-1
 224 500 l 1,14,-1
136 500 m 1,25,-1
 136 650 l 1,26,-1
 29 500 l 1,27,-1
 136 500 l 1,25,-1
EndSplineSet
EndChar
StartChar: percent
Encoding: 37 37 8
Width: 256
GlyphClass: 2
Flags: W
Fore
224 112 m 1,0,-1
 224 80 l 1,1,-1
 175 80 l 1,2,-1
 175 0 l 1,3,-1
 136 0 l 1,4,-1
 136 80 l 1,5,-1
 0 80 l 1,6,-1
 0 112 l 1,7,-1
 153 329 l 1,8,-1
 175 329 l 1,9,-1
 175 112 l 1,10,-1
 224 112 l 1,0,-1
136 112 m 1,11,-1
 136 262 l 1,12,-1
 29 112 l 1,13,-1
 136 112 l 1,11,-1
86 684 m 1,14,-1
 55 608 l 1,15,16
 101 606 101 606 130.5 596.5 c 128,-1,17
 160 587 160 587 178 570 c 0,18,19
 199 552 199 552 203.5 535.5 c 128,-1,20
 208 519 208 519 208 493 c 0,21,22
 208 466 208 466 201 449 c 128,-1,23
 194 432 194 432 177 415 c 0,24,25
 159 394 159 394 131.5 390 c 128,-1,26
 104 386 104 386 74 386 c 0,27,28
 47 386 47 386 31 392 c 128,-1,29
 15 398 15 398 15 413 c 0,30,31
 15 422 15 422 20.5 425 c 128,-1,32
 26 428 26 428 37 428 c 0,33,34
 45 428 45 428 52 425.5 c 128,-1,35
 59 423 59 423 71 415 c 1,36,37
 75 411 75 411 93 410 c 128,-1,38
 111 409 111 409 129 417 c 0,39,40
 153 428 153 428 163 443.5 c 128,-1,41
 173 459 173 459 175 494 c 0,42,43
 175 512 175 512 171.5 525 c 128,-1,44
 168 538 168 538 160 547 c 128,-1,45
 152 556 152 556 137 562.5 c 128,-1,46
 122 569 122 569 99 577 c 0,47,48
 92 579 92 579 82 580 c 128,-1,49
 72 581 72 581 61 581 c 2,50,-1
 43 581 l 1,51,-1
 30 581 l 1,52,-1
 22 598 l 1,53,-1
 70 714 l 1,54,-1
 196 714 l 1,55,-1
 196 684 l 1,56,-1
 86 684 l 1,14,-1
EndSplineSet
EndChar
StartChar: ampersand
Encoding: 38 38 9
Width: 256
GlyphClass: 2
Flags: W
Fore
215 193 m 1,0,-1
 215 176 l 1,1,2
 202 174 202 174 194 169 c 128,-1,3
 186 164 186 164 181 148 c 2,4,-1
 174 127 l 2,5,6
 166 109 166 109 161 97 c 128,-1,7
 156 85 156 85 144 68 c 1,8,9
 157 47 157 47 168.5 39 c 128,-1,10
 180 31 180 31 194 31 c 0,11,12
 202 31 202 31 206.5 36.5 c 128,-1,13
 211 42 211 42 219 55 c 1,14,-1
 226 50 l 1,15,16
 213 0 213 0 181 0 c 0,17,18
 170 0 170 0 156 9.5 c 128,-1,19
 142 19 142 19 127 42 c 1,20,21
 110 19 110 19 92 9.5 c 128,-1,22
 74 0 74 0 54 0 c 0,23,24
 29 0 29 0 14.5 17.5 c 128,-1,25
 0 35 0 35 0 67 c 0,26,27
 0 123 0 123 50 164 c 2,28,-1
 62 173 l 1,29,30
 55 198 55 198 53 211.5 c 128,-1,31
 51 225 51 225 51 239 c 0,32,33
 51 267 51 267 65.5 286.5 c 128,-1,34
 80 306 80 306 100 306 c 0,35,36
 121 306 121 306 132 291 c 128,-1,37
 143 276 143 276 143 253 c 0,38,39
 143 228 143 228 131.5 207 c 128,-1,40
 120 186 120 186 91 169 c 1,41,42
 96 155 96 155 100.5 144 c 128,-1,43
 105 133 105 133 110.5 123.5 c 128,-1,44
 116 114 116 114 121.5 104 c 128,-1,45
 127 94 127 94 134 82 c 1,46,47
 147 100 147 100 156 121.5 c 128,-1,48
 165 143 165 143 165 158 c 0,49,50
 165 169 165 169 161.5 171.5 c 128,-1,51
 158 174 158 174 145 176 c 1,52,-1
 145 193 l 1,53,-1
 215 193 l 1,0,-1
83 186 m 1,54,-1
 89 190 l 2,55,56
 127 219 127 219 127 254 c 0,57,58
 127 271 127 271 119.5 279.5 c 128,-1,59
 112 288 112 288 101 288 c 128,-1,60
 90 288 90 288 79.5 272.5 c 128,-1,61
 69 257 69 257 69 241 c 0,62,63
 69 232 69 232 69.5 226.5 c 128,-1,64
 70 221 70 221 71.5 215.5 c 128,-1,65
 73 210 73 210 75.5 203.5 c 128,-1,66
 78 197 78 197 83 186 c 1,54,-1
70 152 m 2,67,-1
 69 155 l 1,68,69
 47 136 47 136 35.5 113.5 c 128,-1,70
 24 91 24 91 24 70 c 0,71,72
 24 43 24 43 37.5 33 c 128,-1,73
 51 23 51 23 69 23 c 0,74,75
 80 23 80 23 92 34 c 128,-1,76
 104 45 104 45 116 59 c 1,77,78
 110 72 110 72 104.5 80.5 c 128,-1,79
 99 89 99 89 93.5 99 c 128,-1,80
 88 109 88 109 82.5 121 c 128,-1,81
 77 133 77 133 70 152 c 2,67,-1
EndSplineSet
EndChar
StartChar: quotesingle
Encoding: 39 39 10
Width: 256
GlyphClass: 2
Flags: W
Fore
0 717 m 1,0,-1
 0 701 l 1,1,-1
 0 0 l 1,2,-1
 51 0 l 1,3,-1
 51 15 l 1,4,-1
 51 717 l 1,5,-1
 0 717 l 1,0,-1
EndSplineSet
EndChar
StartChar: parenleft
Encoding: 40 40 11
Width: 768
GlyphClass: 2
Flags: W
Fore
260 -89 m 2,0,1
 260 -154 260 -154 281.5 -213.5 c 128,-1,2
 303 -273 303 -273 350 -335 c 1,3,4
 350 -337 350 -337 363.5 -345.5 c 128,-1,5
 377 -354 377 -354 396.5 -366.5 c 128,-1,6
 416 -379 416 -379 438 -391 c 128,-1,7
 460 -403 460 -403 477 -412 c 128,-1,8
 494 -421 494 -421 503 -424 c 1,9,10
 505 -424 505 -424 506.5 -424 c 128,-1,11
 508 -424 508 -424 508 -423 c 256,12,13
 508 -422 508 -422 505 -419 c 2,14,15
 495 -403 495 -403 478.5 -388.5 c 128,-1,16
 462 -374 462 -374 445 -361.5 c 128,-1,17
 428 -349 428 -349 414 -339.5 c 128,-1,18
 400 -330 400 -330 396 -325 c 0,19,20
 348 -263 348 -263 330 -197 c 128,-1,21
 312 -131 312 -131 312 -68 c 0,22,23
 312 -6 312 -6 331.5 55 c 128,-1,24
 351 116 351 116 394 175 c 1,25,26
 397 181 397 181 411.5 191.5 c 128,-1,27
 426 202 426 202 443.5 214.5 c 128,-1,28
 461 227 461 227 478.5 242 c 128,-1,29
 496 257 496 257 505 271 c 0,30,31
 507 275 507 275 507 276 c 0,32,33
 507 279 507 279 504 279 c 0,34,35
 503 279 503 279 501 279 c 1,36,37
 492 275 492 275 474.5 266 c 128,-1,38
 457 257 457 257 435.5 243.5 c 128,-1,39
 414 230 414 230 395 218 c 128,-1,40
 376 206 376 206 363 197 c 128,-1,41
 350 188 350 188 350 189 c 1,42,43
 303 128 303 128 281.5 70.5 c 128,-1,44
 260 13 260 13 260 -51 c 2,45,-1
 260 -89 l 2,0,1
EndSplineSet
EndChar
StartChar: parenright
Encoding: 41 41 12
Width: 768
GlyphClass: 2
Flags: W
Fore
508 -56 m 2,0,1
 508 8 508 8 486.5 68 c 128,-1,2
 465 128 465 128 418 189 c 1,3,4
 418 191 418 191 404.5 200 c 128,-1,5
 391 209 391 209 371.5 221 c 128,-1,6
 352 233 352 233 330 245.5 c 128,-1,7
 308 258 308 258 291 266.5 c 128,-1,8
 274 275 274 275 265 279 c 1,9,10
 263 279 263 279 262 279 c 2,11,-1
 260 279 l 1,12,13
 260 276 260 276 263 273 c 0,14,15
 273 258 273 258 289.5 243 c 128,-1,16
 306 228 306 228 323 216 c 128,-1,17
 340 204 340 204 354 194 c 128,-1,18
 368 184 368 184 372 179 c 0,19,20
 420 118 420 118 438 52 c 128,-1,21
 456 -14 456 -14 456 -78 c 0,22,23
 456 -139 456 -139 436.5 -200 c 128,-1,24
 417 -261 417 -261 374 -321 c 1,25,26
 371 -327 371 -327 356.5 -337 c 128,-1,27
 342 -347 342 -347 324.5 -360 c 128,-1,28
 307 -373 307 -373 289.5 -387.5 c 128,-1,29
 272 -402 272 -402 263 -417 c 0,30,31
 261 -421 261 -421 261 -422 c 0,32,33
 261 -424 261 -424 264 -424 c 0,34,35
 265 -424 265 -424 267 -424 c 1,36,37
 276 -421 276 -421 293.5 -411.5 c 128,-1,38
 311 -402 311 -402 332.5 -389 c 128,-1,39
 354 -376 354 -376 373 -363.5 c 128,-1,40
 392 -351 392 -351 405 -342.5 c 128,-1,41
 418 -334 418 -334 418 -335 c 1,42,43
 465 -273 465 -273 486.5 -216 c 128,-1,44
 508 -159 508 -159 508 -94 c 2,45,-1
 508 -56 l 2,0,1
EndSplineSet
EndChar
StartChar: asterisk
Encoding: 42 42 13
Width: 256
GlyphClass: 2
Flags: W
Fore
90 182 m 1,0,-1
 90 186 l 1,1,2
 76 177 76 177 71.5 174 c 128,-1,3
 67 171 67 171 61 168 c 1,4,5
 58 165 58 165 55 161.5 c 128,-1,6
 52 158 52 158 41 145 c 0,7,8
 33 137 33 137 29 134 c 128,-1,9
 25 131 25 131 18 131 c 0,10,11
 0 131 0 131 0 150 c 0,12,13
 0 161 0 161 7 166 c 128,-1,14
 14 171 14 171 33 174 c 0,15,16
 50 177 50 177 60.5 181 c 128,-1,17
 71 185 71 185 86 195 c 1,18,-1
 80 199 l 2,19,20
 74 203 74 203 73.5 202.5 c 128,-1,21
 73 202 73 202 66 207 c 1,22,23
 59 209 59 209 51.5 210.5 c 128,-1,24
 44 212 44 212 35 215 c 2,25,26
 16 218 16 218 8 223 c 128,-1,27
 0 228 0 228 0 240 c 0,28,29
 0 258 0 258 16 258 c 0,30,31
 23 258 23 258 28.5 254.5 c 128,-1,32
 34 251 34 251 43 240 c 0,33,34
 55 225 55 225 65 218.5 c 128,-1,35
 75 212 75 212 90 203 c 1,36,-1
 90 209 l 2,37,38
 90 220 90 220 87.5 232 c 128,-1,39
 85 244 85 244 82 258 c 1,40,41
 76 273 76 273 76 285 c 0,42,43
 76 301 76 301 94 301 c 0,44,45
 113 301 113 301 113 283 c 0,46,47
 113 278 113 278 112.5 272 c 128,-1,48
 112 266 112 266 109 258 c 1,49,50
 98 239 98 239 98 215 c 2,51,-1
 98 201 l 1,52,-1
 102 203 l 2,53,54
 106 205 106 205 109 207 c 2,55,-1
 111 208 l 1,56,-1
 123 218 l 1,57,58
 123 219 123 219 129 225 c 2,59,-1
 141 238 l 2,60,61
 159 258 159 258 170 258 c 0,62,63
 188 258 188 258 188 238 c 0,64,65
 188 226 188 226 182.5 222.5 c 128,-1,66
 177 219 177 219 162 217 c 0,67,68
 144 214 144 214 133.5 210 c 128,-1,69
 123 206 123 206 102 195 c 1,70,-1
 109 190 l 2,71,72
 128 177 128 177 158 174 c 0,73,74
 175 171 175 171 181.5 167 c 128,-1,75
 188 163 188 163 188 152 c 0,76,77
 188 131 188 131 170 131 c 0,78,79
 156 131 156 131 139 154 c 0,80,81
 128 168 128 168 120 174.5 c 128,-1,82
 112 181 112 181 102 184 c 1,83,-1
 98 186 l 1,84,-1
 98 182 l 2,85,86
 98 153 98 153 111 125 c 0,87,88
 115 118 115 118 115 109 c 0,89,90
 115 99 115 99 108.5 92.5 c 128,-1,91
 102 86 102 86 94 86 c 256,92,93
 86 86 86 86 81 92 c 128,-1,94
 76 98 76 98 76 106 c 128,-1,95
 76 114 76 114 82 131 c 0,96,97
 87 143 87 143 88.5 152.5 c 128,-1,98
 90 162 90 162 90 170 c 2,99,-1
 90 182 l 1,0,-1
EndSplineSet
EndChar
StartChar: plus
Encoding: 43 43 14
Width: 256
GlyphClass: 2
Flags: W
Fore
86 174 m 1,0,-1
 86 261 l 1,1,-1
 127 261 l 1,2,-1
 127 174 l 1,3,-1
 214 174 l 1,4,-1
 214 133 l 1,5,-1
 127 133 l 1,6,-1
 127 46 l 1,7,-1
 86 46 l 1,8,-1
 86 133 l 1,9,-1
 0 133 l 1,10,-1
 0 174 l 1,11,-1
 86 174 l 1,0,-1
EndSplineSet
EndChar
StartChar: comma
Encoding: 44 44 15
Width: 259
GlyphClass: 2
Flags: W
Fore
62 -56 m 1,0,-1
 62 -43 l 1,1,2
 81 -31 81 -31 88 -21 c 128,-1,3
 95 -11 95 -11 95 0 c 0,4,5
 95 2 95 2 89 2 c 0,6,7
 88 2 88 2 87.5 1.5 c 128,-1,8
 87 1 87 1 86 1 c 1,9,10
 85 0 85 0 80 0 c 2,11,-1
 74 0 l 2,12,13
 60 0 60 0 55.5 5.5 c 128,-1,14
 51 11 51 11 51 23 c 0,15,16
 51 47 51 47 77 47 c 0,17,18
 92 47 92 47 102.5 36.5 c 128,-1,19
 113 26 113 26 113 8 c 0,20,21
 113 -8 113 -8 99.5 -26.5 c 128,-1,22
 86 -45 86 -45 62 -56 c 1,0,-1
EndSplineSet
EndChar
StartChar: hyphen
Encoding: 45 45 16
Width: 256
GlyphClass: 2
Flags: W
Fore
0 150 m 1,0,-1
 130 150 l 1,1,-1
 130 128 l 1,2,-1
 0 128 l 1,3,-1
 0 150 l 1,0,-1
EndSplineSet
EndChar
StartChar: period
Encoding: 46 46 17
Width: 307
GlyphClass: 2
Flags: W
Fore
65 109 m 0,0,1
 86 109 86 109 102.5 93 c 128,-1,2
 119 77 119 77 119 53 c 0,3,4
 119 32 119 32 103 16.5 c 128,-1,5
 87 1 87 1 65 1 c 0,6,7
 41 1 41 1 25.5 16.5 c 128,-1,8
 10 32 10 32 10 54 c 0,9,10
 10 78 10 78 26 93.5 c 128,-1,11
 42 109 42 109 65 109 c 0,0,1
EndSplineSet
EndChar
StartChar: slash
Encoding: 47 47 18
Width: 1490
GlyphClass: 2
Flags: W
Fore
-293 -102 m 1,0,-1
 -199 -102 l 1,1,-1
 -199 309 l 1,2,-1
 -293 309 l 1,3,-1
 -293 -102 l 1,0,-1
-20 309 m 1,4,-1
 -115 309 l 1,5,-1
 -115 -102 l 1,6,-1
 -20 -102 l 1,7,-1
 -20 309 l 1,4,-1
618 -102 m 1,8,-1
 711 -102 l 1,9,-1
 711 309 l 1,10,-1
 618 309 l 1,11,-1
 618 -102 l 1,8,-1
786 -102 m 1,12,-1
 881 -102 l 1,13,-1
 881 309 l 1,14,-1
 786 309 l 1,15,-1
 786 -102 l 1,12,-1
172 137 m 2,16,17
 172 207 172 207 190 231 c 0,18,19
 213 264 213 264 260 266 c 0,20,21
 319 266 319 266 373 211 c 0,22,23
 422 150 422 150 422 70 c 0,24,25
 422 25 422 25 416 6 c 0,26,27
 406 -23 406 -23 399 -29 c 1,28,29
 383 -55 383 -55 334 -63 c 1,30,31
 272 -63 272 -63 223 -4 c 0,32,33
 211 12 211 12 203 25.5 c 128,-1,34
 195 39 195 39 186 55 c 0,35,36
 176 78 176 78 174 88 c 128,-1,37
 172 98 172 98 172 113 c 2,38,-1
 172 137 l 2,16,17
-20 104 m 0,39,40
 -20 33 -20 33 35 -10 c 0,41,42
 90 -59 90 -59 162 -78 c 0,43,44
 186 -82 186 -82 205.5 -86 c 128,-1,45
 225 -90 225 -90 240 -90 c 1,46,47
 242 -92 242 -92 270 -92 c 2,48,-1
 301 -92 l 2,49,50
 334 -92 334 -92 368.5 -88 c 128,-1,51
 403 -84 403 -84 440 -72 c 0,52,53
 477 -61 477 -61 508 -46 c 128,-1,54
 539 -31 539 -31 565 -8 c 0,55,56
 618 33 618 33 618 104 c 0,57,58
 618 172 618 172 563 219 c 0,59,60
 535 242 535 242 501 256 c 128,-1,61
 467 270 467 270 432 279 c 0,62,63
 371 299 371 299 293 299 c 0,64,65
 258 299 258 299 158 276 c 0,66,67
 119 266 119 266 87 249.5 c 128,-1,68
 55 233 55 233 29 213 c 0,69,70
 -20 170 -20 170 -20 104 c 0,39,40
EndSplineSet
EndChar
StartChar: zero
Encoding: 48 48 19
Width: 1444
GlyphClass: 2
Flags: W
Fore
463 262 m 0,0,1
 463 342 463 342 485.5 371 c 128,-1,2
 508 400 508 400 555 406 c 0,3,4
 631 406 631 406 678 344 c 0,5,6
 692 328 692 328 703.5 309.5 c 128,-1,7
 715 291 715 291 721 271 c 0,8,9
 727 252 727 252 731 231.5 c 128,-1,10
 735 211 735 211 735 191 c 0,11,12
 735 107 735 107 717 80 c 0,13,14
 694 51 694 51 639 45 c 0,15,16
 567 45 567 45 518 109 c 0,17,18
 504 125 504 125 494.5 142.5 c 128,-1,19
 485 160 485 160 477 176 c 0,20,21
 467 205 467 205 465 218.5 c 128,-1,22
 463 232 463 232 463 262 c 0,0,1
252 226 m 0,23,24
 252 148 252 148 313 99 c 0,25,26
 373 49 373 49 452.5 29.5 c 128,-1,27
 532 10 532 10 604 10 c 0,28,29
 639 10 639 10 678 15.5 c 128,-1,30
 717 21 717 21 758 33 c 0,31,32
 840 58 840 58 893 105 c 0,33,34
 948 154 948 154 948 226 c 0,35,36
 948 307 948 307 885 352 c 0,37,38
 823 404 823 404 743 420 c 0,39,40
 676 441 676 441 592 441 c 0,41,42
 557 441 557 441 520 434 c 0,43,44
 500 430 500 430 481.5 427 c 128,-1,45
 463 424 463 424 446 420 c 0,46,47
 373 402 373 402 313 352 c 0,48,49
 252 303 252 303 252 226 c 0,23,24
EndSplineSet
EndChar
StartChar: one
Encoding: 49 49 20
Width: 1567
GlyphClass: 2
Flags: W
Fore
747 149 m 1,0,1
 699 180 699 180 644 180 c 0,2,3
 579 180 579 180 513.5 149 c 128,-1,4
 448 118 448 118 405 69 c 0,5,6
 362 16 362 16 362 -44 c 0,7,8
 362 -60 362 -60 363 -74.5 c 128,-1,9
 364 -89 364 -89 366 -99 c 2,10,-1
 378 -140 l 2,11,12
 392 -177 392 -177 429 -189 c 0,13,14
 460 -201 460 -201 515 -201 c 0,15,16
 566 -201 566 -201 632 -167 c 0,17,18
 691 -136 691 -136 736 -85 c 1,19,20
 747 -68 747 -68 756 -55 c 128,-1,21
 765 -42 765 -42 769 -29 c 0,22,23
 777 -9 777 -9 779 -5 c 128,-1,24
 781 -1 781 -1 781 24 c 2,25,-1
 781 1232 l 1,26,-1
 747 1232 l 1,27,-1
 747 149 l 1,0,1
493 20 m 0,28,29
 630 124 630 124 708 124 c 1,30,31
 738 114 738 114 738 89 c 0,32,33
 738 59 738 59 691 5 c 0,34,35
 669 -21 669 -21 650.5 -38.5 c 128,-1,36
 632 -56 632 -56 616 -64 c 2,37,38
 560 -109 560 -109 515 -124 c 2,39,40
 476 -144 476 -144 437 -144 c 1,41,42
 405 -132 405 -132 398 -107 c 1,43,44
 398 -85 398 -85 435 -38 c 0,45,46
 472 5 472 5 493 20 c 0,28,29
EndSplineSet
EndChar
StartChar: two
Encoding: 50 50 21
Width: 1611
GlyphClass: 2
Flags: W
Fore
834 1239 m 1,0,-1
 797 1239 l 1,1,-1
 797 129 l 1,2,3
 750 164 750 164 688 164 c 0,4,5
 659 164 659 164 628.5 157 c 128,-1,6
 598 150 598 150 561 133 c 0,7,8
 526 111 526 111 497.5 87.5 c 128,-1,9
 469 64 469 64 449 41 c 0,10,11
 406 -14 406 -14 406 -74 c 0,12,13
 406 -129 406 -129 449 -162 c 0,14,15
 494 -194 494 -194 551 -194 c 0,16,17
 614 -194 614 -194 682 -163.5 c 128,-1,18
 750 -133 750 -133 793 -78 c 0,19,20
 834 -18 834 -18 834 37 c 2,21,-1
 834 1239 l 1,0,-1
EndSplineSet
EndChar
StartChar: three
Encoding: 51 51 22
Width: 1557
GlyphClass: 2
Flags: W
Fore
761 1243 m 1,0,-1
 761 868 l 1,1,-1
 761 135 l 1,2,3
 728 168 728 168 640 168 c 0,4,5
 584 168 584 168 517 137 c 0,6,7
 482 121 482 121 456.5 98.5 c 128,-1,8
 431 76 431 76 410 51 c 0,9,10
 388 25 388 25 378.5 -5 c 128,-1,11
 369 -35 369 -35 369 -65 c 0,12,13
 369 -127 369 -127 412 -158 c 0,14,15
 451 -190 451 -190 515 -190 c 0,16,17
 584 -190 584 -190 648 -158 c 0,18,19
 724 -123 724 -123 750 -78 c 0,20,21
 795 -20 795 -20 795 43 c 2,22,-1
 795 856 l 1,23,24
 820 856 820 856 851.5 846 c 128,-1,25
 883 836 883 836 912 819 c 0,26,27
 965 793 965 793 1010 735 c 0,28,29
 1060 684 1060 684 1080 621 c 0,30,31
 1096 574 1096 574 1096 571 c 1,32,33
 1099 563 1099 563 1100 555 c 128,-1,34
 1101 547 1101 547 1105 539 c 1,35,-1
 1105 498 l 1,36,-1
 1103 473 l 1,37,-1
 1096 418 l 2,38,39
 1092 395 1092 395 1086 376.5 c 128,-1,40
 1080 358 1080 358 1074 340 c 2,41,-1
 1039 250 l 1,42,-1
 1070 252 l 1,43,44
 1086 281 1086 281 1095.5 304.5 c 128,-1,45
 1105 328 1105 328 1119 363 c 0,46,47
 1137 408 1137 408 1143.5 450 c 128,-1,48
 1150 492 1150 492 1150 526 c 0,49,50
 1150 672 1150 672 1047 805 c 2,51,-1
 957 909 l 1,52,-1
 908 969 l 1,53,-1
 873 1012 l 2,54,55
 843 1055 843 1055 828 1106 c 0,56,57
 818 1135 818 1135 809 1168.5 c 128,-1,58
 800 1202 800 1202 795 1243 c 1,59,-1
 761 1243 l 1,0,-1
EndSplineSet
EndChar
StartChar: four
Encoding: 52 52 23
Width: 1597
GlyphClass: 2
Flags: W
Fore
800 1192 m 1,0,-1
 801 131 l 1,1,2
 768 164 768 164 680 164 c 0,3,4
 624 164 624 164 557 133 c 0,5,6
 522 117 522 117 496.5 94.5 c 128,-1,7
 471 72 471 72 450 47 c 0,8,9
 428 21 428 21 418.5 -9 c 128,-1,10
 409 -39 409 -39 409 -69 c 0,11,12
 409 -129 409 -129 452 -162 c 0,13,14
 494 -194 494 -194 555 -194 c 0,15,16
 621 -194 621 -194 688 -162 c 0,17,18
 758 -128 758 -128 790 -82 c 0,19,20
 835 -17 835 -17 835 39 c 2,21,-1
 835 537 l 1,22,23
 860 537 860 537 891.5 526.5 c 128,-1,24
 923 516 923 516 952 500 c 0,25,26
 1003 471 1003 471 1050 414 c 0,27,28
 1073 387 1073 387 1091.5 359.5 c 128,-1,29
 1110 332 1110 332 1120 301 c 0,30,31
 1136 252 1136 252 1136 250 c 1,32,33
 1139 240 1139 240 1141 231.5 c 128,-1,34
 1143 223 1143 223 1145 219 c 1,35,-1
 1145 178 l 1,36,-1
 1143 154 l 1,37,-1
 1136 96 l 1,38,-1
 1175 96 l 1,39,40
 1184 125 1184 125 1187 153.5 c 128,-1,41
 1190 182 1190 182 1190 207 c 0,42,43
 1190 301 1190 301 1157 367 c 1,44,45
 1157 369 1157 369 1163 385 c 0,46,47
 1171 404 1171 404 1175 414 c 0,48,49
 1190 452 1190 452 1190 522 c 0,50,51
 1190 664 1190 664 1087 801 c 2,52,-1
 916 1028 l 1,53,-1
 800 1192 l 1,0,-1
1134 410 m 1,54,-1
 1143 469 l 1,55,-1
 1145 494 l 1,56,-1
 1145 535 l 1,57,-1
 1120 617 l 2,58,59
 1103 670 1103 670 1050 731 c 0,60,61
 1001 788 1001 788 952 815 c 0,62,63
 893 849 893 849 848 852 c 1,64,65
 850 836 850 836 857 809 c 0,66,67
 867 764 867 764 868 762 c 0,68,69
 940 596 940 596 1134 410 c 1,54,-1
EndSplineSet
EndChar
StartChar: five
Encoding: 53 53 24
Width: 1517
GlyphClass: 2
Flags: HW
Fore
845.5 1015 m 1,0,-1
 893.5 977 l 2,1,2
 1037.5 863 1037.5 863 1056.5 796 c 0,3,4
 1068.5 753 1068.5 753 1044.5 710 c 1,5,-1
 1080.5 669 l 1,6,-1
 1099.5 694 l 2,7,8
 1147.5 760 1147.5 760 1102.5 847 c 0,9,10
 1097.5 857 1097.5 857 1000.5 971 c 0,11,12
 895.5 1096 895.5 1096 891.5 1103 c 1,13,-1
 849.5 1136 l 1,14,-1
 806.5 1178 l 1,15,-1
 804.5 560 l 1,16,-1
 804.5 114 l 1,17,-1
 804.5 114 l 1,18,19
 804.5 162 804.5 162 681.5 178 c 0,20,21
 592.5 191 592.5 191 491.5 116 c 0,22,23
 414.5 60 414.5 60 409.5 -19 c 0,24,25
 402.5 -128 402.5 -128 523.5 -155 c 0,26,27
 610.5 -174 610.5 -174 679.5 -142 c 0,28,29
 775.5 -98 775.5 -98 799.5 -63 c 0,30,31
 819.5 -34 819.5 -34 835.5 2 c 2,32,-1
 847.5 28 l 1,33,-1
 848.5 605 l 1,34,-1
 893.5 568 l 2,35,36
 1040.5 446 1040.5 446 1057.5 387 c 0,37,38
 1069.5 345 1069.5 345 1044.5 301 c 1,39,-1
 1099.5 285 l 1,40,41
 1147.5 351 1147.5 351 1102.5 438 c 0,42,43
 1098.5 448 1098.5 448 1001.5 562 c 128,-1,44
 904.5 676 904.5 676 891.5 694 c 0,45,46
 860.5 739 860.5 739 853.5 762 c 2,47,-1
 845.5 792 l 1,48,-1
 898.5 767 l 2,49,50
 1027.5 708 1027.5 708 1061.5 587 c 0,51,52
 1074.5 544 1074.5 544 1049.5 501 c 1,53,-1
 1085.5 459 l 1,54,-1
 1104.5 485 l 2,55,56
 1152.5 550 1152.5 550 1107.5 638 c 0,57,58
 1103.5 647 1103.5 647 1006.5 761.5 c 128,-1,59
 909.5 876 909.5 876 896.5 894 c 0,60,61
 863.5 941 863.5 941 858.5 962 c 2,62,-1
 845.5 1015 l 1,0,-1
EndSplineSet
EndChar
StartChar: six
Encoding: 54 54 25
Width: 1601
GlyphClass: 2
Flags: HW
Fore
897 805 m 1,0,-1
 955 770 l 2,1,2
 1113 677 1113 677 1139 605 c 0,3,4
 1152 566 1152 566 1125 526 c 1,5,-1
 1165 488 l 1,6,-1
 1186 512 l 2,7,8
 1240 572 1240 572 1190 652 c 0,9,10
 1185 660 1185 660 1076.5 764.5 c 128,-1,11
 968 869 968 869 953 886 c 0,12,13
 916 930 916 930 911 948 c 2,14,-1
 899 993 l 1,15,-1
 950 962 l 2,16,17
 1109 865 1109 865 1133 797 c 0,18,19
 1146 758 1146 758 1119 718 c 1,20,-1
 1159 680 l 1,21,-1
 1180 704 l 2,22,23
 1234 763 1234 763 1184 843 c 0,24,25
 1179 852 1179 852 1070.5 956.5 c 128,-1,26
 962 1061 962 1061 948 1078 c 0,27,28
 908 1124 908 1124 905 1140 c 2,29,-1
 899 1174 l 1,30,-1
 957 1142 l 2,31,32
 1112 1057 1112 1057 1140 977 c 0,33,34
 1154 938 1154 938 1126 898 c 1,35,-1
 1167 860 l 1,36,-1
 1188 884 l 2,37,38
 1242 944 1242 944 1192 1024 c 0,39,40
 1186 1032 1186 1032 1078 1136.5 c 128,-1,41
 970 1241 970 1241 955 1258 c 0,42,43
 853 1374 853 1374 849 1390 c 1,44,-1
 852 129 l 1,45,-1
 830 162 l 1,46,-1
 741 202 l 1,47,48
 569 222 569 222 486 133 c 0,49,50
 404 45 404 45 409 -24 c 0,51,52
 417 -130 417 -130 526 -150 c 0,53,54
 587 -162 587 -162 700 -142 c 0,55,56
 799 -125 799 -125 846 -64 c 0,57,58
 898 2 898 2 899 8 c 2,59,-1
 902 48 l 1,60,-1
 901 622 l 1,61,-1
 950 588 l 2,62,63
 1117 470 1117 470 1133 422 c 0,64,65
 1147 383 1147 383 1119 344 c 1,66,-1
 1181 329 l 1,67,68
 1235 389 1235 389 1184 469 c 0,69,70
 1179 478 1179 478 1070.5 582.5 c 128,-1,71
 962 687 962 687 948 703 c 0,72,73
 909 749 909 749 906 766 c 2,74,-1
 897 805 l 1,0,-1
EndSplineSet
EndChar
StartChar: seven
Encoding: 55 55 26
Width: 1539
GlyphClass: 2
Flags: HW
Fore
844 1057 m 5,0,1
 846 1050 846 1050 894 1002 c 4,2,3
 908 989 908 989 1011 905.5 c 132,-1,4
 1114 822 1114 822 1118 815 c 4,5,6
 1166 751 1166 751 1115 703 c 6,7,-1
 1095 685 l 5,8,-1
 1057 715 l 5,9,10
 1083 747 1083 747 1070 778 c 4,11,12
 1015 911 1015 911 896 910 c 6,13,-1
 845 909 l 5,14,-1
 846 908 l 5,15,16
 876 868 876 868 887 858 c 4,17,18
 900 845 900 845 1003 761.5 c 132,-1,19
 1106 678 1106 678 1111 671 c 4,20,21
 1159 607 1159 607 1108 560 c 6,22,-1
 1088 541 l 5,23,-1
 1049 571 l 5,24,25
 1075 603 1075 603 1063 634 c 4,26,27
 1024 727 1024 727 889 766 c 6,28,-1
 842 779 l 5,29,-1
 852 755 l 6,30,31
 859 738 859 738 892 705 c 4,32,33
 906 692 906 692 1009 608.5 c 132,-1,34
 1112 525 1112 525 1117 518 c 4,35,36
 1165 455 1165 455 1113 407 c 6,37,-1
 1093 388 l 5,38,-1
 1055 418 l 5,39,40
 1081 450 1081 450 1068 481 c 4,41,42
 1033 565 1033 565 894 613 c 6,43,-1
 840 631 l 5,44,-1
 847 609 l 6,45,46
 851 595 851 595 887 560 c 4,47,48
 900 546 900 546 1004 463 c 4,49,50
 1107 379 1107 379 1112 373 c 4,51,52
 1159 309 1159 309 1108 261 c 5,53,-1
 1050 272 l 5,54,55
 1076 304 1076 304 1063 335 c 4,56,57
 1043 383 1043 383 889 467 c 6,58,-1
 842 493 l 5,59,-1
 842 69 l 5,60,-1
 829 45 l 6,61,62
 819 29 819 29 803 3 c 4,63,64
 768 -55 768 -55 708 -80 c 4,65,66
 579 -133 579 -133 513 -120 c 4,67,68
 355 -87 355 -87 409 48 c 4,69,70
 438 124 438 124 526 166 c 4,71,72
 638 219 638 219 708 200 c 5,73,-1
 795 150 l 5,74,-1
 795 150 l 5,75,-1
 795 1263 l 5,76,-1
 856 1187 l 5,77,78
 905 1146 905 1146 905 1138 c 4,79,80
 905 1136 905 1136 1022 1041 c 4,81,82
 1125 957 1125 957 1130 951 c 4,83,84
 1180 887 1180 887 1116 825 c 5,85,-1
 1068 851 l 5,86,87
 1094 882 1094 882 1081 913 c 4,88,89
 1036 1022 1036 1022 907 1045 c 6,90,-1
 844 1057 l 5,0,1
EndSplineSet
EndChar
StartChar: eight
Encoding: 56 56 27
Width: 256
GlyphClass: 2
Flags: W
Fore
116 151 m 1,0,-1
 116 150 l 1,1,2
 142 129 142 129 159 111.5 c 128,-1,3
 176 94 176 94 176 68 c 0,4,5
 176 34 176 34 152.5 16.5 c 128,-1,6
 129 -1 129 -1 90 -1 c 0,7,8
 53 -1 53 -1 26.5 15 c 128,-1,9
 0 31 0 31 0 63 c 0,10,11
 0 85 0 85 14 101.5 c 128,-1,12
 28 118 28 118 65 144 c 1,13,14
 47 159 47 159 36.5 169.5 c 128,-1,15
 26 180 26 180 20 189 c 128,-1,16
 14 198 14 198 12 206 c 128,-1,17
 10 214 10 214 10 225 c 0,18,19
 10 255 10 255 33.5 274 c 128,-1,20
 57 293 57 293 92 293 c 0,21,22
 125 293 125 293 146.5 276 c 128,-1,23
 168 259 168 259 168 231 c 0,24,25
 168 209 168 209 158 188.5 c 128,-1,26
 148 168 148 168 116 151 c 1,0,-1
111 113 m 2,27,-1
 86 130 l 1,28,29
 66 115 66 115 48 99.5 c 128,-1,30
 30 84 30 84 28 63 c 0,31,32
 26 41 26 41 47.5 30 c 128,-1,33
 69 19 69 19 93 19 c 0,34,35
 115 19 115 19 128 30 c 128,-1,36
 141 41 141 41 143 55 c 0,37,38
 145 74 145 74 139.5 84.5 c 128,-1,39
 134 95 134 95 111 113 c 2,27,-1
74 178 m 2,40,-1
 93 165 l 1,41,42
 116 179 116 179 128 193.5 c 128,-1,43
 140 208 140 208 138 227 c 0,44,45
 136 248 136 248 123.5 257 c 128,-1,46
 111 266 111 266 93 266 c 0,47,48
 73 266 73 266 56.5 257 c 128,-1,49
 40 248 40 248 40 230 c 0,50,51
 40 213 40 213 46 203 c 128,-1,52
 52 193 52 193 74 178 c 2,40,-1
EndSplineSet
EndChar
StartChar: nine
Encoding: 57 57 28
Width: 256
GlyphClass: 2
Flags: W
Fore
16 0 m 1,0,-1
 16 22 l 1,1,2
 46 25 46 25 70.5 31 c 128,-1,3
 95 37 95 37 113.5 49 c 128,-1,4
 132 61 132 61 143.5 80 c 128,-1,5
 155 99 155 99 158 128 c 1,6,7
 137 113 137 113 118 110.5 c 128,-1,8
 99 108 99 108 84 108 c 0,9,10
 46 108 46 108 23 133 c 128,-1,11
 0 158 0 158 0 201 c 0,12,13
 0 247 0 247 25.5 274 c 128,-1,14
 51 301 51 301 91 301 c 0,15,16
 135 301 135 301 161 269 c 0,17,18
 173 252 173 252 180.5 227 c 128,-1,19
 188 202 188 202 188 174 c 0,20,21
 188 152 188 152 187 131.5 c 128,-1,22
 186 111 186 111 180.5 92.5 c 128,-1,23
 175 74 175 74 164.5 58 c 128,-1,24
 154 42 154 42 135 29 c 0,25,26
 124 20 124 20 108 14.5 c 128,-1,27
 92 9 92 9 75.5 6 c 128,-1,28
 59 3 59 3 43.5 1.5 c 128,-1,29
 28 0 28 0 16 0 c 1,0,-1
85 129 m 2,30,-1
 98 129 l 2,31,32
 103 129 103 129 111.5 131.5 c 128,-1,33
 120 134 120 134 128 138 c 128,-1,34
 136 142 136 142 143 147.5 c 128,-1,35
 150 153 150 153 152 158 c 0,36,37
 157 167 157 167 157.5 178.5 c 128,-1,38
 158 190 158 190 158 205 c 0,39,40
 158 240 158 240 137 259 c 128,-1,41
 116 278 116 278 91 278 c 0,42,43
 68 278 68 278 49 259.5 c 128,-1,44
 30 241 30 241 28 205 c 0,45,46
 26 168 26 168 42 149 c 128,-1,47
 58 130 58 130 85 129 c 2,30,-1
EndSplineSet
EndChar
StartChar: colon
Encoding: 58 58 29
Width: 512
GlyphClass: 2
Flags: W
Fore
193 175 m 1,0,1
 169 190 169 190 141 190 c 0,2,3
 109 190 109 190 76 175 c 128,-1,4
 43 160 43 160 22 135 c 0,5,6
 0 109 0 109 0 79 c 0,7,8
 0 71 0 71 0.5 63.5 c 128,-1,9
 1 56 1 56 2 51 c 2,10,-1
 8 31 l 2,11,12
 15 12 15 12 34 6 c 0,13,14
 49 0 49 0 77 0 c 0,15,16
 102 0 102 0 135 17 c 0,17,18
 165 33 165 33 187 58 c 0,19,20
 193 67 193 67 197.5 73.5 c 128,-1,21
 202 80 202 80 204 86 c 0,22,23
 208 96 208 96 209 98 c 128,-1,24
 210 100 210 100 210 113 c 2,25,-1
 210 717 l 1,26,-1
 193 717 l 1,27,-1
 193 175 l 1,0,1
66 111 m 0,28,29
 134 163 134 163 173 163 c 1,30,31
 188 158 188 158 188 145 c 0,32,33
 188 130 188 130 165 103 c 0,34,35
 154 90 154 90 144.5 81.5 c 128,-1,36
 135 73 135 73 127 69 c 2,37,38
 99 46 99 46 77 39 c 2,39,40
 57 29 57 29 38 29 c 1,41,42
 22 35 22 35 18 47 c 1,43,44
 18 58 18 58 37 82 c 0,45,46
 55 103 55 103 66 111 c 0,28,29
328 128 m 256,47,48
 328 113 328 113 317 101.5 c 128,-1,49
 306 90 306 90 291 90 c 0,50,51
 275 90 275 90 264 101.5 c 128,-1,52
 253 113 253 113 253 128 c 256,53,54
 253 143 253 143 264 154 c 128,-1,55
 275 165 275 165 291 165 c 0,56,57
 306 165 306 165 317 154 c 128,-1,58
 328 143 328 143 328 128 c 256,47,48
446 128 m 256,59,60
 446 113 446 113 435.5 101.5 c 128,-1,61
 425 90 425 90 410 90 c 0,62,63
 394 90 394 90 383.5 101.5 c 128,-1,64
 373 113 373 113 373 128 c 256,65,66
 373 143 373 143 383.5 154 c 128,-1,67
 394 165 394 165 410 165 c 0,68,69
 425 165 425 165 435.5 154 c 128,-1,70
 446 143 446 143 446 128 c 256,59,60
EndSplineSet
EndChar
StartChar: semicolon
Encoding: 59 59 30
Width: 512
GlyphClass: 2
Flags: W
Fore
214 717 m 1,0,-1
 196 717 l 1,1,-1
 196 162 l 1,2,3
 172 179 172 179 141 179 c 0,4,5
 127 179 127 179 111.5 175.5 c 128,-1,6
 96 172 96 172 78 164 c 0,7,8
 60 153 60 153 46 141 c 128,-1,9
 32 129 32 129 22 118 c 0,10,11
 0 90 0 90 0 60 c 0,12,13
 0 33 0 33 22 16 c 0,14,15
 44 0 44 0 73 0 c 0,16,17
 104 0 104 0 138 15.5 c 128,-1,18
 172 31 172 31 194 58 c 0,19,20
 214 88 214 88 214 116 c 2,21,-1
 214 717 l 1,0,-1
342 108 m 0,22,23
 342 92 342 92 330.5 81 c 128,-1,24
 319 70 319 70 304 70 c 256,25,26
 289 70 289 70 277.5 81 c 128,-1,27
 266 92 266 92 266 108 c 0,28,29
 266 123 266 123 277.5 134 c 128,-1,30
 289 145 289 145 304 145 c 256,31,32
 319 145 319 145 330.5 134 c 128,-1,33
 342 123 342 123 342 108 c 0,22,23
454 108 m 0,34,35
 454 92 454 92 443 81 c 128,-1,36
 432 70 432 70 417 70 c 0,37,38
 400 70 400 70 389.5 81 c 128,-1,39
 379 92 379 92 379 108 c 0,40,41
 379 123 379 123 389.5 134 c 128,-1,42
 400 145 400 145 417 145 c 0,43,44
 432 145 432 145 443 134 c 128,-1,45
 454 123 454 123 454 108 c 0,34,35
EndSplineSet
EndChar
StartChar: less
Encoding: 60 60 31
Width: 512
GlyphClass: 2
Flags: W
Fore
117 770 m 1,0,-1
 117 734 l 1,1,-1
 98 734 l 1,2,-1
 98 756 l 1,3,4
 83 734 83 734 45 734 c 0,5,6
 19 734 19 734 9.5 748 c 128,-1,7
 0 762 0 762 0 780 c 0,8,9
 0 811 0 811 25.5 816 c 128,-1,10
 51 821 51 821 98 821 c 1,11,-1
 98 830 l 2,12,13
 98 841 98 841 91.5 843 c 128,-1,14
 85 845 85 845 59 845 c 2,15,-1
 34 845 l 1,16,-1
 34 866 l 1,17,-1
 62 866 l 2,18,19
 97 866 97 866 107 857 c 128,-1,20
 117 848 117 848 117 821 c 2,21,-1
 117 770 l 1,0,-1
98 800 m 1,22,-1
 84 800 l 2,23,24
 73 800 73 800 61 799.5 c 128,-1,25
 49 799 49 799 40 797 c 128,-1,26
 31 795 31 795 24.5 789 c 128,-1,27
 18 783 18 783 18 774 c 0,28,29
 18 763 18 763 29.5 759.5 c 128,-1,30
 41 756 41 756 55 756 c 0,31,32
 71 756 71 756 81 762.5 c 128,-1,33
 91 769 91 769 98 777 c 1,34,-1
 98 800 l 1,22,-1
262 756 m 1,35,-1
 262 734 l 1,36,-1
 237 734 l 2,37,38
 201 734 201 734 179 752 c 128,-1,39
 157 770 157 770 157 800 c 0,40,41
 157 829 157 829 182 847.5 c 128,-1,42
 207 866 207 866 246 866 c 2,43,-1
 262 866 l 1,44,-1
 262 845 l 1,45,-1
 247 845 l 2,46,47
 216 845 216 845 195.5 832 c 128,-1,48
 175 819 175 819 175 800 c 0,49,50
 175 776 175 776 197 766 c 128,-1,51
 219 756 219 756 242 756 c 2,52,-1
 262 756 l 1,35,-1
462 734 m 2,53,-1
 461 734 l 2,54,55
 453 734 453 734 448 741 c 128,-1,56
 443 748 443 748 443 756 c 0,57,58
 443 762 443 762 448.5 769 c 128,-1,59
 454 776 454 776 462 776 c 0,60,61
 473 776 473 776 477 769 c 128,-1,62
 481 762 481 762 481 756 c 0,63,64
 481 748 481 748 477 741 c 128,-1,65
 473 734 473 734 462 734 c 2,53,-1
411 756 m 1,66,-1
 411 734 l 1,67,-1
 386 734 l 2,68,69
 350 734 350 734 327.5 752 c 128,-1,70
 305 770 305 770 305 800 c 0,71,72
 305 829 305 829 329.5 847.5 c 128,-1,73
 354 866 354 866 393 866 c 2,74,-1
 401 866 l 2,75,76
 403 866 403 866 403 865 c 1,77,-1
 404 865 l 1,78,-1
 411 865 l 1,79,-1
 411 845 l 1,80,-1
 395 845 l 2,81,82
 365 845 365 845 344.5 832 c 128,-1,83
 324 819 324 819 324 800 c 0,84,85
 324 787 324 787 330 779 c 128,-1,86
 336 771 336 771 345.5 766 c 128,-1,87
 355 761 355 761 367.5 758.5 c 128,-1,88
 380 756 380 756 391 756 c 2,89,-1
 411 756 l 1,66,-1
EndSplineSet
EndChar
StartChar: equal
Encoding: 61 61 32
Width: 256
GlyphClass: 2
Flags: W
Fore
204 210 m 1,0,-1
 204 183 l 1,1,-1
 0 183 l 1,2,-1
 0 210 l 1,3,-1
 204 210 l 1,0,-1
204 129 m 1,4,-1
 204 102 l 1,5,-1
 0 102 l 1,6,-1
 0 129 l 1,7,-1
 204 129 l 1,4,-1
EndSplineSet
EndChar
StartChar: greater
Encoding: 62 62 33
Width: 512
GlyphClass: 2
Flags: W
Fore
0 734 m 1,0,-1
 0 866 l 1,1,-1
 35 866 l 1,2,-1
 35 845 l 1,3,4
 43 857 43 857 55.5 861.5 c 128,-1,5
 68 866 68 866 85 866 c 2,6,-1
 95 866 l 1,7,-1
 95 845 l 1,8,-1
 82 845 l 2,9,10
 62 845 62 845 51.5 832 c 128,-1,11
 41 819 41 819 35 800 c 1,12,-1
 35 734 l 1,13,-1
 0 734 l 1,0,-1
163 872 m 0,14,15
 155 872 155 872 150 878 c 128,-1,16
 145 884 145 884 145 888 c 0,17,18
 145 893 145 893 150.5 898.5 c 128,-1,19
 156 904 156 904 163 904 c 0,20,21
 172 904 172 904 176 899 c 128,-1,22
 180 894 180 894 180 889 c 256,23,24
 180 884 180 884 176 878 c 128,-1,25
 172 872 172 872 163 872 c 0,14,15
145 734 m 1,26,-1
 145 845 l 1,27,-1
 180 845 l 1,28,-1
 180 734 l 1,29,-1
 145 734 l 1,26,-1
291 907 m 1,30,-1
 291 866 l 1,31,-1
 339 866 l 1,32,-1
 339 845 l 1,33,-1
 291 845 l 1,34,-1
 291 777 l 2,35,36
 291 756 291 756 317 756 c 2,37,-1
 335 756 l 1,38,-1
 335 734 l 1,39,-1
 307 734 l 2,40,41
 282 734 282 734 271 744 c 0,42,43
 259 755 259 755 259 777 c 2,44,-1
 259 845 l 1,45,-1
 228 845 l 1,46,-1
 228 866 l 1,47,-1
 259 866 l 1,48,-1
 259 907 l 1,49,-1
 291 907 l 1,30,-1
396 734 m 1,50,-1
 397 734 l 1,51,52
 387 734 387 734 381 741.5 c 128,-1,53
 375 749 375 749 375 756 c 0,54,55
 375 762 375 762 381 768 c 128,-1,56
 387 774 387 774 397 774 c 128,-1,57
 407 774 407 774 413 768 c 128,-1,58
 419 762 419 762 419 756 c 0,59,60
 419 749 419 749 413.5 741.5 c 128,-1,61
 408 734 408 734 398 734 c 2,62,-1
 396 734 l 1,50,-1
EndSplineSet
EndChar
StartChar: question
Encoding: 63 63 34
Width: 512
GlyphClass: 2
Flags: W
Fore
0 19 m 1,0,-1
 4 0 l 1,1,-1
 113 73 l 2,2,3
 139 90 139 90 156.5 103.5 c 128,-1,4
 174 117 174 117 186 126 c 0,5,6
 209 145 209 145 228.5 164 c 128,-1,7
 248 183 248 183 264 202 c 0,8,9
 273 213 273 213 282 223.5 c 128,-1,10
 291 234 291 234 298 246 c 0,11,12
 305 255 305 255 312 265.5 c 128,-1,13
 319 276 319 276 328 289 c 0,14,15
 384 379 384 379 384 489 c 0,16,17
 384 548 384 548 359 601 c 128,-1,18
 334 654 334 654 291 686 c 0,19,20
 248 717 248 717 202 717 c 0,21,22
 169 717 169 717 135.5 704.5 c 128,-1,23
 102 692 102 692 76 668.5 c 128,-1,24
 50 645 50 645 33.5 611.5 c 128,-1,25
 17 578 17 578 17 535 c 256,26,27
 17 492 17 492 43 463 c 0,28,29
 68 435 68 435 103 435 c 0,30,31
 121 435 121 435 141 446 c 1,32,33
 156 458 156 458 166 478 c 0,34,35
 175 498 175 498 175 516 c 0,36,37
 175 546 175 546 157 566 c 0,38,39
 138 588 138 588 114 588 c 1,40,-1
 93 584 l 1,41,-1
 80 581 l 1,42,-1
 66 587 l 2,43,44
 59 591 59 591 59 600 c 1,45,-1
 62 610 l 2,46,47
 78 654 78 654 110 674 c 0,48,49
 142 691 142 691 179 691 c 0,50,51
 217 691 217 691 243 663 c 0,52,53
 255 647 255 647 267.5 620.5 c 128,-1,54
 280 594 280 594 285 572 c 2,55,56
 289 564 289 564 290.5 553 c 128,-1,57
 292 542 292 542 293 528 c 2,58,-1
 296 481 l 2,59,60
 296 470 296 470 294.5 457 c 128,-1,61
 293 444 293 444 291 430 c 2,62,-1
 281 375 l 1,63,64
 270 344 270 344 263 327.5 c 128,-1,65
 256 311 256 311 246 291 c 0,66,67
 231 263 231 263 212.5 238 c 128,-1,68
 194 213 194 213 176 189 c 2,69,-1
 140 146 l 2,70,71
 135 140 135 140 131 135.5 c 128,-1,72
 127 131 127 131 124 128 c 0,73,74
 118 122 118 122 104 112 c 2,75,-1
 0 19 l 1,0,-1
413 601 m 0,76,77
 413 584 413 584 424 566 c 0,78,79
 436 551 436 551 452 551 c 0,80,81
 465 551 465 551 479 565 c 1,82,83
 490 580 490 580 490 600 c 0,84,85
 490 621 490 621 479 635 c 0,86,87
 465 649 465 649 453 649 c 0,88,89
 437 649 437 649 425 635 c 128,-1,90
 413 621 413 621 413 601 c 0,76,77
413 403 m 0,91,92
 413 382 413 382 424 368 c 0,93,94
 436 354 436 354 453 354 c 128,-1,95
 470 354 470 354 480 367.5 c 128,-1,96
 490 381 490 381 490 403 c 0,97,98
 490 415 490 415 486.5 422.5 c 128,-1,99
 483 430 483 430 478 437 c 0,100,101
 465 454 465 454 453 454 c 0,102,103
 436 454 436 454 424 438 c 0,104,105
 413 421 413 421 413 403 c 0,91,92
EndSplineSet
EndChar
StartChar: at
Encoding: 64 64 35
Width: 256
GlyphClass: 2
Flags: W
Fore
224 112 m 1,0,-1
 224 80 l 1,1,-1
 175 80 l 1,2,-1
 175 0 l 1,3,-1
 136 0 l 1,4,-1
 136 80 l 1,5,-1
 0 80 l 1,6,-1
 0 112 l 1,7,-1
 153 329 l 1,8,-1
 175 329 l 1,9,-1
 175 112 l 1,10,-1
 224 112 l 1,0,-1
136 112 m 1,11,-1
 136 262 l 1,12,-1
 29 112 l 1,13,-1
 136 112 l 1,11,-1
222 418 m 1,14,-1
 222 381 l 1,15,-1
 12 381 l 1,16,-1
 12 386 l 1,17,-1
 76 466 l 2,18,19
 90 484 90 484 105.5 502.5 c 128,-1,20
 121 521 121 521 133.5 538.5 c 128,-1,21
 146 556 146 556 154.5 573 c 128,-1,22
 163 590 163 590 163 605 c 0,23,24
 163 637 163 637 144 656 c 128,-1,25
 125 675 125 675 93 675 c 0,26,27
 69 675 69 675 57 662.5 c 128,-1,28
 45 650 45 650 31 613 c 1,29,-1
 12 613 l 1,30,31
 18 640 18 640 25.5 653.5 c 128,-1,32
 33 667 33 667 44 680 c 0,33,34
 73 711 73 711 114 711 c 0,35,36
 153 711 153 711 179 685.5 c 128,-1,37
 205 660 205 660 205 625 c 0,38,39
 205 595 205 595 189.5 567 c 128,-1,40
 174 539 174 539 141 503 c 2,41,-1
 67 418 l 1,42,-1
 222 418 l 1,14,-1
EndSplineSet
EndChar
StartChar: A
Encoding: 65 65 36
Width: 768
GlyphClass: 2
Flags: W
Fore
122 -3 m 1,0,-1
 161 -3 l 1,1,-1
 161 122 l 2,2,3
 161 137 161 137 157 152.5 c 128,-1,4
 153 168 153 168 143.5 180.5 c 128,-1,5
 134 193 134 193 118.5 200 c 128,-1,6
 103 207 103 207 81 207 c 2,7,-1
 35 207 l 1,8,-1
 35 170 l 1,9,-1
 78 170 l 2,10,11
 108 170 108 170 115 157.5 c 128,-1,12
 122 145 122 145 122 132 c 1,13,-1
 89 132 l 2,14,15
 78 132 78 132 62.5 128.5 c 128,-1,16
 47 125 47 125 33 115.5 c 128,-1,17
 19 106 19 106 9.5 91 c 128,-1,18
 0 76 0 76 0 53 c 128,-1,19
 0 30 0 30 15.5 13.5 c 128,-1,20
 31 -3 31 -3 61 -3 c 0,21,22
 83 -3 83 -3 98.5 7 c 128,-1,23
 114 17 114 17 122 29 c 1,24,-1
 122 -3 l 1,0,-1
88 96 m 2,25,-1
 122 96 l 1,26,-1
 122 75 l 1,27,-1
 122 61 l 2,28,29
 122 58 122 58 118 52.5 c 128,-1,30
 114 47 114 47 106.5 42 c 128,-1,31
 99 37 99 37 90 33 c 128,-1,32
 81 29 81 29 71 29 c 0,33,34
 56 29 56 29 45.5 33 c 128,-1,35
 35 37 35 37 35 55 c 128,-1,36
 35 73 35 73 51 84.5 c 128,-1,37
 67 96 67 96 88 96 c 2,25,-1
206 207 m 1,38,-1
 206 146 l 1,39,-1
 206 -3 l 1,40,-1
 248 -3 l 1,41,-1
 248 97 l 2,42,43
 248 102 248 102 253 114 c 128,-1,44
 258 126 258 126 260 130 c 0,45,46
 268 142 268 142 278.5 156 c 128,-1,47
 289 170 289 170 307 170 c 0,48,49
 336 170 336 170 340.5 155 c 128,-1,50
 345 140 345 140 345 116 c 2,51,-1
 345 -3 l 1,52,-1
 388 -3 l 1,53,-1
 388 120 l 2,54,55
 388 145 388 145 381 162 c 128,-1,56
 374 179 374 179 363 189 c 128,-1,57
 352 199 352 199 340 203 c 128,-1,58
 328 207 328 207 317 207 c 0,59,60
 292 207 292 207 274.5 194.5 c 128,-1,61
 257 182 257 182 248 170 c 1,62,-1
 248 207 l 1,63,-1
 206 207 l 1,38,-1
631 296 m 1,64,-1
 589 296 l 1,65,-1
 589 170 l 1,66,-1
 579 184 l 2,67,68
 570 196 570 196 554 201.5 c 128,-1,69
 538 207 538 207 523 207 c 0,70,71
 487 205 487 205 460 177.5 c 128,-1,72
 433 150 433 150 433 97 c 0,73,74
 433 51 433 51 458 24 c 128,-1,75
 483 -3 483 -3 520 -3 c 0,76,77
 546 -3 546 -3 563.5 3.5 c 128,-1,78
 581 10 581 10 589 29 c 1,79,-1
 589 -3 l 1,80,-1
 631 -3 l 1,81,-1
 631 296 l 1,64,-1
589 123 m 1,82,-1
 589 96 l 2,83,84
 589 87 589 87 584.5 75 c 128,-1,85
 580 63 580 63 571.5 53 c 128,-1,86
 563 43 563 43 552.5 36 c 128,-1,87
 542 29 542 29 530 29 c 0,88,89
 501 29 501 29 485.5 49 c 128,-1,90
 470 69 470 69 470 100 c 0,91,92
 470 133 470 133 483 151.5 c 128,-1,93
 496 170 496 170 525 170 c 0,94,95
 546 170 546 170 565.5 155 c 128,-1,96
 585 140 585 140 589 123 c 1,82,-1
EndSplineSet
EndChar
StartChar: B
Encoding: 66 66 37
Width: 256
GlyphClass: 2
Flags: W
Fore
37 66 m 1,0,-1
 0 57 l 1,1,-1
 0 0 l 1,2,-1
 37 6 l 1,3,-1
 37 -98 l 1,4,-1
 68 -98 l 1,5,-1
 68 12 l 1,6,-1
 123 20 l 1,7,-1
 123 -61 l 1,8,-1
 147 -61 l 1,9,-1
 147 25 l 1,10,-1
 186 31 l 1,11,-1
 186 92 l 1,12,-1
 147 82 l 1,13,-1
 147 164 l 1,14,-1
 186 170 l 1,15,-1
 186 227 l 1,16,-1
 147 221 l 1,17,-1
 147 328 l 1,18,-1
 123 328 l 1,19,-1
 123 217 l 1,20,-1
 68 209 l 1,21,-1
 68 289 l 1,22,-1
 37 289 l 1,23,-1
 37 203 l 1,24,-1
 0 195 l 1,25,-1
 0 139 l 1,26,-1
 37 145 l 1,27,-1
 37 66 l 1,0,-1
123 80 m 1,28,-1
 68 70 l 1,29,-1
 68 152 l 1,30,-1
 123 158 l 1,31,-1
 123 80 l 1,28,-1
EndSplineSet
EndChar
StartChar: C
Encoding: 67 67 38
Width: 512
GlyphClass: 2
Flags: W
Fore
134 518 m 1,0,-1
 134 201 l 1,1,2
 124 205 124 205 116 211 c 128,-1,3
 108 217 108 217 101 229 c 128,-1,4
 94 241 94 241 88.5 260 c 128,-1,5
 83 279 83 279 78 308 c 1,6,-1
 78 402 l 1,7,8
 88 447 88 447 102 474 c 128,-1,9
 116 501 116 501 124.5 509 c 128,-1,10
 133 517 133 517 134 518 c 1,0,-1
134 692 m 1,11,-1
 134 553 l 1,12,13
 110 546 110 546 84.5 528 c 128,-1,14
 59 510 59 510 39 483 c 0,15,16
 0 429 0 429 0 359 c 0,17,18
 0 318 0 318 12.5 283.5 c 128,-1,19
 25 249 25 249 46 225 c 0,20,21
 69 201 69 201 92 185.5 c 128,-1,22
 115 170 115 170 134 164 c 1,23,-1
 134 26 l 1,24,-1
 179 25 l 1,25,-1
 179 160 l 1,26,27
 203 162 203 162 227.5 171 c 128,-1,28
 252 180 252 180 274 201 c 0,29,30
 316 240 316 240 326 318 c 1,31,-1
 306 318 l 1,32,33
 306 295 306 295 287 260 c 0,34,35
 280 245 280 245 269 232.5 c 128,-1,36
 258 220 258 220 246 210 c 0,37,38
 240 204 240 204 229 200.5 c 128,-1,39
 218 197 218 197 207.5 195 c 128,-1,40
 197 193 197 193 188 191 c 0,41,42
 182 190 182 190 181 190 c 1,43,-1
 181 530 l 1,44,45
 180 531 180 531 186.5 531.5 c 128,-1,46
 193 532 193 532 200 532 c 0,47,48
 208 532 208 532 216 530.5 c 128,-1,49
 224 529 224 529 228 528 c 2,50,-1
 257 516 l 1,51,52
 268 507 268 507 268 502 c 0,53,54
 268 494 268 494 253 494 c 1,55,56
 243 492 243 492 235.5 484.5 c 128,-1,57
 228 477 228 477 224 469 c 0,58,59
 219 461 219 461 215 449 c 128,-1,60
 211 437 211 437 212 426 c 0,61,62
 214 415 214 415 216 408 c 128,-1,63
 218 401 218 401 223 394 c 0,64,65
 230 383 230 383 237 379.5 c 128,-1,66
 244 376 244 376 256 374 c 1,67,-1
 289 382 l 1,68,69
 323 401 323 401 323 438 c 0,70,71
 323 476 323 476 302 503 c 0,72,73
 278 534 278 534 245 544 c 0,74,75
 226 551 226 551 208.5 555 c 128,-1,76
 191 559 191 559 181 559 c 1,77,-1
 181 692 l 1,78,-1
 134 692 l 1,11,-1
EndSplineSet
EndChar
StartChar: D
Encoding: 68 68 39
Width: 1038
GlyphClass: 2
Flags: W
Fore
-24 1125 m 1,0,-1
 1005 1125 l 1,1,-1
 1005 1059 l 1,2,-1
 -24 1059 l 1,3,-1
 -24 1125 l 1,0,-1
963 537 m 1,4,-1
 963 1059 l 1,5,-1
 1005 1059 l 1,6,-1
 1005 537 l 1,7,-1
 963 537 l 1,4,-1
-15 552 m 1,8,-1
 -15 1074 l 1,9,-1
 27 1074 l 1,10,-1
 27 552 l 1,11,-1
 -15 552 l 1,8,-1
226 275 m 0,12,13
 226 355 226 355 249 384 c 128,-1,14
 272 413 272 413 318 419 c 0,15,16
 394 419 394 419 442 357 c 0,17,18
 456 341 456 341 467 322.5 c 128,-1,19
 478 304 478 304 484 284 c 0,20,21
 490 265 490 265 494 244.5 c 128,-1,22
 498 224 498 224 498 204 c 0,23,24
 498 120 498 120 480 93 c 0,25,26
 458 64 458 64 402 58 c 0,27,28
 330 58 330 58 282 122 c 0,29,30
 268 138 268 138 258 156 c 2,31,-1
 240 189 l 1,32,33
 230 218 230 218 228 231.5 c 128,-1,34
 226 245 226 245 226 275 c 0,12,13
16 239 m 0,35,36
 16 161 16 161 76 112 c 0,37,38
 136 62 136 62 216 42.5 c 128,-1,39
 296 23 296 23 368 23 c 0,40,41
 402 23 402 23 441 28.5 c 128,-1,42
 480 34 480 34 522 46 c 0,43,44
 604 71 604 71 656 118 c 0,45,46
 712 167 712 167 712 239 c 0,47,48
 712 320 712 320 648 365 c 0,49,50
 586 417 586 417 506 433 c 0,51,52
 440 454 440 454 356 454 c 0,53,54
 320 454 320 454 284 447 c 0,55,56
 264 443 264 443 245 440 c 128,-1,57
 226 437 226 437 210 433 c 0,58,59
 136 415 136 415 76 365 c 0,60,61
 16 316 16 316 16 239 c 0,35,36
EndSplineSet
EndChar
StartChar: E
Encoding: 69 69 40
Width: 1586
GlyphClass: 2
Flags: W
Fore
188 1374 m 1,0,-1
 1217 1374 l 1,1,-1
 1217 1308 l 1,2,-1
 188 1308 l 1,3,-1
 188 1374 l 1,0,-1
1175 786 m 1,4,-1
 1175 1308 l 1,5,-1
 1217 1308 l 1,6,-1
 1217 786 l 1,7,-1
 1175 786 l 1,4,-1
197 801 m 1,8,-1
 197 1323 l 1,9,-1
 239 1323 l 1,10,-1
 239 801 l 1,11,-1
 197 801 l 1,8,-1
950 168 m 1,12,13
 902 199 902 199 846 199 c 0,14,15
 782 199 782 199 716 168 c 128,-1,16
 650 137 650 137 608 88 c 0,17,18
 564 35 564 35 564 -25 c 0,19,20
 564 -41 564 -41 565 -55.5 c 128,-1,21
 566 -70 566 -70 568 -80 c 2,22,-1
 580 -121 l 2,23,24
 594 -158 594 -158 632 -170 c 0,25,26
 662 -182 662 -182 718 -182 c 0,27,28
 768 -182 768 -182 834 -148 c 0,29,30
 894 -117 894 -117 938 -66 c 0,31,32
 950 -49 950 -49 959 -36 c 128,-1,33
 968 -23 968 -23 972 -10 c 0,34,35
 980 10 980 10 982 14 c 128,-1,36
 984 18 984 18 984 43 c 2,37,-1
 984 1251 l 1,38,-1
 950 1251 l 1,39,-1
 950 168 l 1,12,13
696 39 m 0,40,41
 832 143 832 143 910 143 c 1,42,43
 940 133 940 133 940 108 c 0,44,45
 940 78 940 78 894 24 c 0,46,47
 872 -2 872 -2 853 -19.5 c 128,-1,48
 834 -37 834 -37 818 -45 c 2,49,50
 762 -90 762 -90 718 -105 c 0,51,52
 678 -125 678 -125 640 -125 c 1,53,54
 608 -113 608 -113 600 -88 c 1,55,56
 600 -66 600 -66 638 -19 c 0,57,58
 674 24 674 24 696 39 c 0,40,41
EndSplineSet
EndChar
StartChar: F
Encoding: 70 70 41
Width: 1468
GlyphClass: 2
Flags: W
Fore
176 1366 m 1,0,-1
 1205 1366 l 1,1,-1
 1205 1300 l 1,2,-1
 176 1300 l 1,3,-1
 176 1366 l 1,0,-1
1163 778 m 1,4,-1
 1163 1300 l 1,5,-1
 1205 1300 l 1,6,-1
 1205 778 l 1,7,-1
 1163 778 l 1,4,-1
185 793 m 1,8,-1
 185 1315 l 1,9,-1
 227 1315 l 1,10,-1
 227 793 l 1,11,-1
 185 793 l 1,8,-1
874 1243 m 1,12,-1
 837 1243 l 1,13,-1
 837 133 l 1,14,15
 790 168 790 168 728 168 c 0,16,17
 699 168 699 168 668.5 161 c 128,-1,18
 638 154 638 154 601 137 c 0,19,20
 566 115 566 115 537.5 91.5 c 128,-1,21
 509 68 509 68 489 45 c 0,22,23
 446 -10 446 -10 446 -70 c 0,24,25
 446 -125 446 -125 489 -158 c 0,26,27
 534 -190 534 -190 591 -190 c 0,28,29
 654 -190 654 -190 722 -159.5 c 128,-1,30
 790 -129 790 -129 833 -74 c 0,31,32
 874 -14 874 -14 874 41 c 2,33,-1
 874 1243 l 1,12,-1
EndSplineSet
EndChar
StartChar: G
Encoding: 71 71 42
Width: 1415
GlyphClass: 2
Flags: W
Fore
240 1364 m 1,0,-1
 1269 1364 l 1,1,-1
 1269 1298 l 1,2,-1
 240 1298 l 1,3,-1
 240 1364 l 1,0,-1
1227 776 m 1,4,-1
 1227 1298 l 1,5,-1
 1269 1298 l 1,6,-1
 1269 776 l 1,7,-1
 1227 776 l 1,4,-1
249 791 m 1,8,-1
 249 1313 l 1,9,-1
 291 1313 l 1,10,-1
 291 791 l 1,11,-1
 249 791 l 1,8,-1
785 1243 m 1,12,-1
 785 868 l 1,13,-1
 785 135 l 1,14,15
 752 168 752 168 664 168 c 0,16,17
 608 168 608 168 541 137 c 0,18,19
 506 121 506 121 480.5 98.5 c 128,-1,20
 455 76 455 76 434 51 c 0,21,22
 412 25 412 25 402.5 -5 c 128,-1,23
 393 -35 393 -35 393 -65 c 0,24,25
 393 -127 393 -127 436 -158 c 0,26,27
 475 -190 475 -190 539 -190 c 0,28,29
 608 -190 608 -190 672 -158 c 0,30,31
 748 -123 748 -123 774 -78 c 0,32,33
 819 -20 819 -20 819 43 c 2,34,-1
 819 856 l 1,35,36
 844 856 844 856 875.5 846 c 128,-1,37
 907 836 907 836 936 819 c 0,38,39
 989 793 989 793 1034 735 c 0,40,41
 1084 684 1084 684 1104 621 c 0,42,43
 1120 574 1120 574 1120 571 c 1,44,45
 1123 563 1123 563 1124 555 c 128,-1,46
 1125 547 1125 547 1129 539 c 1,47,-1
 1129 498 l 1,48,-1
 1127 473 l 1,49,-1
 1120 418 l 2,50,51
 1116 395 1116 395 1110 376.5 c 128,-1,52
 1104 358 1104 358 1098 340 c 2,53,-1
 1063 250 l 1,54,-1
 1094 252 l 1,55,56
 1110 281 1110 281 1119.5 304.5 c 128,-1,57
 1129 328 1129 328 1143 363 c 0,58,59
 1161 408 1161 408 1167.5 450 c 128,-1,60
 1174 492 1174 492 1174 526 c 0,61,62
 1174 672 1174 672 1071 805 c 2,63,-1
 981 909 l 1,64,-1
 932 969 l 1,65,-1
 897 1012 l 2,66,67
 867 1055 867 1055 852 1106 c 0,68,69
 842 1135 842 1135 833 1168.5 c 128,-1,70
 824 1202 824 1202 819 1243 c 1,71,-1
 785 1243 l 1,12,-1
EndSplineSet
EndChar
StartChar: H
Encoding: 72 72 43
Width: 1457
GlyphClass: 2
Flags: W
Fore
372 1392 m 1,0,-1
 1401 1392 l 1,1,-1
 1401 1326 l 1,2,-1
 372 1326 l 1,3,-1
 372 1392 l 1,0,-1
1359 804 m 1,4,-1
 1359 1326 l 1,5,-1
 1401 1326 l 1,6,-1
 1401 804 l 1,7,-1
 1359 804 l 1,4,-1
381 819 m 1,8,-1
 381 1341 l 1,9,-1
 423 1341 l 1,10,-1
 423 819 l 1,11,-1
 381 819 l 1,8,-1
860 544 m 1,12,-1
 860 46 l 2,13,14
 860 -17 860 -17 815 -75 c 0,15,16
 789 -120 789 -120 713 -155 c 0,17,18
 649 -187 649 -187 580 -187 c 0,19,20
 516 -187 516 -187 477 -155 c 0,21,22
 434 -124 434 -124 434 -62 c 0,23,24
 434 -32 434 -32 443.5 -2 c 128,-1,25
 453 28 453 28 475 54 c 0,26,27
 496 79 496 79 521.5 101.5 c 128,-1,28
 547 124 547 124 582 140 c 0,29,30
 649 171 649 171 705 171 c 0,31,32
 793 171 793 171 826 138 c 1,33,-1
 826 871 l 1,34,-1
 826 1246 l 1,35,-1
 860 1246 l 1,36,37
 865 1205 865 1205 874 1171.5 c 128,-1,38
 883 1138 883 1138 893 1109 c 0,39,40
 908 1058 908 1058 938 1015 c 2,41,-1
 973 972 l 1,42,-1
 1022 912 l 1,43,-1
 1112 808 l 2,44,45
 1215 675 1215 675 1215 529 c 0,46,47
 1215 464 1215 464 1200 421 c 0,48,49
 1196 411 1196 411 1188 392 c 0,50,51
 1182 376 1182 376 1182 374 c 1,52,53
 1215 308 1215 308 1215 214 c 0,54,55
 1215 189 1215 189 1212 160.5 c 128,-1,56
 1209 132 1209 132 1200 103 c 1,57,-1
 1161 103 l 1,58,-1
 1168 161 l 1,59,-1
 1170 185 l 1,60,-1
 1170 226 l 1,61,62
 1168 230 1168 230 1166 238.5 c 128,-1,63
 1164 247 1164 247 1161 257 c 1,64,65
 1161 259 1161 259 1145 308 c 0,66,67
 1135 339 1135 339 1116.5 366.5 c 128,-1,68
 1098 394 1098 394 1075 421 c 0,69,70
 1028 478 1028 478 977 507 c 0,71,72
 948 523 948 523 916.5 533.5 c 128,-1,73
 885 544 885 544 860 544 c 1,12,-1
893 769 m 0,74,75
 899 740 899 740 909.5 724 c 128,-1,76
 920 708 920 708 936 687 c 2,77,-1
 971 642 l 1,78,-1
 1016 591 l 1,79,-1
 1112 490 l 2,80,81
 1129 468 1129 468 1140 450.5 c 128,-1,82
 1151 433 1151 433 1159 417 c 1,83,-1
 1168 476 l 1,84,-1
 1170 501 l 1,85,-1
 1170 542 l 1,86,-1
 1168 554 l 1,87,88
 1164 566 1164 566 1161 574 c 2,89,-1
 1145 624 l 2,90,91
 1125 687 1125 687 1075 738 c 0,92,93
 1030 796 1030 796 977 822 c 0,94,95
 924 855 924 855 873 859 c 1,96,97
 877 843 877 843 882 816 c 128,-1,98
 887 789 887 789 893 769 c 0,74,75
EndSplineSet
EndChar
StartChar: I
Encoding: 73 73 44
Width: 1465
GlyphClass: 2
Flags: W
Fore
645 1806 m 1,0,-1
 1674 1806 l 1,1,-1
 1674 1740 l 1,2,-1
 645 1740 l 1,3,-1
 645 1806 l 1,0,-1
1632 1218 m 1,4,-1
 1632 1740 l 1,5,-1
 1674 1740 l 1,6,-1
 1674 1218 l 1,7,-1
 1632 1218 l 1,4,-1
654 1233 m 1,8,-1
 654 1755 l 1,9,-1
 696 1755 l 1,10,-1
 696 1233 l 1,11,-1
 654 1233 l 1,8,-1
1364 1176 m 0,12,-1
1499 1258 m 0,13,-1
1155 1307 m 0,14,-1
1090 541 m 1,15,-1
 1090 41 l 2,16,17
 1090 -14 1090 -14 1045 -78 c 0,18,19
 1014 -123 1014 -123 942 -160 c 0,20,21
 875 -192 875 -192 809 -192 c 0,22,23
 750 -192 750 -192 707 -160 c 0,24,25
 664 -125 664 -125 664 -65 c 0,26,27
 664 -37 664 -37 673 -6 c 128,-1,28
 682 25 682 25 705 49 c 0,29,30
 725 74 725 74 750.5 96.5 c 128,-1,31
 776 119 776 119 811 135 c 0,32,33
 879 168 879 168 934 168 c 0,34,35
 1022 168 1022 168 1055 135 c 1,36,-1
 1057 1311 l 1,37,-1
 1057 1688 l 1,38,-1
 1057 1688 l 1,39,-1
 1057 1688 l 1,40,-1
 1126 1475 l 1,41,-1
 1208 1335 l 1,42,-1
 1393 1139 l 1,43,-1
 1468 533 l 1,44,45
 1395 946 1395 946 1335 1049 c 0,46,47
 1282 1139 1282 1139 1104 1167 c 0,48,49
 1092 1169 1092 1169 1122 1106 c 0,50,51
 1151 1047 1151 1047 1167 1012 c 1,52,-1
 1202 967 l 1,53,-1
 1251 909 l 1,54,-1
 1341 803 l 2,55,56
 1444 684 1444 684 1444 524 c 0,57,58
 1444 442 1444 442 1430 418 c 0,59,60
 1425 406 1425 406 1417 389 c 0,61,62
 1411 373 1411 373 1411 369 c 1,63,64
 1444 303 1444 303 1444 209 c 0,65,66
 1444 184 1444 184 1441 155.5 c 128,-1,67
 1438 127 1438 127 1430 98 c 1,68,-1
 1391 98 l 1,69,-1
 1397 156 l 1,70,-1
 1399 180 l 1,71,-1
 1399 221 l 1,72,73
 1397 225 1397 225 1395 234 c 0,74,75
 1391 250 1391 250 1391 252 c 128,-1,76
 1391 254 1391 254 1374 303 c 0,77,78
 1364 336 1364 336 1345.5 362.5 c 128,-1,79
 1327 389 1327 389 1305 418 c 0,80,81
 1257 475 1257 475 1206 504 c 0,82,83
 1178 520 1178 520 1146 530.5 c 128,-1,84
 1114 541 1114 541 1090 541 c 1,15,-1
1122 766 m 0,85,86
 1128 737 1128 737 1138.5 721 c 128,-1,87
 1149 705 1149 705 1165 684 c 2,88,-1
 1200 639 l 1,89,-1
 1245 586 l 1,90,-1
 1341 488 l 1,91,92
 1358 463 1358 463 1369 446.5 c 128,-1,93
 1380 430 1380 430 1389 414 c 1,94,-1
 1397 471 l 1,95,-1
 1399 496 l 1,96,-1
 1399 537 l 1,97,-1
 1397 549 l 1,98,99
 1393 561 1393 561 1391 569 c 2,100,-1
 1374 619 l 2,101,102
 1354 684 1354 684 1305 733 c 0,103,104
 1260 791 1260 791 1206 819 c 0,105,106
 1153 852 1153 852 1102 856 c 1,107,108
 1106 840 1106 840 1111 813.5 c 128,-1,109
 1116 787 1116 787 1122 766 c 0,85,86
EndSplineSet
EndChar
StartChar: J
Encoding: 74 74 45
Width: 1451
GlyphClass: 2
Flags: W
Fore
596 1906 m 1,0,-1
 1625 1906 l 1,1,-1
 1625 1840 l 1,2,-1
 596 1840 l 1,3,-1
 596 1906 l 1,0,-1
1583 1318 m 1,4,-1
 1583 1840 l 1,5,-1
 1625 1840 l 1,6,-1
 1625 1318 l 1,7,-1
 1583 1318 l 1,4,-1
605 1333 m 1,8,-1
 605 1855 l 1,9,-1
 647 1855 l 1,10,-1
 647 1333 l 1,11,-1
 605 1333 l 1,8,-1
1077 1773 m 1,12,13
 1097 1751 1097 1751 1114.5 1726.5 c 128,-1,14
 1132 1702 1132 1702 1134 1697 c 0,15,16
 1138 1690 1138 1690 1173 1636 c 128,-1,17
 1208 1582 1208 1582 1209 1580 c 0,18,19
 1235 1542 1235 1542 1277.5 1487 c 128,-1,20
 1320 1432 1320 1432 1351 1392.5 c 128,-1,21
 1382 1353 1382 1353 1418.5 1298 c 128,-1,22
 1455 1243 1455 1243 1478.5 1197 c 128,-1,23
 1502 1151 1502 1151 1520.5 1091 c 128,-1,24
 1539 1031 1539 1031 1541 974 c 0,25,26
 1543 949 1543 949 1532 848 c 0,27,28
 1503 577 1503 577 1492 666 c 0,29,30
 1491 678 1491 678 1478 695 c 0,31,32
 1445 735 1445 735 1475 741 c 0,33,34
 1548 759 1548 759 1428 1214 c 1,35,-1
 1366 1307 l 1,36,-1
 1080 1783 l 1,37,-1
 1077 1773 l 1,12,13
1350 1198 m 0,38,-1
1516 1382 m 0,39,-1
1141 1329 m 0,40,-1
1076 563 m 1,41,-1
 1076 63 l 2,42,43
 1076 11 1076 11 1031 -56 c 0,44,45
 997 -104 997 -104 928 -138 c 0,46,47
 861 -170 861 -170 795 -170 c 0,48,49
 733 -170 733 -170 693 -138 c 0,50,51
 650 -103 650 -103 650 -43 c 0,52,53
 650 -15 650 -15 658 16 c 0,54,55
 666 43 666 43 691 71 c 0,56,57
 711 96 711 96 736.5 118.5 c 128,-1,58
 762 141 762 141 797 157 c 0,59,60
 865 190 865 190 920 190 c 0,61,62
 1008 190 1008 190 1041 157 c 1,63,-1
 1043 1333 l 1,64,-1
 1043 1710 l 1,65,-1
 1043 1710 l 1,66,-1
 1043 1710 l 1,67,-1
 1122 1474 l 1,68,-1
 1194 1357 l 1,69,-1
 1379 1161 l 1,70,-1
 1454 555 l 1,71,72
 1381 968 1381 968 1321 1071 c 0,73,74
 1268 1161 1268 1161 1090 1189 c 0,75,76
 1078 1191 1078 1191 1108 1128 c 0,77,78
 1137 1069 1137 1069 1153 1034 c 1,79,-1
 1188 989 l 1,80,-1
 1237 931 l 1,81,-1
 1327 825 l 2,82,83
 1430 704 1430 704 1430 546 c 0,84,85
 1430 464 1430 464 1416 440 c 0,86,87
 1409 429 1409 429 1403 411 c 0,88,89
 1397 395 1397 395 1397 391 c 1,90,91
 1430 325 1430 325 1430 231 c 0,92,93
 1430 206 1430 206 1427 177.5 c 128,-1,94
 1424 149 1424 149 1416 120 c 1,95,-1
 1377 120 l 1,96,-1
 1383 178 l 1,97,-1
 1385 202 l 1,98,-1
 1385 243 l 1,99,100
 1383 247 1383 247 1381 256 c 0,101,102
 1377 272 1377 272 1377 274 c 128,-1,103
 1377 276 1377 276 1360 325 c 0,104,105
 1350 358 1350 358 1331.5 384.5 c 128,-1,106
 1313 411 1313 411 1291 440 c 0,107,108
 1243 497 1243 497 1192 526 c 0,109,110
 1164 542 1164 542 1132 552.5 c 128,-1,111
 1100 563 1100 563 1076 563 c 1,41,-1
1108 788 m 0,112,113
 1114 759 1114 759 1124.5 743 c 128,-1,114
 1135 727 1135 727 1151 706 c 2,115,-1
 1186 661 l 1,116,-1
 1231 608 l 1,117,-1
 1327 510 l 1,118,119
 1344 485 1344 485 1355 468.5 c 128,-1,120
 1366 452 1366 452 1375 436 c 1,121,-1
 1383 493 l 1,122,-1
 1385 518 l 1,123,-1
 1385 559 l 1,124,-1
 1383 571 l 1,125,126
 1379 583 1379 583 1377 591 c 2,127,-1
 1360 641 l 2,128,129
 1340 706 1340 706 1291 755 c 0,130,131
 1246 813 1246 813 1192 841 c 0,132,133
 1139 874 1139 874 1088 878 c 1,134,135
 1092 862 1092 862 1097 835.5 c 128,-1,136
 1102 809 1102 809 1108 788 c 0,112,113
EndSplineSet
EndChar
StartChar: K
Encoding: 75 75 46
Width: 1356
GlyphClass: 2
Flags: W
Fore
567 2157 m 1,0,-1
 1596 2157 l 1,1,-1
 1596 2091 l 1,2,-1
 567 2091 l 1,3,-1
 567 2157 l 1,0,-1
1554 1569 m 1,4,-1
 1554 2091 l 1,5,-1
 1596 2091 l 1,6,-1
 1596 1569 l 1,7,-1
 1554 1569 l 1,4,-1
576 1584 m 1,8,-1
 576 2106 l 1,9,-1
 618 2106 l 1,10,-1
 618 1584 l 1,11,-1
 576 1584 l 1,8,-1
1488 866 m 1,12,13
 1536 877 1536 877 1529 922 c 0,14,15
 1517 1022 1517 1022 1519 1076 c 0,16,17
 1526 1224 1526 1224 1516 1266 c 0,18,19
 1473 1459 1473 1459 1473 1460 c 1,20,21
 1451 1458 1451 1458 1376 1573 c 0,22,23
 1274 1728 1274 1728 1271 1730 c 0,24,25
 1090 1805 1090 1805 1089 1885 c 0,26,27
 1086 2063 1086 2063 997 2059 c 0,28,29
 887 2054 887 2054 951 1839 c 1,30,-1
 1488 866 l 1,12,13
987 1834 m 1,31,32
 1055 1805 1055 1805 1125 1777 c 1,33,-1
 1171 1726 l 1,34,-1
 1217 1670 l 1,35,36
 1271 1579 1271 1579 1279 1573 c 0,37,38
 1321 1533 1321 1533 1348 1510 c 0,39,40
 1404 1465 1404 1465 1381 1337 c 0,41,42
 1371 1281 1371 1281 1432 1224 c 1,43,-1
 1463 892 l 1,44,-1
 987 1834 l 1,31,32
983 1769 m 1,45,46
 1003 1747 1003 1747 1020.5 1722.5 c 128,-1,47
 1038 1698 1038 1698 1040 1693 c 0,48,49
 1044 1686 1044 1686 1079 1632 c 128,-1,50
 1114 1578 1114 1578 1115 1576 c 0,51,52
 1141 1538 1141 1538 1183.5 1483 c 128,-1,53
 1226 1428 1226 1428 1257 1388.5 c 128,-1,54
 1288 1349 1288 1349 1324.5 1294 c 128,-1,55
 1361 1239 1361 1239 1384.5 1193 c 128,-1,56
 1408 1147 1408 1147 1426.5 1087 c 128,-1,57
 1445 1027 1445 1027 1447 970 c 0,58,59
 1449 945 1449 945 1438 844 c 0,60,61
 1409 573 1409 573 1398 662 c 0,62,63
 1397 674 1397 674 1384 691 c 0,64,65
 1351 731 1351 731 1381 737 c 0,66,67
 1454 755 1454 755 1334 1210 c 1,68,-1
 1272 1303 l 1,69,-1
 986 1779 l 1,70,-1
 983 1769 l 1,45,46
1256 1194 m 0,71,-1
1627 1363 m 0,72,-1
1047 1325 m 0,73,-1
982 559 m 1,74,-1
 982 59 l 2,75,76
 982 7 982 7 937 -60 c 0,77,78
 903 -108 903 -108 834 -142 c 0,79,80
 767 -174 767 -174 701 -174 c 0,81,82
 639 -174 639 -174 599 -142 c 0,83,84
 556 -107 556 -107 556 -47 c 0,85,86
 556 -19 556 -19 564 12 c 0,87,88
 572 39 572 39 597 67 c 0,89,90
 617 92 617 92 642.5 114.5 c 128,-1,91
 668 137 668 137 703 153 c 0,92,93
 771 186 771 186 826 186 c 0,94,95
 914 186 914 186 947 153 c 1,96,-1
 949 1329 l 1,97,-1
 949 1706 l 1,98,-1
 949 1706 l 1,99,-1
 949 1706 l 1,100,-1
 1028 1470 l 1,101,-1
 1100 1353 l 1,102,-1
 1285 1157 l 1,103,-1
 1360 551 l 1,104,105
 1287 964 1287 964 1227 1067 c 0,106,107
 1174 1157 1174 1157 996 1185 c 0,108,109
 984 1187 984 1187 1014 1124 c 0,110,111
 1043 1065 1043 1065 1059 1030 c 1,112,-1
 1094 985 l 1,113,-1
 1143 927 l 1,114,-1
 1233 821 l 2,115,116
 1336 700 1336 700 1336 542 c 0,117,118
 1336 460 1336 460 1322 436 c 0,119,120
 1315 425 1315 425 1309 407 c 0,121,122
 1303 391 1303 391 1303 387 c 1,123,124
 1336 321 1336 321 1336 227 c 0,125,126
 1336 202 1336 202 1333 173.5 c 128,-1,127
 1330 145 1330 145 1322 116 c 1,128,-1
 1283 116 l 1,129,-1
 1289 174 l 1,130,-1
 1291 198 l 1,131,-1
 1291 239 l 1,132,133
 1289 243 1289 243 1287 252 c 0,134,135
 1283 268 1283 268 1283 270 c 128,-1,136
 1283 272 1283 272 1266 321 c 0,137,138
 1256 354 1256 354 1237.5 380.5 c 128,-1,139
 1219 407 1219 407 1197 436 c 0,140,141
 1149 493 1149 493 1098 522 c 0,142,143
 1070 538 1070 538 1038 548.5 c 128,-1,144
 1006 559 1006 559 982 559 c 1,74,-1
1014 784 m 0,145,146
 1020 755 1020 755 1030.5 739 c 128,-1,147
 1041 723 1041 723 1057 702 c 2,148,-1
 1092 657 l 1,149,-1
 1137 604 l 1,150,-1
 1233 506 l 1,151,152
 1250 481 1250 481 1261 464.5 c 128,-1,153
 1272 448 1272 448 1281 432 c 1,154,-1
 1289 489 l 1,155,-1
 1291 514 l 1,156,-1
 1291 555 l 1,157,-1
 1289 567 l 1,158,159
 1285 579 1285 579 1283 587 c 2,160,-1
 1266 637 l 2,161,162
 1246 702 1246 702 1197 751 c 0,163,164
 1152 809 1152 809 1098 837 c 0,165,166
 1045 870 1045 870 994 874 c 1,167,168
 998 858 998 858 1003 831.5 c 128,-1,169
 1008 805 1008 805 1014 784 c 0,145,146
EndSplineSet
EndChar
StartChar: L
Encoding: 76 76 47
Width: 256
GlyphClass: 2
Flags: W
Fore
116 151 m 1,0,-1
 116 150 l 1,1,2
 142 129 142 129 159 111.5 c 128,-1,3
 176 94 176 94 176 68 c 0,4,5
 176 34 176 34 152.5 16.5 c 128,-1,6
 129 -1 129 -1 90 -1 c 0,7,8
 53 -1 53 -1 26.5 15 c 128,-1,9
 0 31 0 31 0 63 c 0,10,11
 0 85 0 85 14 101.5 c 128,-1,12
 28 118 28 118 65 144 c 1,13,14
 47 159 47 159 36.5 169.5 c 128,-1,15
 26 180 26 180 20 189 c 128,-1,16
 14 198 14 198 12 206 c 128,-1,17
 10 214 10 214 10 225 c 0,18,19
 10 255 10 255 33.5 274 c 128,-1,20
 57 293 57 293 92 293 c 0,21,22
 125 293 125 293 146.5 276 c 128,-1,23
 168 259 168 259 168 231 c 0,24,25
 168 209 168 209 158 188.5 c 128,-1,26
 148 168 148 168 116 151 c 1,0,-1
111 113 m 2,27,-1
 86 130 l 1,28,29
 66 115 66 115 48 99.5 c 128,-1,30
 30 84 30 84 28 63 c 0,31,32
 26 41 26 41 47.5 30 c 128,-1,33
 69 19 69 19 93 19 c 0,34,35
 115 19 115 19 128 30 c 128,-1,36
 141 41 141 41 143 55 c 0,37,38
 145 74 145 74 139.5 84.5 c 128,-1,39
 134 95 134 95 111 113 c 2,27,-1
74 178 m 2,40,-1
 93 165 l 1,41,42
 116 179 116 179 128 193.5 c 128,-1,43
 140 208 140 208 138 227 c 0,44,45
 136 248 136 248 123.5 257 c 128,-1,46
 111 266 111 266 93 266 c 0,47,48
 73 266 73 266 56.5 257 c 128,-1,49
 40 248 40 248 40 230 c 0,50,51
 40 213 40 213 46 203 c 128,-1,52
 52 193 52 193 74 178 c 2,40,-1
EndSplineSet
EndChar
StartChar: M
Encoding: 77 77 48
Width: 256
GlyphClass: 2
Flags: W
Fore
16 0 m 1,0,-1
 16 22 l 1,1,2
 46 25 46 25 70.5 31 c 128,-1,3
 95 37 95 37 113.5 49 c 128,-1,4
 132 61 132 61 143.5 80 c 128,-1,5
 155 99 155 99 158 128 c 1,6,7
 137 113 137 113 118 110.5 c 128,-1,8
 99 108 99 108 84 108 c 0,9,10
 46 108 46 108 23 133 c 128,-1,11
 0 158 0 158 0 201 c 0,12,13
 0 247 0 247 25.5 274 c 128,-1,14
 51 301 51 301 91 301 c 0,15,16
 135 301 135 301 161 269 c 0,17,18
 173 252 173 252 180.5 227 c 128,-1,19
 188 202 188 202 188 174 c 0,20,21
 188 152 188 152 187 131.5 c 128,-1,22
 186 111 186 111 180.5 92.5 c 128,-1,23
 175 74 175 74 164.5 58 c 128,-1,24
 154 42 154 42 135 29 c 0,25,26
 124 20 124 20 108 14.5 c 128,-1,27
 92 9 92 9 75.5 6 c 128,-1,28
 59 3 59 3 43.5 1.5 c 128,-1,29
 28 0 28 0 16 0 c 1,0,-1
85 129 m 2,30,-1
 98 129 l 2,31,32
 103 129 103 129 111.5 131.5 c 128,-1,33
 120 134 120 134 128 138 c 128,-1,34
 136 142 136 142 143 147.5 c 128,-1,35
 150 153 150 153 152 158 c 0,36,37
 157 167 157 167 157.5 178.5 c 128,-1,38
 158 190 158 190 158 205 c 0,39,40
 158 240 158 240 137 259 c 128,-1,41
 116 278 116 278 91 278 c 0,42,43
 68 278 68 278 49 259.5 c 128,-1,44
 30 241 30 241 28 205 c 0,45,46
 26 168 26 168 42 149 c 128,-1,47
 58 130 58 130 85 129 c 2,30,-1
EndSplineSet
EndChar
StartChar: N
Encoding: 78 78 49
Width: 512
GlyphClass: 2
Flags: W
Fore
213 587 m 1,0,-1
 213 647 l 1,1,-1
 455 647 l 1,2,-1
 455 587 l 1,3,-1
 213 587 l 1,0,-1
196 717 m 1,4,-1
 196 162 l 1,5,6
 172 179 172 179 141 179 c 0,7,8
 127 179 127 179 111.5 175.5 c 128,-1,9
 96 172 96 172 78 164 c 0,10,11
 60 153 60 153 46 141 c 128,-1,12
 32 129 32 129 22 118 c 0,13,14
 0 90 0 90 0 60 c 0,15,16
 0 33 0 33 22 16 c 0,17,18
 44 0 44 0 73 0 c 0,19,20
 104 0 104 0 138 15.5 c 128,-1,21
 172 31 172 31 194 58 c 0,22,23
 213 87 213 87 213 116 c 2,24,-1
 213 520 l 1,25,-1
 455 520 l 1,26,-1
 455 162 l 1,27,28
 428 179 428 179 400 179 c 0,29,30
 386 179 386 179 370 175.5 c 128,-1,31
 354 172 354 172 336 164 c 0,32,33
 302 143 302 143 281 118 c 0,34,35
 258 89 258 89 258 60 c 0,36,37
 258 33 258 33 280.5 16.5 c 128,-1,38
 303 0 303 0 332 0 c 0,39,40
 362 0 362 0 396 15.5 c 128,-1,41
 430 31 430 31 452 58 c 0,42,43
 472 85 472 85 472 116 c 2,44,-1
 472 717 l 1,45,-1
 196 717 l 1,4,-1
EndSplineSet
EndChar
StartChar: O
Encoding: 79 79 50
Width: 768
GlyphClass: 2
Flags: W
Fore
631 114 m 128,-1,1
 631 98 631 98 619.5 87.5 c 128,-1,2
 608 77 608 77 593 77 c 256,3,4
 578 77 578 77 567 87.5 c 128,-1,5
 556 98 556 98 556 114 c 128,-1,6
 556 130 556 130 567 141 c 128,-1,7
 578 152 578 152 593 152 c 256,8,9
 608 152 608 152 619.5 141 c 128,-1,0
 631 130 631 130 631 114 c 128,-1,1
196 717 m 1,10,-1
 507 717 l 1,11,-1
 507 116 l 2,12,13
 507 85 507 85 486 58 c 0,14,15
 466 31 466 31 432 15.5 c 128,-1,16
 398 0 398 0 367 0 c 0,17,18
 339 0 339 0 316.5 16.5 c 128,-1,19
 294 33 294 33 294 60 c 0,20,21
 294 92 294 92 316 118 c 0,22,23
 336 143 336 143 372 164 c 0,24,25
 390 172 390 172 405.5 175.5 c 128,-1,26
 421 179 421 179 435 179 c 0,27,28
 466 179 466 179 489 162 c 1,29,-1
 489 648 l 1,30,-1
 213 648 l 1,31,-1
 213 587 l 1,32,-1
 333 587 l 1,33,-1
 333 520 l 1,34,-1
 213 520 l 1,35,-1
 213 116 l 2,36,37
 213 85 213 85 193 58 c 0,38,39
 172 31 172 31 138 15.5 c 128,-1,40
 104 0 104 0 73 0 c 0,41,42
 44 0 44 0 22 16 c 0,43,44
 0 33 0 33 0 60 c 0,45,46
 0 90 0 90 22 118 c 0,47,48
 32 129 32 129 46 141 c 128,-1,49
 60 153 60 153 78 164 c 0,50,51
 95 172 95 172 111 175.5 c 128,-1,52
 127 179 127 179 141 179 c 0,53,54
 172 179 172 179 196 162 c 1,55,-1
 196 717 l 1,10,-1
EndSplineSet
EndChar
StartChar: P
Encoding: 80 80 51
Width: 256
GlyphClass: 2
Flags: W
Fore
143 172 m 1,0,-1
 143 171 l 1,1,2
 173 148 173 148 192.5 128.5 c 128,-1,3
 212 109 212 109 212 79 c 0,4,5
 212 41 212 41 186.5 20.5 c 128,-1,6
 161 0 161 0 115 0 c 0,7,8
 72 0 72 0 42.5 18.5 c 128,-1,9
 13 37 13 37 13 75 c 0,10,11
 13 87 13 87 16.5 97.5 c 128,-1,12
 20 108 20 108 29 118 c 128,-1,13
 38 128 38 128 52 139.5 c 128,-1,14
 66 151 66 151 86 166 c 1,15,16
 66 182 66 182 54 193.5 c 128,-1,17
 42 205 42 205 36 215 c 128,-1,18
 30 225 30 225 28 235 c 128,-1,19
 26 245 26 245 26 257 c 0,20,21
 26 290 26 290 52.5 311.5 c 128,-1,22
 79 333 79 333 118 333 c 0,23,24
 155 333 155 333 179 314 c 128,-1,25
 203 295 203 295 203 263 c 0,26,27
 203 239 203 239 192 216 c 128,-1,28
 181 193 181 193 143 172 c 1,0,-1
138 130 m 2,29,-1
 111 150 l 1,30,31
 87 132 87 132 67 115 c 128,-1,32
 47 98 47 98 45 75 c 0,33,34
 44 62 44 62 50 52.5 c 128,-1,35
 56 43 56 43 67 37 c 128,-1,36
 78 31 78 31 91 28 c 128,-1,37
 104 25 104 25 119 25 c 0,38,39
 142 25 142 25 157.5 36.5 c 128,-1,40
 173 48 173 48 175 66 c 0,41,42
 176 76 176 76 175.5 83.5 c 128,-1,43
 175 91 175 91 171 98 c 128,-1,44
 167 105 167 105 159.5 112.5 c 128,-1,45
 152 120 152 120 138 130 c 2,29,-1
96 204 m 2,46,-1
 119 188 l 1,47,48
 143 206 143 206 157 222 c 128,-1,49
 171 238 171 238 169 259 c 0,50,51
 167 283 167 283 152 293 c 128,-1,52
 137 303 137 303 119 303 c 0,53,54
 95 303 95 303 76.5 292.5 c 128,-1,55
 58 282 58 282 58 262 c 128,-1,56
 58 242 58 242 65.5 231 c 128,-1,57
 73 220 73 220 96 204 c 2,46,-1
195 711 m 1,58,-1
 194 687 l 1,59,60
 164 687 164 687 137.5 677 c 128,-1,61
 111 667 111 667 90 649 c 128,-1,62
 69 631 69 631 54.5 606.5 c 128,-1,63
 40 582 40 582 35 554 c 1,64,65
 58 568 58 568 80 573 c 128,-1,66
 102 578 102 578 120 578 c 0,67,68
 161 578 161 578 186 551 c 128,-1,69
 211 524 211 524 212 485 c 0,70,71
 213 433 213 433 184.5 403 c 128,-1,72
 156 373 156 373 110 373 c 0,73,74
 58 373 58 373 32 409 c 0,75,76
 15 427 15 427 7.5 455.5 c 128,-1,77
 0 484 0 484 0 516 c 0,78,79
 0 566 0 566 16 598.5 c 128,-1,80
 32 631 32 631 63 664 c 0,81,82
 84 684 84 684 121 697.5 c 128,-1,83
 158 711 158 711 195 711 c 1,58,-1
102 399 m 2,84,-1
 112 399 l 2,85,86
 146 400 146 400 165 424.5 c 128,-1,87
 184 449 184 449 183 484 c 0,88,89
 179 516 179 516 168 529 c 128,-1,90
 157 542 157 542 130 550 c 0,91,92
 120 553 120 553 105 551 c 128,-1,93
 90 549 90 549 75.5 545 c 128,-1,94
 61 541 61 541 48.5 535 c 128,-1,95
 36 529 36 529 30 525 c 1,96,-1
 30 518 l 2,97,98
 30 497 30 497 33.5 476 c 128,-1,99
 37 455 37 455 45.5 438 c 128,-1,100
 54 421 54 421 68 410 c 128,-1,101
 82 399 82 399 102 399 c 2,84,-1
EndSplineSet
EndChar
StartChar: Q
Encoding: 81 81 52
Width: 256
GlyphClass: 2
Flags: W
Fore
54 573 m 1,0,-1
 31 573 l 1,1,2
 67 525 67 525 67 493 c 0,3,4
 67 449 67 449 9 397 c 1,5,-1
 96 281 l 1,6,7
 72 293 72 293 52 293 c 128,-1,8
 32 293 32 293 14 282 c 1,9,10
 0 264 0 264 0 246 c 0,11,12
 0 231 0 231 6 218 c 0,13,14
 10 210 10 210 13.5 203.5 c 128,-1,15
 17 197 17 197 23 193 c 1,16,17
 40 168 40 168 77 143 c 1,18,-1
 84 155 l 1,19,20
 76 162 76 162 71.5 170 c 128,-1,21
 67 178 67 178 62 186 c 0,22,23
 55 201 55 201 55 219 c 0,24,25
 57 237 57 237 65 246 c 0,26,27
 72 256 72 256 87 256 c 0,28,29
 101 256 101 256 109.5 252 c 128,-1,30
 118 248 118 248 123.5 245 c 128,-1,31
 129 242 129 242 133 240 c 1,32,-1
 142 252 l 1,33,34
 137 257 137 257 134 261.5 c 128,-1,35
 131 266 131 266 127 271 c 0,36,37
 121 281 121 281 118 284 c 2,38,-1
 100 310 l 2,39,40
 86 337 86 337 86 354 c 0,41,42
 86 375 86 375 99 400 c 0,43,44
 113 425 113 425 145 462 c 1,45,-1
 54 573 l 1,0,-1
EndSplineSet
EndChar
StartChar: R
Encoding: 82 82 53
Width: 768
GlyphClass: 2
Flags: W
Fore
105 126 m 0,0,1
 105 166 105 166 116.5 180.5 c 128,-1,2
 128 195 128 195 152 198 c 0,3,4
 189 198 189 198 213 167 c 0,5,6
 220 159 220 159 225.5 149.5 c 128,-1,7
 231 140 231 140 234 130 c 0,8,9
 238 121 238 121 240 110.5 c 128,-1,10
 242 100 242 100 242 90 c 0,11,12
 242 48 242 48 232 35 c 0,13,14
 221 20 221 20 194 17 c 0,15,16
 158 17 158 17 133 49 c 0,17,18
 126 57 126 57 121.5 66 c 128,-1,19
 117 75 117 75 113 83 c 0,20,21
 108 97 108 97 106.5 104 c 128,-1,22
 105 111 105 111 105 126 c 0,0,1
0 108 m 0,23,24
 0 69 0 69 31 44 c 0,25,26
 60 19 60 19 100 9.5 c 128,-1,27
 140 0 140 0 176 0 c 0,28,29
 194 0 194 0 213 2.5 c 128,-1,30
 232 5 232 5 253 11 c 0,31,32
 294 24 294 24 321 47 c 0,33,34
 348 72 348 72 348 108 c 0,35,36
 348 148 348 148 316 171 c 0,37,38
 286 197 286 197 246 205 c 0,39,40
 212 215 212 215 170 215 c 0,41,42
 153 215 153 215 134 212 c 0,43,44
 124 210 124 210 114.5 208.5 c 128,-1,45
 105 207 105 207 97 205 c 0,46,47
 60 196 60 196 31 171 c 0,48,49
 0 146 0 146 0 108 c 0,23,24
497 147 m 0,50,51
 497 129 497 129 484 115.5 c 128,-1,52
 471 102 471 102 453 102 c 0,53,54
 434 102 434 102 421 115.5 c 128,-1,55
 408 129 408 129 408 147 c 0,56,57
 408 166 408 166 421 178.5 c 128,-1,58
 434 191 434 191 453 191 c 0,59,60
 471 191 471 191 484 178.5 c 128,-1,61
 497 166 497 166 497 147 c 0,50,51
EndSplineSet
EndChar
StartChar: S
Encoding: 83 83 54
Width: 256
GlyphClass: 2
Flags: W
Fore
130 391 m 1,0,1
 97 365 97 365 87 365 c 0,2,3
 78 366 78 366 77 372 c 1,4,-1
 80 380 l 1,5,-1
 83 388 l 1,6,7
 83 408 83 408 73 421 c 1,8,9
 57 436 57 436 44 436 c 0,10,11
 25 436 25 436 12.5 421.5 c 128,-1,12
 0 407 0 407 0 388 c 0,13,14
 0 368 0 368 16 354 c 0,15,16
 35 339 35 339 55 339 c 0,17,18
 81 339 81 339 122 361 c 1,19,-1
 63 154 l 1,20,-1
 85 154 l 1,21,-1
 200 567 l 1,22,-1
 189 567 l 1,23,24
 164 525 164 525 128 514 c 1,25,-1
 121 517 l 1,26,27
 124 528 124 528 124.5 531.5 c 128,-1,28
 125 535 125 535 125 540 c 0,29,30
 125 556 125 556 114 570 c 0,31,32
 100 584 100 584 78 584 c 1,33,34
 60 581 60 581 50 567.5 c 128,-1,35
 40 554 40 554 40 537 c 0,36,37
 40 516 40 516 57 502 c 128,-1,38
 74 488 74 488 96 488 c 2,39,-1
 113 489 l 1,40,-1
 127 494 l 1,41,-1
 162 509 l 1,42,-1
 130 391 l 1,0,1
EndSplineSet
EndChar
StartChar: T
Encoding: 84 84 55
Width: 1024
GlyphClass: 2
Flags: W
Fore
213 715 m 1,0,-1
 195 715 l 1,1,-1
 195 162 l 1,2,3
 172 178 172 178 141 178 c 0,4,5
 127 178 127 178 111.5 174.5 c 128,-1,6
 96 171 96 171 79 163 c 0,7,8
 60 154 60 154 46.5 142 c 128,-1,9
 33 130 33 130 23 117 c 0,10,11
 0 91 0 91 0 59 c 0,12,13
 0 35 0 35 23 15 c 1,14,15
 34 8 34 8 45.5 4 c 128,-1,16
 57 0 57 0 73 0 c 0,17,18
 103 0 103 0 137 15.5 c 128,-1,19
 171 31 171 31 193 58 c 0,20,21
 213 85 213 85 213 116 c 2,22,-1
 213 645 l 1,23,-1
 558 645 l 1,24,-1
 558 162 l 1,25,26
 544 170 544 170 531 174 c 128,-1,27
 518 178 518 178 503 178 c 128,-1,28
 488 178 488 178 472.5 174.5 c 128,-1,29
 457 171 457 171 439 163 c 0,30,31
 423 153 423 153 408.5 141.5 c 128,-1,32
 394 130 394 130 383 117 c 0,33,34
 361 90 361 90 361 59 c 0,35,36
 361 34 361 34 383 15 c 0,37,38
 406 0 406 0 433 0 c 0,39,40
 466 0 466 0 500 15.5 c 128,-1,41
 534 31 534 31 554 58 c 0,42,43
 574 88 574 88 574 116 c 2,44,-1
 574 645 l 1,45,-1
 912 645 l 1,46,-1
 912 162 l 1,47,48
 887 178 887 178 859 178 c 0,49,50
 844 178 844 178 829 174.5 c 128,-1,51
 814 171 814 171 794 163 c 0,52,53
 759 143 759 143 740 117 c 0,54,55
 717 90 717 90 717 59 c 0,56,57
 717 36 717 36 740 15 c 1,58,59
 763 0 763 0 791 0 c 0,60,61
 820 0 820 0 854 15.5 c 128,-1,62
 888 31 888 31 909 58 c 128,-1,63
 930 85 930 85 930 116 c 2,64,-1
 930 648 l 1,65,-1
 930 715 l 1,66,-1
 912 715 l 1,67,-1
 574 715 l 1,68,-1
 213 715 l 1,0,-1
967 737 m 1,69,-1
 967 808 l 1,70,-1
 648 808 l 1,71,-1
 648 829 l 1,72,-1
 985 829 l 1,73,-1
 985 737 l 1,74,-1
 967 737 l 1,69,-1
116 736 m 1,75,-1
 116 808 l 1,76,-1
 478 808 l 1,77,-1
 478 829 l 1,78,-1
 97 829 l 1,79,-1
 97 736 l 1,80,-1
 116 736 l 1,75,-1
547 815 m 1,81,-1
 547 822 l 1,82,83
 558 824 558 824 563.5 826 c 128,-1,84
 569 828 569 828 574 834 c 2,85,86
 580 838 580 838 584 845.5 c 128,-1,87
 588 853 588 853 588 859 c 0,88,89
 588 879 588 879 563 879 c 0,90,91
 552 879 552 879 545.5 873 c 128,-1,92
 539 867 539 867 531 855 c 1,93,-1
 524 855 l 1,94,95
 527 865 527 865 530.5 869.5 c 128,-1,96
 534 874 534 874 539 880 c 0,97,98
 549 890 549 890 566 890 c 0,99,100
 582 890 582 890 592.5 881.5 c 128,-1,101
 603 873 603 873 603 860 c 0,102,103
 603 851 603 851 599 842 c 128,-1,104
 595 833 595 833 584 824 c 1,105,106
 591 821 591 821 593 819.5 c 128,-1,107
 595 818 595 818 598 815 c 0,108,109
 603 810 603 810 605.5 805 c 128,-1,110
 608 800 608 800 608 792 c 0,111,112
 608 768 608 768 591 754 c 0,113,114
 573 741 573 741 548 741 c 128,-1,115
 523 741 523 741 523 753 c 0,116,117
 523 759 523 759 532 759 c 0,118,119
 535 759 535 759 538 758.5 c 128,-1,120
 541 758 541 758 546 755 c 1,121,122
 558 750 558 750 565 753 c 1,123,124
 577 756 577 756 583.5 761 c 128,-1,125
 590 766 590 766 591 779 c 0,126,127
 593 792 593 792 587 801 c 128,-1,128
 581 810 581 810 569 813 c 0,129,130
 559 815 559 815 547 815 c 1,81,-1
EndSplineSet
EndChar
StartChar: U
Encoding: 85 85 56
Width: 768
GlyphClass: 2
Flags: W
Fore
337 -197 m 2,0,1
 272 -197 272 -197 212.5 -175.5 c 128,-1,2
 153 -154 153 -154 91 -106 c 1,3,4
 89 -106 89 -106 80.5 -93 c 128,-1,5
 72 -80 72 -80 59.5 -60.5 c 128,-1,6
 47 -41 47 -41 35 -19 c 128,-1,7
 23 3 23 3 14 20 c 128,-1,8
 5 37 5 37 2 46 c 128,-1,9
 -1 55 -1 55 7 48 c 1,10,11
 23 38 23 38 37.5 21.5 c 128,-1,12
 52 5 52 5 64.5 -12 c 128,-1,13
 77 -29 77 -29 86.5 -42.5 c 128,-1,14
 96 -56 96 -56 101 -60 c 0,15,16
 163 -109 163 -109 229 -126.5 c 128,-1,17
 295 -144 295 -144 358 -144 c 0,18,19
 420 -144 420 -144 481 -124.5 c 128,-1,20
 542 -105 542 -105 601 -62 c 1,21,22
 607 -59 607 -59 617.5 -45 c 128,-1,23
 628 -31 628 -31 640.5 -13.5 c 128,-1,24
 653 4 653 4 668 21.5 c 128,-1,25
 683 39 683 39 697 48 c 0,26,27
 707 53 707 53 704 44 c 128,-1,28
 701 35 701 35 692 17.5 c 128,-1,29
 683 0 683 0 669.5 -21.5 c 128,-1,30
 656 -43 656 -43 644 -62 c 128,-1,31
 632 -81 632 -81 623 -93.5 c 128,-1,32
 614 -106 614 -106 615 -106 c 1,33,34
 554 -154 554 -154 496.5 -175.5 c 128,-1,35
 439 -197 439 -197 375 -197 c 2,36,-1
 337 -197 l 2,0,1
EndSplineSet
EndChar
StartChar: V
Encoding: 86 86 57
Width: 1024
GlyphClass: 2
Flags: W
Fore
473 -189 m 2,0,1
 450 -189 450 -189 410 -185 c 128,-1,2
 370 -181 370 -181 323 -171.5 c 128,-1,3
 276 -162 276 -162 228 -146 c 128,-1,4
 180 -130 180 -130 139 -106 c 1,5,6
 139 -105 139 -105 126.5 -91.5 c 128,-1,7
 114 -78 114 -78 95.5 -57.5 c 128,-1,8
 77 -37 77 -37 56.5 -14.5 c 128,-1,9
 36 8 36 8 21.5 26.5 c 128,-1,10
 7 45 7 45 2 56 c 128,-1,11
 -3 67 -3 67 9 61 c 0,12,13
 18 57 18 57 37 40.5 c 128,-1,14
 56 24 56 24 76.5 4.5 c 128,-1,15
 97 -15 97 -15 115 -32 c 128,-1,16
 133 -49 133 -49 141 -53 c 0,17,18
 228 -103 228 -103 317 -120 c 128,-1,19
 406 -137 406 -137 493 -137 c 256,20,21
 580 -137 580 -137 664.5 -116.5 c 128,-1,22
 749 -96 749 -96 831 -53 c 0,23,24
 839 -50 839 -50 856.5 -33.5 c 128,-1,25
 874 -17 874 -17 894.5 2.5 c 128,-1,26
 915 22 915 22 934.5 39 c 128,-1,27
 954 56 954 56 964 61 c 0,28,29
 975 67 975 67 970 57 c 128,-1,30
 965 47 965 47 950.5 28.5 c 128,-1,31
 936 10 936 10 916 -13.5 c 128,-1,32
 896 -37 896 -37 877.5 -57.5 c 128,-1,33
 859 -78 859 -78 846 -92 c 0,34,35
 835 -105 835 -105 834 -106 c 1,36,37
 788 -123 788 -123 739.5 -138 c 128,-1,38
 691 -153 691 -153 647.5 -164.5 c 128,-1,39
 604 -176 604 -176 567.5 -182.5 c 128,-1,40
 531 -189 531 -189 511 -189 c 2,41,-1
 473 -189 l 2,0,1
646 716 m 1,42,-1
 646 0 l 1,43,-1
 695 0 l 1,44,-1
 695 716 l 1,45,-1
 646 716 l 1,42,-1
EndSplineSet
EndChar
StartChar: W
Encoding: 87 87 58
Width: 512
GlyphClass: 2
Flags: W
Fore
421 383 m 1,0,-1
 317 383 l 1,1,-1
 317 297 l 1,2,-1
 104 297 l 1,3,-1
 104 383 l 1,4,-1
 0 383 l 1,5,-1
 0 424 l 1,6,-1
 421 424 l 1,7,-1
 421 383 l 1,0,-1
EndSplineSet
EndChar
StartChar: X
Encoding: 88 88 59
Width: 256
GlyphClass: 2
Flags: W
Fore
141 0 m 1,0,-1
 216 0 l 1,1,-1
 216 71 l 1,2,-1
 170 71 l 1,3,4
 156 74 156 74 148.5 84 c 128,-1,5
 141 94 141 94 141 108 c 0,6,7
 141 114 141 114 143.5 120 c 128,-1,8
 146 126 146 126 151 131 c 0,9,10
 160 141 160 141 170 144 c 1,11,-1
 216 144 l 1,12,-1
 216 215 l 1,13,-1
 141 215 l 1,14,-1
 141 170 l 1,15,16
 139 159 139 159 130 152 c 0,17,18
 120 144 120 144 106 144 c 2,19,-1
 91 146 l 1,20,-1
 81 153 l 2,21,22
 70 161 70 161 70 171 c 2,23,-1
 70 215 l 1,24,-1
 0 215 l 1,25,-1
 0 144 l 1,26,-1
 49 144 l 1,27,28
 55 143 55 143 62 131 c 1,29,30
 70 121 70 121 70 108 c 0,31,32
 70 91 70 91 63 84 c 1,33,34
 57 74 57 74 45 71 c 1,35,-1
 0 71 l 1,36,-1
 0 0 l 1,37,-1
 70 0 l 1,38,-1
 70 38 l 2,39,40
 70 53 70 53 81 62 c 128,-1,41
 92 71 92 71 106 71 c 0,42,43
 119 71 119 71 130 62.5 c 128,-1,44
 141 54 141 54 141 38 c 2,45,-1
 141 0 l 1,0,-1
EndSplineSet
EndChar
StartChar: Y
Encoding: 89 89 60
Width: 1536
GlyphClass: 2
Flags: W
Fore
196 717 m 1,0,-1
 1465 717 l 1,1,-1
 1465 116 l 2,2,3
 1465 85 1465 85 1445 58 c 0,4,5
 1423 31 1423 31 1389.5 15.5 c 128,-1,6
 1356 0 1356 0 1325 0 c 0,7,8
 1296 0 1296 0 1274 16 c 0,9,10
 1252 33 1252 33 1252 60 c 0,11,12
 1252 90 1252 90 1274 118 c 0,13,14
 1295 144 1295 144 1330 164 c 0,15,16
 1348 172 1348 172 1363.5 175.5 c 128,-1,17
 1379 179 1379 179 1394 179 c 0,18,19
 1421 179 1421 179 1448 162 c 1,20,-1
 1448 647 l 1,21,-1
 1049 647 l 1,22,-1
 1049 116 l 2,23,24
 1049 85 1049 85 1028 58 c 128,-1,25
 1007 31 1007 31 973 15.5 c 128,-1,26
 939 0 939 0 908 0 c 0,27,28
 880 0 880 0 857 16 c 0,29,30
 836 33 836 33 836 60 c 0,31,32
 836 90 836 90 857 118 c 0,33,34
 879 143 879 143 912 164 c 1,35,36
 931 172 931 172 947 175.5 c 128,-1,37
 963 179 963 179 977 179 c 0,38,39
 1005 179 1005 179 1031 162 c 1,40,-1
 1031 647 l 1,41,-1
 631 647 l 1,42,-1
 631 116 l 2,43,44
 631 88 631 88 610 58 c 0,45,46
 589 31 589 31 555 15.5 c 128,-1,47
 521 0 521 0 489 0 c 0,48,49
 462 0 462 0 439.5 16.5 c 128,-1,50
 417 33 417 33 417 60 c 0,51,52
 417 92 417 92 439 118 c 0,53,54
 459 143 459 143 495 164 c 0,55,56
 513 172 513 172 528.5 175.5 c 128,-1,57
 544 179 544 179 558 179 c 0,58,59
 587 179 587 179 613 162 c 1,60,-1
 613 647 l 1,61,-1
 213 647 l 1,62,-1
 213 115 l 2,63,64
 213 87 213 87 194 58 c 0,65,66
 172 31 172 31 138 15.5 c 128,-1,67
 104 0 104 0 73 0 c 0,68,69
 44 0 44 0 22 16 c 0,70,71
 0 33 0 33 0 60 c 0,72,73
 0 90 0 90 22 118 c 0,74,75
 32 129 32 129 46 141 c 128,-1,76
 60 153 60 153 78 164 c 0,77,78
 96 172 96 172 111.5 175.5 c 128,-1,79
 127 179 127 179 141 179 c 0,80,81
 172 179 172 179 196 162 c 1,82,-1
 196 717 l 1,0,-1
EndSplineSet
EndChar
StartChar: Z
Encoding: 90 90 61
Width: 512
GlyphClass: 2
Flags: W
Fore
132 121 m 0,0,1
 132 157 132 157 144 171 c 0,2,3
 154 184 154 184 177 187 c 0,4,5
 213 187 213 187 236 159 c 0,6,7
 250 142 250 142 256 123.5 c 128,-1,8
 262 105 262 105 262 85 c 0,9,10
 262 47 262 47 254 33 c 1,11,12
 243 22 243 22 217 16 c 1,13,14
 185 16 185 16 159 46 c 0,15,16
 145 62 145 62 140 79 c 0,17,18
 134 93 134 93 133 99 c 128,-1,19
 132 105 132 105 132 121 c 0,0,1
32 102 m 0,20,21
 32 84 32 84 40 68.5 c 128,-1,22
 48 53 48 53 61 42 c 0,23,24
 90 17 90 17 128 8.5 c 128,-1,25
 166 0 166 0 201 0 c 0,26,27
 218 0 218 0 236 2.5 c 128,-1,28
 254 5 254 5 272 9 c 0,29,30
 293 16 293 16 309 24.5 c 128,-1,31
 325 33 325 33 339 45 c 0,32,33
 352 57 352 57 357 71 c 128,-1,34
 362 85 362 85 362 102 c 0,35,36
 362 142 362 142 334 164 c 0,37,38
 305 186 305 186 267 195 c 0,39,40
 247 200 247 200 229 202 c 128,-1,41
 211 204 211 204 194 204 c 2,42,-1
 177 204 l 1,43,-1
 169 204 l 2,44,45
 161 204 161 204 160 203 c 1,46,47
 151 201 151 201 142.5 199 c 128,-1,48
 134 197 134 197 126 195 c 0,49,50
 90 186 90 186 61 164 c 0,51,52
 48 152 48 152 40 136.5 c 128,-1,53
 32 121 32 121 32 102 c 0,20,21
397 722 m 1,54,55
 392 759 392 759 377 792 c 128,-1,56
 362 825 362 825 337 851 c 0,57,58
 324 863 324 863 309 873.5 c 128,-1,59
 294 884 294 884 275 891 c 0,60,61
 242 906 242 906 198 906 c 0,62,63
 158 906 158 906 121 891 c 0,64,65
 85 877 85 877 60 849 c 0,66,67
 47 836 47 836 37 822 c 128,-1,68
 27 808 27 808 18 791 c 0,69,70
 4 760 4 760 0 722 c 1,71,-1
 20 722 l 1,72,73
 20 736 20 736 21.5 740 c 128,-1,74
 23 744 23 744 26 751 c 0,75,76
 30 765 30 765 37 774 c 0,77,78
 62 810 62 810 106.5 831.5 c 128,-1,79
 151 853 151 853 198 853 c 0,80,81
 221 853 221 853 240 849 c 128,-1,82
 259 845 259 845 281 837 c 0,83,84
 301 827 301 827 317.5 815.5 c 128,-1,85
 334 804 334 804 348 788 c 0,86,87
 376 758 376 758 376 722 c 1,88,-1
 397 722 l 1,54,55
231 756 m 0,89,90
 231 762 231 762 220 776 c 1,91,92
 215 778 215 778 209 780 c 128,-1,93
 203 782 203 782 198 782 c 0,94,95
 188 782 188 782 181 778 c 1,96,97
 178 778 178 778 176 777.5 c 128,-1,98
 174 777 174 777 172 776 c 1,99,100
 167 771 167 771 165.5 765.5 c 128,-1,101
 164 760 164 760 164 756 c 0,102,103
 164 740 164 740 172 732 c 1,104,105
 178 728 178 728 183.5 725 c 128,-1,106
 189 722 189 722 198 722 c 0,107,108
 204 722 204 722 209.5 725 c 128,-1,109
 215 728 215 728 220 732 c 0,110,111
 231 740 231 740 231 756 c 0,89,90
EndSplineSet
EndChar
StartChar: bracketleft
Encoding: 91 91 62
Width: 256
GlyphClass: 2
Flags: W
Fore
103 0 m 1,0,-1
 103 15 l 1,1,-1
 103 717 l 1,2,-1
 0 717 l 1,3,-1
 0 701 l 1,4,-1
 0 0 l 1,5,-1
 103 0 l 1,0,-1
197 0 m 1,6,-1
 197 15 l 1,7,-1
 197 717 l 1,8,-1
 154 717 l 1,9,-1
 154 701 l 1,10,-1
 154 0 l 1,11,-1
 197 0 l 1,6,-1
EndSplineSet
EndChar
StartChar: backslash
Encoding: 92 92 63
Width: 256
GlyphClass: 2
Flags: W
Fore
0 717 m 1,0,-1
 0 701 l 1,1,-1
 0 0 l 1,2,-1
 51 0 l 1,3,-1
 51 15 l 1,4,-1
 51 717 l 1,5,-1
 0 717 l 1,0,-1
EndSplineSet
EndChar
StartChar: bracketright
Encoding: 93 93 64
Width: 256
GlyphClass: 2
Flags: W
Fore
54 717 m 1,0,-1
 54 701 l 1,1,-1
 54 0 l 1,2,-1
 97 0 l 1,3,-1
 97 15 l 1,4,-1
 97 717 l 1,5,-1
 54 717 l 1,0,-1
153 717 m 1,6,-1
 153 701 l 1,7,-1
 153 0 l 1,8,-1
 256 0 l 1,9,-1
 256 15 l 1,10,-1
 256 717 l 1,11,-1
 153 717 l 1,6,-1
EndSplineSet
EndChar
StartChar: asciicircum
Encoding: 94 94 65
Width: 256
GlyphClass: 2
Flags: W
Fore
224 112 m 1,0,-1
 224 80 l 1,1,-1
 175 80 l 1,2,-1
 175 0 l 1,3,-1
 136 0 l 1,4,-1
 136 80 l 1,5,-1
 0 80 l 1,6,-1
 0 112 l 1,7,-1
 153 329 l 1,8,-1
 175 329 l 1,9,-1
 175 112 l 1,10,-1
 224 112 l 1,0,-1
136 112 m 1,11,-1
 136 262 l 1,12,-1
 29 112 l 1,13,-1
 136 112 l 1,11,-1
201 712 m 1,14,-1
 200 688 l 1,15,16
 170 688 170 688 143.5 678 c 128,-1,17
 117 668 117 668 96 650 c 128,-1,18
 75 632 75 632 60.5 607.5 c 128,-1,19
 46 583 46 583 41 555 c 1,20,21
 65 569 65 569 87 574 c 128,-1,22
 109 579 109 579 126 579 c 0,23,24
 167 579 167 579 192 552 c 128,-1,25
 217 525 217 525 218 486 c 0,26,27
 219 434 219 434 190.5 404 c 128,-1,28
 162 374 162 374 116 374 c 0,29,30
 65 374 65 374 38 410 c 0,31,32
 22 428 22 428 14 456.5 c 128,-1,33
 6 485 6 485 6 517 c 0,34,35
 6 567 6 567 22 599.5 c 128,-1,36
 38 632 38 632 70 665 c 0,37,38
 90 685 90 685 127 698.5 c 128,-1,39
 164 712 164 712 201 712 c 1,14,-1
109 400 m 2,40,-1
 118 400 l 2,41,42
 153 401 153 401 171.5 425.5 c 128,-1,43
 190 450 190 450 189 485 c 0,44,45
 185 517 185 517 174 530 c 128,-1,46
 163 543 163 543 136 551 c 0,47,48
 126 554 126 554 111 552 c 128,-1,49
 96 550 96 550 82 546 c 128,-1,50
 68 542 68 542 55 536 c 128,-1,51
 42 530 42 530 36 526 c 1,52,-1
 36 519 l 2,53,54
 36 498 36 498 39.5 477 c 128,-1,55
 43 456 43 456 51.5 439 c 128,-1,56
 60 422 60 422 74 411 c 128,-1,57
 88 400 88 400 109 400 c 2,40,-1
EndSplineSet
EndChar
StartChar: underscore
Encoding: 95 95 66
Width: 512
GlyphClass: 2
Flags: W
Fore
0 -46 m 1,0,-1
 512 -46 l 1,1,-1
 512 -99 l 1,2,-1
 0 -99 l 1,3,-1
 0 -46 l 1,0,-1
EndSplineSet
EndChar
StartChar: grave
Encoding: 96 96 67
Width: 256
GlyphClass: 2
Flags: W
Fore
116 611 m 1,0,1
 129 601 129 601 129 580 c 0,2,3
 129 567 129 567 125.5 562 c 128,-1,4
 122 557 122 557 114 547 c 0,5,6
 106 536 106 536 97.5 529 c 128,-1,7
 89 522 89 522 77 517 c 1,8,-1
 77 492 l 1,9,10
 101 500 101 500 120.5 511 c 128,-1,11
 140 522 140 522 155 543 c 0,12,13
 168 562 168 562 174.5 584.5 c 128,-1,14
 181 607 181 607 181 630 c 0,15,16
 181 660 181 660 162.5 683.5 c 128,-1,17
 144 707 144 707 114 707 c 128,-1,18
 84 707 84 707 69 691 c 1,19,20
 52 678 52 678 52 656 c 0,21,22
 50 635 50 635 64.5 620 c 128,-1,23
 79 605 79 605 102 609 c 1,24,25
 114 609 114 609 116 611 c 1,0,1
EndSplineSet
EndChar
StartChar: a
Encoding: 97 97 68
Width: 256
GlyphClass: 2
Flags: W
Fore
121 0 m 1,0,-1
 161 0 l 1,1,-1
 161 128 l 2,2,3
 161 143 161 143 157 158 c 128,-1,4
 153 173 153 173 143.5 185.5 c 128,-1,5
 134 198 134 198 118.5 205 c 128,-1,6
 103 212 103 212 81 212 c 2,7,-1
 26 212 l 1,8,-1
 26 175 l 1,9,-1
 77 175 l 2,10,11
 108 175 108 175 114.5 163 c 128,-1,12
 121 151 121 151 121 137 c 1,13,-1
 89 137 l 2,14,15
 78 137 78 137 62.5 133.5 c 128,-1,16
 47 130 47 130 33 121.5 c 128,-1,17
 19 113 19 113 9.5 97.5 c 128,-1,18
 0 82 0 82 0 58 c 0,19,20
 0 36 0 36 15.5 18 c 128,-1,21
 31 0 31 0 61 0 c 0,22,23
 83 0 83 0 98 11.5 c 128,-1,24
 113 23 113 23 121 34 c 1,25,-1
 121 0 l 1,0,-1
88 102 m 2,26,-1
 121 102 l 1,27,-1
 121 80 l 1,28,-1
 121 69 l 2,29,30
 121 66 121 66 117 60 c 128,-1,31
 113 54 113 54 105.5 48 c 128,-1,32
 98 42 98 42 89 38 c 128,-1,33
 80 34 80 34 71 34 c 0,34,35
 56 34 56 34 47 39 c 128,-1,36
 38 44 38 44 38 62 c 0,37,38
 38 79 38 79 52 90.5 c 128,-1,39
 66 102 66 102 88 102 c 2,26,-1
EndSplineSet
EndChar
StartChar: b
Encoding: 98 98 69
Width: 256
GlyphClass: 2
Flags: W
Fore
0 0 m 1,0,1
 9 9 9 9 20.5 19.5 c 128,-1,2
 32 30 32 30 46 39 c 2,3,-1
 99 78 l 2,4,5
 115 89 115 89 126 98.5 c 128,-1,6
 137 108 137 108 143 117 c 2,7,8
 159 132 159 132 159 150 c 0,9,10
 159 174 159 174 138.5 188.5 c 128,-1,11
 118 203 118 203 92 203 c 0,12,13
 54 203 54 203 23 180 c 1,14,-1
 23 430 l 1,15,-1
 0 430 l 1,16,-1
 0 0 l 1,0,1
23 150 m 1,17,18
 38 180 38 180 67 180 c 0,19,20
 75 180 75 180 80 177.5 c 128,-1,21
 85 175 85 175 89 172 c 1,22,23
 93 167 93 167 96 161.5 c 128,-1,24
 99 156 99 156 99 147 c 0,25,26
 99 124 99 124 79 100 c 0,27,28
 75 94 75 94 68 88 c 128,-1,29
 61 82 61 82 53 74 c 2,30,-1
 23 43 l 1,31,-1
 23 150 l 1,17,18
EndSplineSet
EndChar
StartChar: c
Encoding: 99 99 70
Width: 512
GlyphClass: 2
Flags: W
Fore
0 370 m 0,0,1
 0 346 0 346 6 318.5 c 128,-1,2
 12 291 12 291 22 267 c 0,3,4
 42 216 42 216 83 185 c 0,5,6
 122 153 122 153 176 153 c 0,7,8
 246 153 246 153 291 199 c 0,9,10
 311 222 311 222 323.5 251 c 128,-1,11
 336 280 336 280 339 315 c 1,12,-1
 315 315 l 1,13,14
 309 278 309 278 292 243 c 0,15,16
 256 181 256 181 201 181 c 0,17,18
 129 181 129 181 111 257 c 1,19,20
 103 274 103 274 103 368 c 0,21,22
 103 453 103 453 124 492 c 0,23,24
 131 502 131 502 139 510 c 0,25,26
 151 521 151 521 160 525 c 2,27,28
 180 540 180 540 205 540 c 0,29,30
 229 540 229 540 249 529 c 1,31,32
 273 521 273 521 278 505 c 1,33,-1
 274 499 l 1,34,-1
 266 496 l 1,35,-1
 258 495 l 2,36,37
 234 489 234 489 219 470 c 0,38,39
 203 454 203 454 203 428 c 1,40,41
 213 372 213 372 264 372 c 0,42,43
 292 372 292 372 315 392 c 0,44,45
 335 415 335 415 335 444 c 0,46,47
 335 479 335 479 311 506 c 0,48,49
 300 520 300 520 285.5 530 c 128,-1,50
 271 540 271 540 255 548 c 0,51,52
 247 551 247 551 242 553 c 128,-1,53
 237 555 237 555 222 560 c 0,54,55
 215 562 215 562 210.5 562.5 c 128,-1,56
 206 563 206 563 204 564 c 1,57,-1
 185 564 l 2,58,59
 138 564 138 564 94 536 c 0,60,61
 49 505 49 505 27 462 c 0,62,63
 0 417 0 417 0 370 c 0,0,1
EndSplineSet
EndChar
StartChar: d
Encoding: 100 100 71
Width: 512
GlyphClass: 2
Flags: W
Fore
193 175 m 1,0,1
 169 190 169 190 141 190 c 0,2,3
 109 190 109 190 76 175 c 128,-1,4
 43 160 43 160 22 135 c 0,5,6
 0 109 0 109 0 79 c 0,7,8
 0 71 0 71 0.5 63.5 c 128,-1,9
 1 56 1 56 2 51 c 2,10,-1
 8 31 l 2,11,12
 15 12 15 12 34 6 c 0,13,14
 49 0 49 0 77 0 c 0,15,16
 102 0 102 0 135 17 c 0,17,18
 165 33 165 33 187 58 c 0,19,20
 193 67 193 67 197.5 73.5 c 128,-1,21
 202 80 202 80 204 86 c 0,22,23
 208 96 208 96 209 98 c 128,-1,24
 210 100 210 100 210 113 c 2,25,-1
 210 717 l 1,26,-1
 193 717 l 1,27,-1
 193 175 l 1,0,1
66 111 m 0,28,29
 134 163 134 163 173 163 c 1,30,31
 188 158 188 158 188 145 c 0,32,33
 188 130 188 130 165 103 c 0,34,35
 154 90 154 90 144.5 81.5 c 128,-1,36
 135 73 135 73 127 69 c 2,37,38
 99 46 99 46 77 39 c 2,39,40
 57 29 57 29 38 29 c 1,41,42
 22 35 22 35 18 47 c 1,43,44
 18 58 18 58 37 82 c 0,45,46
 55 103 55 103 66 111 c 0,28,29
328 128 m 256,47,48
 328 113 328 113 317 101.5 c 128,-1,49
 306 90 306 90 291 90 c 0,50,51
 275 90 275 90 264 101.5 c 128,-1,52
 253 113 253 113 253 128 c 256,53,54
 253 143 253 143 264 154 c 128,-1,55
 275 165 275 165 291 165 c 0,56,57
 306 165 306 165 317 154 c 128,-1,58
 328 143 328 143 328 128 c 256,47,48
EndSplineSet
EndChar
StartChar: e
Encoding: 101 101 72
Width: 512
GlyphClass: 2
Flags: W
Fore
196 717 m 1,0,-1
 196 529 l 1,1,-1
 196 163 l 1,2,3
 179 179 179 179 135 179 c 0,4,5
 108 179 108 179 74 164 c 0,6,7
 56 156 56 156 43.5 144.5 c 128,-1,8
 31 133 31 133 20 121 c 0,9,10
 9 108 9 108 4.5 93 c 128,-1,11
 0 78 0 78 0 62 c 0,12,13
 0 32 0 32 22 16 c 0,14,15
 41 0 41 0 73 0 c 0,16,17
 108 0 108 0 139 16 c 0,18,19
 177 34 177 34 190 56 c 0,20,21
 213 85 213 85 213 117 c 2,22,-1
 213 523 l 1,23,24
 225 523 225 523 241 518 c 128,-1,25
 257 513 257 513 271 505 c 0,26,27
 298 492 298 492 321 463 c 0,28,29
 345 437 345 437 355 406 c 0,30,31
 364 382 364 382 364 381 c 0,32,33
 365 377 365 377 365.5 373 c 128,-1,34
 366 369 366 369 368 365 c 1,35,-1
 368 344 l 1,36,-1
 367 332 l 1,37,-1
 364 304 l 1,38,39
 361 293 361 293 358 283.5 c 128,-1,40
 355 274 355 274 352 265 c 2,41,-1
 335 220 l 1,42,-1
 350 221 l 1,43,44
 358 236 358 236 363 247.5 c 128,-1,45
 368 259 368 259 375 276 c 0,46,47
 384 299 384 299 387 320 c 128,-1,48
 390 341 390 341 390 358 c 0,49,50
 390 431 390 431 339 498 c 2,51,-1
 294 550 l 1,52,-1
 269 580 l 1,53,-1
 252 601 l 2,54,55
 237 623 237 623 229 648 c 0,56,57
 224 663 224 663 219.5 679.5 c 128,-1,58
 215 696 215 696 213 717 c 1,59,-1
 196 717 l 1,0,-1
EndSplineSet
EndChar
StartChar: f
Encoding: 102 102 73
Width: 512
GlyphClass: 2
Flags: W
Fore
276 717 m 1,0,-1
 255 716 l 1,1,-1
 255 160 l 1,2,3
 244 168 244 168 230.5 173.5 c 128,-1,4
 217 179 217 179 202 179 c 0,5,6
 178 179 178 179 137 165 c 1,7,8
 95 136 95 136 83 118 c 0,9,10
 61 91 61 91 61 61 c 0,11,12
 61 32 61 32 83 16 c 0,13,14
 102 0 102 0 132 0 c 0,15,16
 165 0 165 0 198 15.5 c 128,-1,17
 231 31 231 31 254 59 c 0,18,19
 264 74 264 74 270 87.5 c 128,-1,20
 276 101 276 101 276 115 c 2,21,-1
 276 717 l 1,0,-1
334 725 m 1,22,23
 326 798 326 798 284 852 c 0,24,25
 265 877 265 877 232 891 c 0,26,27
 218 898 218 898 201 902 c 128,-1,28
 184 906 184 906 166 906 c 0,29,30
 150 906 150 906 134 902 c 128,-1,31
 118 898 118 898 103 891 c 0,32,33
 74 878 74 878 50 851 c 0,34,35
 40 838 40 838 31.5 823.5 c 128,-1,36
 23 809 23 809 15 793 c 0,37,38
 3 762 3 762 0 725 c 1,39,-1
 16 725 l 1,40,41
 16 738 16 738 17 739 c 1,42,43
 17 742 17 742 18 745.5 c 128,-1,44
 19 749 19 749 20 752 c 0,45,46
 23 759 23 759 25.5 764.5 c 128,-1,47
 28 770 28 770 30 775 c 1,48,49
 52 811 52 811 89.5 832 c 128,-1,50
 127 853 127 853 166 853 c 0,51,52
 184 853 184 853 203 850 c 0,53,54
 210 848 210 848 218.5 845 c 128,-1,55
 227 842 227 842 236 835 c 2,56,57
 254 827 254 827 268.5 816 c 128,-1,58
 283 805 283 805 294 790 c 0,59,60
 315 760 315 760 315 725 c 1,61,-1
 334 725 l 1,22,23
195 752 m 0,62,63
 195 758 195 758 186 769 c 1,64,65
 178 775 178 775 166 775 c 0,66,67
 164 775 164 775 160.5 774 c 128,-1,68
 157 773 157 773 152 773 c 1,69,70
 145 771 145 771 145 769 c 1,71,72
 138 762 138 762 138 752 c 0,73,74
 138 738 138 738 145 732 c 1,75,76
 156 725 156 725 166 725 c 0,77,78
 179 725 179 725 186 732 c 0,79,80
 195 740 195 740 195 752 c 0,62,63
EndSplineSet
EndChar
StartChar: g
Encoding: 103 103 74
Width: 512
GlyphClass: 2
Flags: W
Fore
145 322 m 1,0,1
 150 301 150 301 153.5 280.5 c 128,-1,2
 157 260 157 260 161 240 c 0,3,4
 163 227 163 227 165.5 215.5 c 128,-1,5
 168 204 168 204 170 193 c 1,6,7
 170 194 170 194 170.5 191 c 128,-1,8
 171 188 171 188 172 183 c 0,9,10
 172 181 172 181 167 180 c 128,-1,11
 162 179 162 179 156 178 c 128,-1,12
 150 177 150 177 144 176.5 c 128,-1,13
 138 176 138 176 137 176 c 0,14,15
 117 176 117 176 97.5 184.5 c 128,-1,16
 78 193 78 193 63 206.5 c 128,-1,17
 48 220 48 220 39 239 c 128,-1,18
 30 258 30 258 30 280 c 128,-1,19
 30 302 30 302 38 323.5 c 128,-1,20
 46 345 46 345 59.5 364 c 128,-1,21
 73 383 73 383 89 399.5 c 128,-1,22
 105 416 105 416 122 430 c 1,23,-1
 128 398 l 2,24,25
 131 382 131 382 135 368 c 0,26,27
 135 367 135 367 126 362 c 128,-1,28
 117 357 117 357 115 355 c 0,29,30
 102 346 102 346 93 334 c 0,31,32
 76 307 76 307 79 278 c 0,33,34
 80 248 80 248 104 227 c 1,35,36
 123 215 123 215 133 213 c 1,37,38
 138 213 138 213 137 216.5 c 128,-1,39
 136 220 136 220 131 220 c 1,40,41
 114 229 114 229 107 244 c 128,-1,42
 100 259 100 259 103 274 c 128,-1,43
 106 289 106 289 117 302 c 128,-1,44
 128 315 128 315 145 322 c 1,0,1
157 323 m 1,45,46
 183 323 183 323 200 305 c 128,-1,47
 217 287 217 287 221.5 264 c 128,-1,48
 226 241 226 241 217.5 219 c 128,-1,49
 209 197 209 197 184 187 c 1,50,-1
 157 323 l 1,45,46
121 506 m 1,51,52
 109 535 109 535 114 571.5 c 128,-1,53
 119 608 119 608 135 635 c 0,54,55
 138 639 138 639 144 644 c 128,-1,56
 150 649 150 649 156 652 c 128,-1,57
 162 655 162 655 168.5 654 c 128,-1,58
 175 653 175 653 180 644 c 0,59,60
 185 633 185 633 184 619.5 c 128,-1,61
 183 606 183 606 179 595 c 0,62,63
 173 572 173 572 157 545 c 128,-1,64
 141 518 141 518 121 506 c 1,51,52
111 496 m 1,65,66
 80 468 80 468 54.5 436 c 128,-1,67
 29 404 29 404 11 367 c 0,68,69
 0 338 0 338 2 306.5 c 128,-1,70
 4 275 4 275 17 247.5 c 128,-1,71
 30 220 30 220 53.5 198.5 c 128,-1,72
 77 177 77 177 108 169 c 0,73,74
 130 161 130 161 157 166 c 0,75,76
 160 167 160 167 166.5 168.5 c 128,-1,77
 173 170 173 170 174 166 c 0,78,79
 177 155 177 155 182 140 c 128,-1,80
 187 125 187 125 187 114 c 1,81,82
 193 99 193 99 191.5 76 c 128,-1,83
 190 53 190 53 182 40 c 0,84,85
 176 32 176 32 164.5 24.5 c 128,-1,86
 153 17 153 17 140 14 c 128,-1,87
 127 11 127 11 115 14 c 128,-1,88
 103 17 103 17 96 30 c 1,89,90
 121 29 121 29 129.5 44.5 c 128,-1,91
 138 60 138 60 134.5 77 c 128,-1,92
 131 94 131 94 116.5 105 c 128,-1,93
 102 116 102 116 83 105 c 0,94,95
 72 100 72 100 64 86.5 c 128,-1,96
 56 73 56 73 56 60 c 0,97,98
 56 40 56 40 69 26 c 128,-1,99
 82 12 82 12 99 5 c 1,100,101
 120 0 120 0 139.5 2.5 c 128,-1,102
 159 5 159 5 173.5 15 c 128,-1,103
 188 25 188 25 196.5 41 c 128,-1,104
 205 57 205 57 204 80 c 0,105,106
 202 97 202 97 199.5 113.5 c 128,-1,107
 197 130 197 130 193 146 c 0,108,109
 191 153 191 153 190 158.5 c 128,-1,110
 189 164 189 164 188 170 c 1,111,112
 186 175 186 175 192.5 177.5 c 128,-1,113
 199 180 199 180 203 182 c 0,114,115
 233 200 233 200 248 237 c 0,116,117
 254 255 254 255 253 274.5 c 128,-1,118
 252 294 252 294 245 311.5 c 128,-1,119
 238 329 238 329 225 343 c 128,-1,120
 212 357 212 357 195 366 c 0,121,122
 194 367 194 367 186.5 368.5 c 128,-1,123
 179 370 179 370 170.5 371 c 128,-1,124
 162 372 162 372 154.5 372.5 c 128,-1,125
 147 373 147 373 147 372 c 1,126,127
 142 389 142 389 139.5 405.5 c 128,-1,128
 137 422 137 422 133 440 c 0,129,130
 133 441 133 441 136 444 c 128,-1,131
 139 447 139 447 143 451.5 c 128,-1,132
 147 456 147 456 151 459.5 c 128,-1,133
 155 463 155 463 156 464 c 0,134,135
 161 470 161 470 166 478 c 128,-1,136
 171 486 171 486 177 497 c 0,137,138
 191 523 191 523 196 552.5 c 128,-1,139
 201 582 201 582 199 611 c 0,140,141
 198 631 198 631 193.5 650.5 c 128,-1,142
 189 670 189 670 180 687 c 0,143,144
 179 688 179 688 176.5 693.5 c 128,-1,145
 174 699 174 699 170 705 c 128,-1,146
 166 711 166 711 162 714.5 c 128,-1,147
 158 718 158 718 154 716 c 0,148,149
 136 709 136 709 125 693.5 c 128,-1,150
 114 678 114 678 107.5 659 c 128,-1,151
 101 640 101 640 98.5 620 c 128,-1,152
 96 600 96 600 96 584 c 0,153,154
 96 560 96 560 100.5 539 c 128,-1,155
 105 518 105 518 111 496 c 1,65,66
EndSplineSet
EndChar
StartChar: h
Encoding: 104 104 75
Width: 512
GlyphClass: 2
Flags: W
Fore
193 175 m 1,0,1
 169 190 169 190 141 190 c 0,2,3
 109 190 109 190 76 175 c 128,-1,4
 43 160 43 160 22 135 c 0,5,6
 0 109 0 109 0 79 c 0,7,8
 0 71 0 71 0.5 63.5 c 128,-1,9
 1 56 1 56 2 51 c 2,10,-1
 8 31 l 2,11,12
 15 12 15 12 34 6 c 0,13,14
 49 0 49 0 77 0 c 0,15,16
 102 0 102 0 135 17 c 0,17,18
 165 33 165 33 187 58 c 0,19,20
 193 67 193 67 197.5 73.5 c 128,-1,21
 202 80 202 80 204 86 c 0,22,23
 208 96 208 96 209 98 c 128,-1,24
 210 100 210 100 210 113 c 2,25,-1
 210 717 l 1,26,-1
 193 717 l 1,27,-1
 193 175 l 1,0,1
66 111 m 0,28,29
 134 163 134 163 173 163 c 1,30,31
 188 158 188 158 188 145 c 0,32,33
 188 130 188 130 165 103 c 0,34,35
 154 90 154 90 144.5 81.5 c 128,-1,36
 135 73 135 73 127 69 c 2,37,38
 99 46 99 46 77 39 c 2,39,40
 57 29 57 29 38 29 c 1,41,42
 22 35 22 35 18 47 c 1,43,44
 18 58 18 58 37 82 c 0,45,46
 55 103 55 103 66 111 c 0,28,29
EndSplineSet
EndChar
StartChar: i
Encoding: 105 105 76
Width: 512
GlyphClass: 2
Flags: W
Fore
196 717 m 1,0,-1
 196 529 l 1,1,-1
 196 163 l 1,2,3
 179 179 179 179 135 179 c 0,4,5
 108 179 108 179 74 164 c 0,6,7
 56 156 56 156 43.5 144.5 c 128,-1,8
 31 133 31 133 20 121 c 0,9,10
 9 108 9 108 4.5 93 c 128,-1,11
 0 78 0 78 0 62 c 0,12,13
 0 32 0 32 22 16 c 0,14,15
 41 0 41 0 73 0 c 0,16,17
 108 0 108 0 139 16 c 0,18,19
 177 34 177 34 190 56 c 0,20,21
 213 85 213 85 213 117 c 2,22,-1
 213 523 l 1,23,24
 225 523 225 523 241 518 c 128,-1,25
 257 513 257 513 271 505 c 0,26,27
 298 492 298 492 321 463 c 0,28,29
 345 437 345 437 355 406 c 0,30,31
 364 382 364 382 364 381 c 0,32,33
 365 377 365 377 365.5 373 c 128,-1,34
 366 369 366 369 368 365 c 1,35,-1
 368 344 l 1,36,-1
 367 332 l 1,37,-1
 364 304 l 1,38,39
 361 293 361 293 358 283.5 c 128,-1,40
 355 274 355 274 352 265 c 2,41,-1
 335 220 l 1,42,-1
 350 221 l 1,43,44
 358 236 358 236 363 247.5 c 128,-1,45
 368 259 368 259 375 276 c 0,46,47
 384 299 384 299 387 320 c 128,-1,48
 390 341 390 341 390 358 c 0,49,50
 390 431 390 431 339 498 c 2,51,-1
 294 550 l 1,52,-1
 269 580 l 1,53,-1
 252 601 l 2,54,55
 237 623 237 623 229 648 c 0,56,57
 224 663 224 663 219.5 679.5 c 128,-1,58
 215 696 215 696 213 717 c 1,59,-1
 196 717 l 1,0,-1
337 119 m 0,60,61
 337 103 337 103 325.5 92 c 128,-1,62
 314 81 314 81 299 81 c 256,63,64
 284 81 284 81 272.5 92 c 128,-1,65
 261 103 261 103 261 119 c 0,66,67
 261 134 261 134 272.5 145 c 128,-1,68
 284 156 284 156 299 156 c 256,69,70
 314 156 314 156 325.5 145 c 128,-1,71
 337 134 337 134 337 119 c 0,60,61
EndSplineSet
EndChar
StartChar: j
Encoding: 106 106 77
Width: 512
GlyphClass: 2
Flags: W
Fore
214 717 m 1,0,-1
 196 717 l 1,1,-1
 196 162 l 1,2,3
 172 179 172 179 141 179 c 0,4,5
 127 179 127 179 111.5 175.5 c 128,-1,6
 96 172 96 172 78 164 c 0,7,8
 60 153 60 153 46 141 c 128,-1,9
 32 129 32 129 22 118 c 0,10,11
 0 90 0 90 0 60 c 0,12,13
 0 33 0 33 22 16 c 0,14,15
 44 0 44 0 73 0 c 0,16,17
 104 0 104 0 138 15.5 c 128,-1,18
 172 31 172 31 194 58 c 0,19,20
 214 88 214 88 214 116 c 2,21,-1
 214 717 l 1,0,-1
342 108 m 0,22,23
 342 92 342 92 330.5 81 c 128,-1,24
 319 70 319 70 304 70 c 256,25,26
 289 70 289 70 277.5 81 c 128,-1,27
 266 92 266 92 266 108 c 0,28,29
 266 123 266 123 277.5 134 c 128,-1,30
 289 145 289 145 304 145 c 256,31,32
 319 145 319 145 330.5 134 c 128,-1,33
 342 123 342 123 342 108 c 0,22,23
EndSplineSet
EndChar
StartChar: k
Encoding: 107 107 78
Width: 256
GlyphClass: 2
Flags: W
Fore
210 422 m 1,0,-1
 210 385 l 1,1,-1
 0 385 l 1,2,-1
 0 390 l 1,3,-1
 63 470 l 2,4,5
 78 488 78 488 93.5 506.5 c 128,-1,6
 109 525 109 525 121.5 542.5 c 128,-1,7
 134 560 134 560 142.5 577 c 128,-1,8
 151 594 151 594 151 609 c 0,9,10
 151 641 151 641 132 660 c 128,-1,11
 113 679 113 679 81 679 c 0,12,13
 56 679 56 679 44.5 666.5 c 128,-1,14
 33 654 33 654 18 617 c 1,15,-1
 0 617 l 1,16,17
 6 644 6 644 13 657.5 c 128,-1,18
 20 671 20 671 32 684 c 0,19,20
 60 715 60 715 101 715 c 0,21,22
 140 715 140 715 166.5 690 c 128,-1,23
 193 665 193 665 193 629 c 0,24,25
 193 599 193 599 177.5 571 c 128,-1,26
 162 543 162 543 129 507 c 2,27,-1
 54 422 l 1,28,-1
 210 422 l 1,0,-1
136 174 m 1,29,-1
 136 173 l 1,30,31
 166 151 166 151 185.5 131 c 128,-1,32
 205 111 205 111 205 81 c 0,33,34
 205 43 205 43 179.5 22 c 128,-1,35
 154 1 154 1 108 1 c 0,36,37
 65 1 65 1 35.5 20 c 128,-1,38
 6 39 6 39 6 77 c 0,39,40
 6 89 6 89 9.5 99.5 c 128,-1,41
 13 110 13 110 22 120 c 128,-1,42
 31 130 31 130 44.5 141.5 c 128,-1,43
 58 153 58 153 79 168 c 1,44,45
 58 184 58 184 46.5 195.5 c 128,-1,46
 35 207 35 207 29 217 c 128,-1,47
 23 227 23 227 20.5 237 c 128,-1,48
 18 247 18 247 18 259 c 0,49,50
 18 292 18 292 45 313.5 c 128,-1,51
 72 335 72 335 111 335 c 0,52,53
 147 335 147 335 171.5 316 c 128,-1,54
 196 297 196 297 196 265 c 0,55,56
 196 241 196 241 185 218 c 128,-1,57
 174 195 174 195 136 174 c 1,29,-1
131 132 m 2,58,-1
 103 152 l 1,59,60
 80 134 80 134 60 117 c 128,-1,61
 40 100 40 100 38 77 c 0,62,63
 37 65 37 65 43 55 c 128,-1,64
 49 45 49 45 60 39 c 128,-1,65
 71 33 71 33 84 30 c 128,-1,66
 97 27 97 27 112 27 c 0,67,68
 135 27 135 27 150.5 38.5 c 128,-1,69
 166 50 166 50 168 68 c 0,70,71
 169 78 169 78 168.5 85.5 c 128,-1,72
 168 93 168 93 164 100.5 c 128,-1,73
 160 108 160 108 152 115 c 128,-1,74
 144 122 144 122 131 132 c 2,58,-1
89 206 m 2,75,-1
 112 190 l 1,76,77
 136 208 136 208 150 224 c 128,-1,78
 164 240 164 240 162 261 c 0,79,80
 160 285 160 285 145 295 c 128,-1,81
 130 305 130 305 112 305 c 0,82,83
 88 305 88 305 69.5 294.5 c 128,-1,84
 51 284 51 284 51 264 c 128,-1,85
 51 244 51 244 58.5 233 c 128,-1,86
 66 222 66 222 89 206 c 2,75,-1
EndSplineSet
EndChar
StartChar: l
Encoding: 108 108 79
Width: 771
GlyphClass: 2
Flags: W
Fore
100 765 m 1,0,-1
 100 749 l 1,1,-1
 100 730 l 1,2,-1
 76 730 l 1,3,-1
 76 750 l 1,4,5
 66 730 66 730 39 730 c 0,6,7
 19 730 19 730 9.5 742 c 128,-1,8
 0 754 0 754 0 767 c 0,9,10
 0 791 0 791 20 799.5 c 128,-1,11
 40 808 40 808 76 808 c 1,12,-1
 76 817 l 2,13,14
 76 825 76 825 72 835 c 128,-1,15
 68 845 68 845 48 845 c 2,16,-1
 15 845 l 1,17,-1
 15 862 l 1,18,-1
 52 862 l 2,19,20
 80 862 80 862 90 846 c 128,-1,21
 100 830 100 830 100 810 c 2,22,-1
 100 765 l 1,0,-1
76 793 m 1,23,24
 50 793 50 793 37 790.5 c 128,-1,25
 24 788 24 788 24 769 c 0,26,27
 24 748 24 748 46 748 c 0,28,29
 57 748 57 748 65 754.5 c 128,-1,30
 73 761 73 761 76 769 c 1,31,-1
 76 775 l 1,32,-1
 76 793 l 1,23,24
310 750 m 2,33,-1
 343 750 l 1,34,-1
 343 730 l 1,35,-1
 306 730 l 2,36,37
 279 730 279 730 261 747.5 c 128,-1,38
 243 765 243 765 243 795 c 0,39,40
 243 824 243 824 261.5 843 c 128,-1,41
 280 862 280 862 310 862 c 2,42,-1
 343 862 l 1,43,-1
 343 845 l 1,44,-1
 310 845 l 2,45,46
 289 845 289 845 278 831 c 128,-1,47
 267 817 267 817 267 798 c 0,48,49
 267 774 267 774 280 762 c 128,-1,50
 293 750 293 750 310 750 c 2,33,-1
380 793 m 1,51,52
 382 770 382 770 394.5 760 c 128,-1,53
 407 750 407 750 423 750 c 2,54,-1
 469 750 l 1,55,-1
 469 730 l 1,56,-1
 421 730 l 2,57,58
 391 730 391 730 374.5 747.5 c 128,-1,59
 358 765 358 765 358 795 c 0,60,61
 358 822 358 822 374.5 842 c 128,-1,62
 391 862 391 862 419 862 c 0,63,64
 434 862 434 862 444 856.5 c 128,-1,65
 454 851 454 851 459.5 842.5 c 128,-1,66
 465 834 465 834 467 823.5 c 128,-1,67
 469 813 469 813 469 804 c 2,68,-1
 469 793 l 1,69,-1
 380 793 l 1,51,52
447 808 m 1,70,71
 447 819 447 819 442 832 c 128,-1,72
 437 845 437 845 418 845 c 0,73,74
 400 845 400 845 391 833 c 128,-1,75
 382 821 382 821 382 808 c 1,76,-1
 447 808 l 1,70,71
500 919 m 1,77,-1
 520 919 l 1,78,-1
 520 730 l 1,79,-1
 500 730 l 1,80,-1
 500 919 l 1,77,-1
568 730 m 0,81,82
 562 730 562 730 557.5 735 c 128,-1,83
 553 740 553 740 553 748 c 0,84,85
 553 754 553 754 557.5 758.5 c 128,-1,86
 562 763 562 763 568 763 c 0,87,88
 577 763 577 763 580.5 758.5 c 128,-1,89
 584 754 584 754 584 748 c 0,90,91
 584 740 584 740 580.5 735 c 128,-1,92
 577 730 577 730 568 730 c 0,81,82
194 750 m 2,93,-1
 226 750 l 1,94,-1
 226 730 l 1,95,-1
 189 730 l 2,96,97
 162 730 162 730 144 747.5 c 128,-1,98
 126 765 126 765 126 795 c 0,99,100
 126 824 126 824 144.5 843 c 128,-1,101
 163 862 163 862 194 862 c 2,102,-1
 226 862 l 1,103,-1
 226 845 l 1,104,-1
 194 845 l 2,105,106
 172 845 172 845 161.5 831 c 128,-1,107
 151 817 151 817 151 798 c 0,108,109
 151 774 151 774 163.5 762 c 128,-1,110
 176 750 176 750 194 750 c 2,93,-1
EndSplineSet
EndChar
StartChar: m
Encoding: 109 109 80
Width: 1024
GlyphClass: 2
Flags: W
Fore
631 587 m 1,0,-1
 631 647 l 1,1,-1
 909 647 l 1,2,-1
 909 587 l 1,3,-1
 631 587 l 1,0,-1
927 717 m 1,4,-1
 196 717 l 1,5,-1
 196 162 l 1,6,7
 172 179 172 179 141 179 c 0,8,9
 127 179 127 179 111.5 175.5 c 128,-1,10
 96 172 96 172 78 164 c 0,11,12
 60 153 60 153 46 141 c 128,-1,13
 32 129 32 129 22 118 c 0,14,15
 0 90 0 90 0 60 c 0,16,17
 0 33 0 33 22 16 c 0,18,19
 44 0 44 0 73 0 c 0,20,21
 104 0 104 0 138 15.5 c 128,-1,22
 172 31 172 31 194 58 c 0,23,24
 213 87 213 87 213 115 c 2,25,-1
 213 647 l 1,26,-1
 613 647 l 1,27,-1
 613 162 l 1,28,29
 587 179 587 179 558 179 c 0,30,31
 544 179 544 179 528.5 175.5 c 128,-1,32
 513 172 513 172 495 164 c 0,33,34
 459 143 459 143 439 118 c 0,35,36
 417 92 417 92 417 60 c 0,37,38
 417 33 417 33 439.5 16.5 c 128,-1,39
 462 0 462 0 489 0 c 0,40,41
 521 0 521 0 555 15.5 c 128,-1,42
 589 31 589 31 610 58 c 0,43,44
 631 88 631 88 631 116 c 2,45,-1
 631 520 l 1,46,-1
 909 520 l 1,47,-1
 909 162 l 1,48,49
 883 179 883 179 855 179 c 0,50,51
 841 179 841 179 825 175.5 c 128,-1,52
 809 172 809 172 791 164 c 0,53,54
 757 143 757 143 735 118 c 0,55,56
 714 90 714 90 714 60 c 0,57,58
 714 33 714 33 735 16 c 0,59,60
 758 0 758 0 786 0 c 0,61,62
 817 0 817 0 851 15.5 c 128,-1,63
 885 31 885 31 906 58 c 128,-1,64
 927 85 927 85 927 116 c 2,65,-1
 927 647 l 1,66,-1
 927 717 l 1,4,-1
EndSplineSet
EndChar
StartChar: n
Encoding: 110 110 81
Width: 768
GlyphClass: 2
Flags: W
Fore
196 717 m 1,0,-1
 630 717 l 1,1,-1
 630 116 l 2,2,3
 630 85 630 85 609 58 c 0,4,5
 589 31 589 31 555 15.5 c 128,-1,6
 521 0 521 0 489 0 c 0,7,8
 462 0 462 0 439.5 16.5 c 128,-1,9
 417 33 417 33 417 60 c 0,10,11
 417 92 417 92 439 118 c 0,12,13
 459 143 459 143 495 164 c 0,14,15
 513 172 513 172 528.5 175.5 c 128,-1,16
 544 179 544 179 558 179 c 0,17,18
 589 179 589 179 612 162 c 1,19,-1
 612 648 l 1,20,-1
 213 648 l 1,21,-1
 213 116 l 2,22,23
 213 85 213 85 193 58 c 0,24,25
 172 31 172 31 138 15.5 c 128,-1,26
 104 0 104 0 73 0 c 0,27,28
 44 0 44 0 22 16 c 0,29,30
 0 33 0 33 0 60 c 0,31,32
 0 90 0 90 22 118 c 0,33,34
 32 129 32 129 46 141 c 128,-1,35
 60 153 60 153 78 164 c 0,36,37
 95 172 95 172 111 175.5 c 128,-1,38
 127 179 127 179 141 179 c 0,39,40
 172 179 172 179 196 162 c 1,41,-1
 196 717 l 1,0,-1
EndSplineSet
EndChar
StartChar: o
Encoding: 111 111 82
Width: 1024
GlyphClass: 2
Flags: W
Fore
324 114 m 128,-1,1
 324 98 324 98 313 87.5 c 128,-1,2
 302 77 302 77 286 77 c 128,-1,3
 270 77 270 77 259.5 87.5 c 128,-1,4
 249 98 249 98 249 114 c 128,-1,5
 249 130 249 130 259.5 141 c 128,-1,6
 270 152 270 152 286 152 c 128,-1,7
 302 152 302 152 313 141 c 128,-1,0
 324 130 324 130 324 114 c 128,-1,1
196 717 m 1,8,-1
 882 717 l 1,9,-1
 882 116 l 2,10,11
 882 85 882 85 861 58 c 0,12,13
 841 31 841 31 807 15.5 c 128,-1,14
 773 0 773 0 741 0 c 0,15,16
 714 0 714 0 691.5 16.5 c 128,-1,17
 669 33 669 33 669 60 c 0,18,19
 669 92 669 92 691 118 c 0,20,21
 711 143 711 143 746 164 c 1,22,23
 765 172 765 172 780.5 175.5 c 128,-1,24
 796 179 796 179 810 179 c 0,25,26
 841 179 841 179 864 162 c 1,27,-1
 864 520 l 1,28,-1
 675 520 l 1,29,-1
 675 587 l 1,30,-1
 864 587 l 1,31,-1
 864 648 l 1,32,-1
 213 648 l 1,33,-1
 213 116 l 2,34,35
 213 85 213 85 193 58 c 0,36,37
 172 31 172 31 138 15.5 c 128,-1,38
 104 0 104 0 73 0 c 0,39,40
 44 0 44 0 22 16 c 0,41,42
 0 33 0 33 0 60 c 0,43,44
 0 90 0 90 22 118 c 0,45,46
 32 129 32 129 46 141 c 128,-1,47
 60 153 60 153 78 164 c 0,48,49
 95 172 95 172 111 175.5 c 128,-1,50
 127 179 127 179 141 179 c 0,51,52
 172 179 172 179 196 162 c 1,53,-1
 196 717 l 1,8,-1
EndSplineSet
EndChar
StartChar: p
Encoding: 112 112 83
Width: 256
GlyphClass: 2
Flags: W
Fore
0 150 m 1,0,-1
 0 134 l 1,1,-1
 0 -100 l 1,2,-1
 51 -100 l 1,3,-1
 51 -85 l 1,4,-1
 51 150 l 1,5,-1
 0 150 l 1,0,-1
0 819 m 1,6,-1
 0 804 l 1,7,-1
 0 567 l 1,8,-1
 51 567 l 1,9,-1
 51 583 l 1,10,-1
 51 819 l 1,11,-1
 0 819 l 1,6,-1
EndSplineSet
EndChar
StartChar: q
Encoding: 113 113 84
Width: 512
GlyphClass: 2
Flags: W
Fore
214 717 m 1,0,-1
 196 717 l 1,1,-1
 196 162 l 1,2,3
 172 179 172 179 141 179 c 0,4,5
 127 179 127 179 111.5 175.5 c 128,-1,6
 96 172 96 172 78 164 c 0,7,8
 60 153 60 153 46 141 c 128,-1,9
 32 129 32 129 22 118 c 0,10,11
 0 90 0 90 0 60 c 0,12,13
 0 33 0 33 22 16 c 0,14,15
 44 0 44 0 73 0 c 0,16,17
 104 0 104 0 138 15.5 c 128,-1,18
 172 31 172 31 194 58 c 0,19,20
 214 88 214 88 214 116 c 2,21,-1
 214 717 l 1,0,-1
EndSplineSet
EndChar
StartChar: r
Encoding: 114 114 85
Width: 2130
GlyphClass: 2
Flags: W
Fore
409 41 m 1,0,-1
 1712 42 l 1,1,-1
 1712 0 l 1,2,-1
 409 -1 l 1,3,-1
 409 41 l 1,0,-1
763 0 m 1,4,-1
 1273 0 l 1,5,-1
 1273 -107 l 1,6,-1
 763 -107 l 1,7,-1
 763 0 l 1,4,-1
EndSplineSet
EndChar
StartChar: s
Encoding: 115 115 86
Width: 1578
GlyphClass: 2
Flags: W
Fore
409 -42 m 1,0,-1
 1169 -42 l 1,1,-1
 1169 -61 l 1,2,-1
 409 -61 l 1,3,-1
 409 -42 l 1,0,-1
517 67 m 1,4,-1
 1029 67 l 1,5,-1
 1029 -40 l 1,6,-1
 517 -40 l 1,7,-1
 517 67 l 1,4,-1
EndSplineSet
EndChar
StartChar: t
Encoding: 116 116 87
Width: 1109
GlyphClass: 2
Flags: W
Fore
518 567 m 1,0,-1
 471 567 l 1,1,2
 542 471 542 471 542 406 c 0,3,4
 542 318 542 318 428 215 c 1,5,-1
 602 -18 l 1,6,7
 553 6 553 6 514 6 c 0,8,9
 473 6 473 6 438 -16 c 1,10,11
 409 -51 409 -51 409 -88 c 0,12,13
 409 -117 409 -117 422 -143 c 0,14,15
 430 -160 430 -160 437 -173 c 128,-1,16
 444 -186 444 -186 454 -194 c 2,17,18
 489 -244 489 -244 563 -293 c 1,19,-1
 577 -270 l 1,20,21
 561 -256 561 -256 551.5 -239.5 c 128,-1,22
 542 -223 542 -223 534 -207 c 0,23,24
 520 -178 520 -178 520 -141 c 0,25,26
 524 -106 524 -106 538 -88 c 0,27,28
 553 -67 553 -67 583 -67 c 0,29,30
 612 -67 612 -67 628.5 -75.5 c 128,-1,31
 645 -84 645 -84 656 -90 c 128,-1,32
 667 -96 667 -96 676 -100 c 1,33,-1
 694 -76 l 1,34,35
 684 -65 684 -65 677.5 -56 c 128,-1,36
 671 -47 671 -47 663 -37 c 0,37,38
 651 -18 651 -18 645 -12 c 1,39,-1
 610 41 l 2,40,41
 581 94 581 94 581 129 c 0,42,43
 581 170 581 170 608 221 c 0,44,45
 635 271 635 271 700 344 c 1,46,-1
 518 567 l 1,0,-1
EndSplineSet
EndChar
StartChar: u
Encoding: 117 117 88
Width: 1251
GlyphClass: 2
Flags: W
Fore
612 -372 m 1,0,-1
 548 -372 l 1,1,-1
 738 310 l 1,2,3
 668 248 668 248 604 236 c 128,-1,4
 540 224 540 224 454 294 c 0,5,6
 416 324 416 324 409 373 c 128,-1,7
 402 422 402 422 419 465 c 128,-1,8
 436 508 436 508 473 533 c 128,-1,9
 510 558 510 558 564 540 c 0,10,11
 608 522 608 522 630 487 c 128,-1,12
 652 452 652 452 652 404 c 1,13,14
 650 392 650 392 644 381 c 128,-1,15
 638 370 638 370 635 360 c 128,-1,16
 632 350 632 350 634 342 c 128,-1,17
 636 334 636 334 648 330 c 0,18,19
 678 322 678 322 707 337 c 128,-1,20
 736 352 736 352 758 374 c 128,-1,21
 780 396 780 396 796 414 c 0,22,23
 808 432 808 432 810 434 c 1,24,-1
 842 434 l 1,25,-1
 832 394 l 2,26,27
 820 352 820 352 800 285 c 128,-1,28
 780 218 780 218 756 132 c 128,-1,29
 732 46 732 46 706 -43 c 128,-1,30
 680 -132 680 -132 656 -218 c 128,-1,31
 632 -304 632 -304 612 -372 c 1,0,-1
EndSplineSet
EndChar
StartChar: v
Encoding: 118 118 89
Width: 1217
GlyphClass: 2
Flags: W
Fore
670 184 m 1,0,1
 604 130 604 130 584 130 c 0,2,3
 564 132 564 132 562 145 c 1,4,-1
 568 161 l 1,5,-1
 576 178 l 1,6,7
 576 216 576 216 554 243 c 0,8,9
 524 274 524 274 498 274 c 0,10,11
 458 274 458 274 434 244 c 128,-1,12
 410 214 410 214 410 178 c 0,13,14
 410 137 410 137 442 110 c 0,15,16
 478 79 478 79 520 79 c 0,17,18
 570 79 570 79 652 124 c 1,19,-1
 536 -291 l 1,20,-1
 580 -291 l 1,21,-1
 808 536 l 1,22,-1
 788 536 l 1,23,24
 736 452 736 452 666 429 c 1,25,-1
 650 436 l 1,26,27
 656 458 656 458 658 464 c 128,-1,28
 660 470 660 470 660 481 c 0,29,30
 660 513 660 513 636 542 c 0,31,32
 610 569 610 569 564 569 c 1,33,34
 530 563 530 563 510 536 c 128,-1,35
 490 509 490 509 490 475 c 0,36,37
 490 434 490 434 524 405 c 0,38,39
 556 378 556 378 602 378 c 2,40,-1
 634 380 l 1,41,-1
 664 388 l 1,42,-1
 732 419 l 1,43,-1
 670 184 l 1,0,1
EndSplineSet
EndChar
StartChar: w
Encoding: 119 119 90
Width: 1309
GlyphClass: 2
Flags: W
Fore
756 134 m 1,0,-1
 716 134 l 1,1,-1
 834 560 l 1,2,3
 792 524 792 524 751 516 c 128,-1,4
 710 508 710 508 658 550 c 0,5,6
 634 570 634 570 629 601 c 128,-1,7
 624 632 624 632 635 659 c 128,-1,8
 646 686 646 686 669 701 c 128,-1,9
 692 716 692 716 726 704 c 0,10,11
 754 694 754 694 767 672 c 128,-1,12
 780 650 780 650 780 620 c 0,13,14
 780 612 780 612 776 605 c 128,-1,15
 772 598 772 598 770 593 c 128,-1,16
 768 588 768 588 769 583 c 128,-1,17
 770 578 770 578 778 574 c 1,18,19
 798 570 798 570 816 579 c 128,-1,20
 834 588 834 588 848 602 c 128,-1,21
 862 616 862 616 870 626 c 0,22,23
 878 638 878 638 880 640 c 1,24,-1
 900 640 l 1,25,-1
 894 614 l 2,26,27
 886 588 886 588 874 546 c 128,-1,28
 862 504 862 504 847 450 c 128,-1,29
 832 396 832 396 815 340 c 128,-1,30
 798 284 798 284 783 231 c 128,-1,31
 768 178 768 178 756 134 c 1,0,-1
706 102 m 1,32,33
 640 48 640 48 620 48 c 0,34,35
 602 50 602 50 600 64 c 1,36,-1
 606 80 l 1,37,-1
 612 96 l 1,38,39
 612 134 612 134 592 162 c 1,40,41
 560 192 560 192 534 192 c 0,42,43
 496 192 496 192 471 162 c 128,-1,44
 446 132 446 132 446 96 c 0,45,46
 446 56 446 56 478 28 c 0,47,48
 516 -2 516 -2 556 -2 c 0,49,50
 608 -2 608 -2 690 42 c 1,51,-1
 574 -372 l 1,52,-1
 616 -372 l 1,53,-1
 846 454 l 1,54,-1
 826 454 l 1,55,56
 774 370 774 370 702 348 c 1,57,-1
 688 354 l 1,58,59
 694 376 694 376 695 382 c 128,-1,60
 696 388 696 388 696 400 c 0,61,62
 696 432 696 432 674 460 c 0,63,64
 646 488 646 488 602 488 c 1,65,66
 566 482 566 482 546 455 c 128,-1,67
 526 428 526 428 526 394 c 0,68,69
 526 352 526 352 560 324 c 256,70,71
 594 296 594 296 638 296 c 2,72,-1
 672 298 l 1,73,-1
 700 306 l 1,74,-1
 770 338 l 1,75,-1
 706 102 l 1,32,33
EndSplineSet
EndChar
StartChar: x
Encoding: 120 120 91
Width: 1347
GlyphClass: 2
Flags: WO
Fore
775 373 m 1,0,-1
 729 373 l 1,1,-1
 864 855 l 1,2,3
 815 812 815 812 769 803.5 c 128,-1,4
 723 795 723 795 663 844 c 0,5,6
 637 865 637 865 632 900 c 128,-1,7
 627 935 627 935 639 965.5 c 128,-1,8
 651 996 651 996 677.5 1013.5 c 128,-1,9
 704 1031 704 1031 740 1018 c 0,10,11
 773 1005 773 1005 788 980 c 128,-1,12
 803 955 803 955 803 922 c 0,13,14
 802 913 802 913 797.5 905 c 128,-1,15
 793 897 793 897 791 891 c 128,-1,16
 789 885 789 885 790.5 878.5 c 128,-1,17
 792 872 792 872 800 869 c 0,18,19
 822 864 822 864 842 875 c 128,-1,20
 862 886 862 886 878 901 c 128,-1,21
 894 916 894 916 904 929 c 0,22,23
 913 942 913 942 915 944 c 1,24,-1
 938 944 l 1,25,-1
 931 914 l 2,26,27
 922 886 922 886 908 838 c 128,-1,28
 894 790 894 790 876.5 729.5 c 128,-1,29
 859 669 859 669 841 606 c 128,-1,30
 823 543 823 543 806 482 c 128,-1,31
 789 421 789 421 775 373 c 1,0,-1
719 193 m 1,32,-1
 678 193 l 1,33,-1
 797 619 l 1,34,35
 754 582 754 582 713.5 574 c 128,-1,36
 673 566 673 566 620 609 c 0,37,38
 596 629 596 629 591.5 659.5 c 128,-1,39
 587 690 587 690 598 717 c 128,-1,40
 609 744 609 744 631.5 759.5 c 128,-1,41
 654 775 654 775 688 763 c 0,42,43
 716 753 716 753 729.5 731 c 128,-1,44
 743 709 743 709 743 679 c 0,45,46
 742 671 742 671 738 664 c 128,-1,47
 734 657 734 657 732 651.5 c 128,-1,48
 730 646 730 646 731.5 641 c 128,-1,49
 733 636 733 636 740 633 c 1,50,51
 760 628 760 628 778 637.5 c 128,-1,52
 796 647 796 647 810 660.5 c 128,-1,53
 824 674 824 674 833 685 c 0,54,55
 841 697 841 697 842 698 c 1,56,-1
 862 698 l 1,57,-1
 856 673 l 2,58,59
 848 647 848 647 836 604.5 c 128,-1,60
 824 562 824 562 809 508.5 c 128,-1,61
 794 455 794 455 777.5 399 c 128,-1,62
 761 343 761 343 745.5 289.5 c 128,-1,63
 730 236 730 236 719 193 c 1,32,-1
669 161 m 1,64,65
 603 107 603 107 583 107 c 0,66,67
 564 109 564 109 562 122 c 1,68,-1
 568 138 l 1,69,-1
 575 155 l 1,70,71
 575 193 575 193 554 220 c 0,72,73
 523 251 523 251 497 251 c 0,74,75
 458 251 458 251 433.5 221 c 128,-1,76
 409 191 409 191 409 155 c 0,77,78
 409 114 409 114 441 87 c 0,79,80
 478 56 478 56 519 56 c 0,81,82
 570 56 570 56 652 101 c 1,83,-1
 536 -314 l 1,84,-1
 579 -314 l 1,85,-1
 808 513 l 1,86,-1
 788 513 l 1,87,88
 736 429 736 429 665 406 c 1,89,-1
 650 413 l 1,90,91
 656 435 656 435 657.5 441 c 128,-1,92
 659 447 659 447 659 458 c 0,93,94
 659 490 659 490 636 519 c 0,95,96
 609 546 609 546 564 546 c 1,97,98
 529 540 529 540 509 513 c 128,-1,99
 489 486 489 486 489 452 c 0,100,101
 489 411 489 411 523 382 c 0,102,103
 556 355 556 355 601 355 c 2,104,-1
 634 357 l 1,105,-1
 663 365 l 1,106,-1
 732 396 l 1,107,-1
 669 161 l 1,64,65
EndSplineSet
EndChar
StartChar: y
Encoding: 121 121 92
Width: 1024
GlyphClass: 2
Flags: W
Fore
694 520 m 1,0,-1
 463 520 l 1,1,-1
 463 116 l 2,2,3
 464 92 464 92 450.5 71 c 128,-1,4
 437 50 437 50 416 34 c 128,-1,5
 395 18 395 18 369.5 9 c 128,-1,6
 344 0 344 0 321 0 c 0,7,8
 293 0 293 0 270.5 16.5 c 128,-1,9
 248 33 248 33 248 60 c 0,10,11
 248 89 248 89 270 118 c 0,12,13
 290 143 290 143 326 164 c 0,14,15
 344 172 344 172 360 175.5 c 128,-1,16
 376 179 376 179 390 179 c 0,17,18
 418 179 418 179 444 162 c 1,19,-1
 444 520 l 1,20,-1
 214 520 l 1,21,-1
 214 116 l 2,22,23
 214 88 214 88 194 58 c 0,24,25
 172 31 172 31 138 15.5 c 128,-1,26
 104 0 104 0 73 0 c 0,27,28
 44 0 44 0 22 16 c 0,29,30
 0 33 0 33 0 60 c 0,31,32
 0 90 0 90 22 118 c 0,33,34
 32 129 32 129 46 141 c 128,-1,35
 60 153 60 153 78 164 c 0,36,37
 96 172 96 172 111.5 175.5 c 128,-1,38
 127 179 127 179 141 179 c 0,39,40
 172 179 172 179 196 162 c 1,41,-1
 196 717 l 1,42,-1
 963 717 l 1,43,-1
 963 116 l 2,44,45
 964 92 964 92 950.5 71 c 128,-1,46
 937 50 937 50 916 34 c 128,-1,47
 895 18 895 18 869.5 9 c 128,-1,48
 844 0 844 0 820 0 c 0,49,50
 793 0 793 0 770 16 c 0,51,52
 749 33 749 33 749 60 c 0,53,54
 749 90 749 90 770 118 c 0,55,56
 792 144 792 144 826 164 c 0,57,58
 844 172 844 172 860 175.5 c 128,-1,59
 876 179 876 179 890 179 c 0,60,61
 918 179 918 179 944 162 c 1,62,-1
 944 520 l 1,63,-1
 713 520 l 1,64,-1
 713 116 l 2,65,66
 713 101 713 101 707 87 c 128,-1,67
 701 73 701 73 691 58 c 0,68,69
 670 31 670 31 636 15.5 c 128,-1,70
 602 0 602 0 570 0 c 0,71,72
 543 0 543 0 520.5 16.5 c 128,-1,73
 498 33 498 33 498 60 c 0,74,75
 498 92 498 92 520 118 c 0,76,77
 540 143 540 143 575 164 c 1,78,79
 594 172 594 172 610 175.5 c 128,-1,80
 626 179 626 179 640 179 c 0,81,82
 668 179 668 179 694 162 c 1,83,-1
 694 520 l 1,0,-1
694 587 m 1,84,-1
 694 647 l 1,85,-1
 463 647 l 1,86,-1
 463 587 l 1,87,-1
 693 587 l 1,88,-1
 694 587 l 1,84,-1
444 587 m 1,89,-1
 444 647 l 1,90,-1
 214 647 l 1,91,-1
 214 587 l 1,92,-1
 443 587 l 1,93,-1
 444 587 l 1,89,-1
713 587 m 1,94,-1
 944 587 l 1,95,-1
 944 647 l 1,96,-1
 713 647 l 1,97,-1
 713 587 l 1,94,-1
EndSplineSet
EndChar
StartChar: z
Encoding: 122 122 93
Width: 768
GlyphClass: 2
Flags: W
Fore
0 0 m 1,0,-1
 47 0 l 1,1,-1
 47 206 l 1,2,-1
 0 206 l 1,3,-1
 0 0 l 1,0,-1
136 206 m 1,4,-1
 89 206 l 1,5,-1
 89 0 l 1,6,-1
 136 0 l 1,7,-1
 136 206 l 1,4,-1
456 0 m 1,8,-1
 502 0 l 1,9,-1
 502 206 l 1,10,-1
 456 206 l 1,11,-1
 456 0 l 1,8,-1
540 0 m 1,12,-1
 587 0 l 1,13,-1
 587 206 l 1,14,-1
 540 206 l 1,15,-1
 540 0 l 1,12,-1
232 120 m 2,16,17
 232 155 232 155 242 167 c 0,18,19
 253 183 253 183 276 184 c 0,20,21
 306 184 306 184 333 157 c 0,22,23
 357 126 357 126 357 86 c 0,24,25
 357 63 357 63 354 54 c 0,26,27
 349 40 349 40 346 37 c 1,28,29
 338 24 338 24 313 19 c 1,30,31
 283 19 283 19 258 49 c 0,32,33
 252 57 252 57 248 64 c 128,-1,34
 244 71 244 71 240 79 c 0,35,36
 234 90 234 90 233 95 c 128,-1,37
 232 100 232 100 232 108 c 2,38,-1
 232 120 l 2,16,17
136 103 m 0,39,40
 136 68 136 68 164 46 c 0,41,42
 191 22 191 22 227 12 c 0,43,44
 240 10 240 10 249.5 8 c 128,-1,45
 259 6 259 6 266 6 c 1,46,47
 267 5 267 5 282 5 c 2,48,-1
 297 5 l 2,49,50
 313 5 313 5 330.5 7 c 128,-1,51
 348 9 348 9 367 15 c 0,52,53
 385 20 385 20 400.5 28 c 128,-1,54
 416 36 416 36 429 47 c 0,55,56
 456 68 456 68 456 103 c 0,57,58
 456 137 456 137 428 161 c 0,59,60
 414 172 414 172 397 179 c 128,-1,61
 380 186 380 186 362 190 c 0,62,63
 332 201 332 201 293 201 c 0,64,65
 275 201 275 201 225 189 c 0,66,67
 206 184 206 184 190 176 c 128,-1,68
 174 168 174 168 161 158 c 0,69,70
 136 136 136 136 136 103 c 0,39,40
EndSplineSet
EndChar
StartChar: braceleft
Encoding: 123 123 94
Width: 512
GlyphClass: 2
Flags: W
Fore
103 0 m 1,0,-1
 103 15 l 1,1,-1
 103 717 l 1,2,-1
 0 717 l 1,3,-1
 0 701 l 1,4,-1
 0 0 l 1,5,-1
 103 0 l 1,0,-1
228 266 m 0,6,7
 228 249 228 249 242 235.5 c 128,-1,8
 256 222 256 222 273 222 c 0,9,10
 291 222 291 222 303.5 235.5 c 128,-1,11
 316 249 316 249 316 266 c 0,12,13
 316 285 316 285 303 298 c 0,14,15
 291 311 291 311 273 311 c 0,16,17
 254 311 254 311 242 298 c 0,18,19
 228 285 228 285 228 266 c 0,6,7
228 451 m 0,20,21
 228 432 228 432 242 419 c 0,22,23
 257 407 257 407 273 407 c 0,24,25
 290 407 290 407 303 420 c 0,26,27
 316 432 316 432 316 451 c 0,28,29
 316 469 316 469 303 482.5 c 128,-1,30
 290 496 290 496 273 496 c 0,31,32
 255 496 255 496 241.5 482.5 c 128,-1,33
 228 469 228 469 228 451 c 0,20,21
179 0 m 1,34,-1
 179 15 l 1,35,-1
 179 717 l 1,36,-1
 154 717 l 1,37,-1
 154 701 l 1,38,-1
 154 0 l 1,39,-1
 179 0 l 1,34,-1
EndSplineSet
EndChar
StartChar: bar
Encoding: 124 124 95
Width: 284
GlyphClass: 2
Flags: W
Fore
351 608 m 1,0,-1
 351 428 l 2,1,2
 351 419 351 419 345 411 c 0,3,4
 339 402 339 402 328.5 397.5 c 128,-1,5
 318 393 318 393 310 393 c 256,6,7
 302 393 302 393 295 398 c 0,8,9
 288 404 288 404 288 412 c 0,10,11
 288 421 288 421 295 428 c 1,12,13
 300 436 300 436 311 442 c 1,14,15
 317 444 317 444 321.5 445 c 128,-1,16
 326 446 326 446 331 446 c 0,17,18
 339 446 339 446 346 442 c 1,19,-1
 346 586 l 1,20,-1
 175 643 l 1,21,-1
 175 489 l 2,22,23
 175 485 175 485 173.5 481 c 128,-1,24
 172 477 172 477 169 472 c 0,25,26
 163 464 163 464 152.5 459.5 c 128,-1,27
 142 455 142 455 133 455 c 256,28,29
 124 455 124 455 118 460 c 256,30,31
 112 465 112 465 112 473 c 0,32,33
 112 482 112 482 118 489 c 1,34,35
 121 494 121 494 125.5 497.5 c 128,-1,36
 130 501 130 501 134 504 c 1,37,38
 139 506 139 506 144.5 507 c 128,-1,39
 150 508 150 508 154 508 c 256,40,41
 158 508 158 508 162 507 c 128,-1,42
 166 506 166 506 170 504 c 1,43,-1
 170 646 l 1,44,-1
 -3 703 l 1,45,-1
 -3 551 l 2,46,47
 -3 542 -3 542 -9 534 c 0,48,49
 -15 525 -15 525 -25.5 520.5 c 128,-1,50
 -36 516 -36 516 -45 516 c 0,51,52
 -50 516 -50 516 -53.5 517.5 c 128,-1,53
 -57 519 -57 519 -60 521 c 0,54,55
 -67 526 -67 526 -67 535 c 128,-1,56
 -67 544 -67 544 -60 551 c 1,57,58
 -57 555 -57 555 -53 558.5 c 128,-1,59
 -49 562 -49 562 -43 565 c 0,60,61
 -38 567 -38 567 -33.5 568 c 128,-1,62
 -29 569 -29 569 -25 569 c 0,63,64
 -15 569 -15 569 -8 565 c 1,65,-1
 -8 731 l 1,66,-1
 351 608 l 1,0,-1
EndSplineSet
EndChar
StartChar: braceright
Encoding: 125 125 96
Width: 512
GlyphClass: 2
Flags: W
Fore
193 268 m 0,0,1
 193 245 193 245 206 231.5 c 128,-1,2
 219 218 219 218 237 218 c 0,3,4
 253 218 253 218 267 230 c 0,5,6
 281 244 281 244 281 268 c 0,7,8
 281 288 281 288 266 299 c 0,9,10
 253 309 253 309 237 309 c 0,11,12
 219 309 219 309 206 299 c 128,-1,13
 193 289 193 289 193 268 c 0,0,1
193 454 m 0,14,15
 193 429 193 429 206 417 c 0,16,17
 220 402 220 402 237 402 c 128,-1,18
 254 402 254 402 267.5 416 c 128,-1,19
 281 430 281 430 281 454 c 0,20,21
 281 472 281 472 268 483 c 0,22,23
 251 495 251 495 237 495 c 0,24,25
 220 495 220 495 206 483 c 0,26,27
 193 473 193 473 193 454 c 0,14,15
325 0 m 1,28,-1
 353 0 l 1,29,-1
 353 7 l 1,30,-1
 353 717 l 1,31,-1
 325 717 l 1,32,-1
 325 710 l 1,33,-1
 325 0 l 1,28,-1
403 0 m 1,34,-1
 512 0 l 1,35,-1
 512 7 l 1,36,-1
 512 717 l 1,37,-1
 403 717 l 1,38,-1
 403 710 l 1,39,-1
 403 0 l 1,34,-1
EndSplineSet
EndChar
StartChar: asciitilde
Encoding: 126 126 97
Width: 284
GlyphClass: 2
Flags: W
Fore
351 731 m 1,0,-1
 351 551 l 2,1,2
 351 542 351 542 345 534 c 0,3,4
 339 525 339 525 328.5 520.5 c 128,-1,5
 318 516 318 516 310 516 c 256,6,7
 302 516 302 516 295 521 c 0,8,9
 288 527 288 527 288 535 c 0,10,11
 288 544 288 544 295 551 c 1,12,13
 300 559 300 559 311 565 c 1,14,15
 317 567 317 567 321.5 568 c 128,-1,16
 326 569 326 569 331 569 c 0,17,18
 339 569 339 569 346 565 c 1,19,-1
 346 706 l 1,20,-1
 176 647 l 1,21,-1
 176 489 l 2,22,23
 176 485 176 485 174 481 c 128,-1,24
 172 477 172 477 169 472 c 0,25,26
 163 464 163 464 152.5 459.5 c 128,-1,27
 142 455 142 455 133 455 c 0,28,29
 125 455 125 455 118 460 c 0,30,31
 112 465 112 465 112 473 c 0,32,33
 112 482 112 482 118 489 c 1,34,35
 121 494 121 494 125.5 497.5 c 128,-1,36
 130 501 130 501 135 504 c 1,37,38
 140 506 140 506 145 507 c 128,-1,39
 150 508 150 508 154 508 c 0,40,41
 159 508 159 508 162.5 507 c 128,-1,42
 166 506 166 506 170 504 c 1,43,-1
 170 644 l 1,44,-1
 -3 586 l 1,45,-1
 -3 428 l 2,46,47
 -3 419 -3 419 -9 411 c 0,48,49
 -15 402 -15 402 -25.5 397.5 c 128,-1,50
 -36 393 -36 393 -45 393 c 0,51,52
 -50 393 -50 393 -53.5 394.5 c 128,-1,53
 -57 396 -57 396 -60 398 c 0,54,55
 -67 403 -67 403 -67 412 c 128,-1,56
 -67 421 -67 421 -60 428 c 1,57,58
 -57 432 -57 432 -53 435.5 c 128,-1,59
 -49 439 -49 439 -43 442 c 0,60,61
 -38 444 -38 444 -33.5 445 c 128,-1,62
 -29 446 -29 446 -25 446 c 0,63,64
 -15 446 -15 446 -8 442 c 1,65,-1
 -8 608 l 1,66,-1
 351 731 l 1,0,-1
EndSplineSet
EndChar
StartChar: sterling
Encoding: 163 163 102
Width: 512
GlyphClass: 2
Flags: W
Fore
226 717 m 1,0,-1
 226 529 l 1,1,-1
 226 163 l 1,2,3
 210 179 210 179 166 179 c 0,4,5
 138 179 138 179 104 164 c 0,6,7
 87 156 87 156 74 144.5 c 128,-1,8
 61 133 61 133 51 121 c 0,9,10
 40 108 40 108 35.5 93 c 128,-1,11
 31 78 31 78 31 62 c 0,12,13
 31 32 31 32 52 16 c 0,14,15
 72 0 72 0 103 0 c 0,16,17
 138 0 138 0 170 16 c 0,18,19
 208 34 208 34 221 56 c 0,20,21
 244 85 244 85 244 117 c 2,22,-1
 244 523 l 1,23,24
 256 523 256 523 272 518 c 128,-1,25
 288 513 288 513 302 505 c 0,26,27
 329 492 329 492 351 463 c 0,28,29
 376 437 376 437 386 406 c 0,30,31
 394 382 394 382 394 381 c 0,32,33
 395 377 395 377 395.5 373 c 128,-1,34
 396 369 396 369 398 365 c 1,35,-1
 398 344 l 1,36,-1
 397 332 l 1,37,-1
 394 304 l 2,38,39
 392 293 392 293 389 283.5 c 128,-1,40
 386 274 386 274 383 265 c 2,41,-1
 366 220 l 1,42,-1
 381 221 l 1,43,44
 389 236 389 236 393.5 247.5 c 128,-1,45
 398 259 398 259 406 276 c 0,46,47
 415 299 415 299 418 320 c 128,-1,48
 421 341 421 341 421 358 c 0,49,50
 421 431 421 431 370 498 c 2,51,-1
 325 550 l 1,52,-1
 300 580 l 1,53,-1
 283 601 l 2,54,55
 267 623 267 623 260 648 c 0,56,57
 255 663 255 663 250.5 679.5 c 128,-1,58
 246 696 246 696 244 717 c 1,59,-1
 226 717 l 1,0,-1
368 119 m 0,60,61
 368 103 368 103 356.5 92 c 128,-1,62
 345 81 345 81 330 81 c 0,63,64
 314 81 314 81 303 92 c 128,-1,65
 292 103 292 103 292 119 c 0,66,67
 292 134 292 134 303 145 c 128,-1,68
 314 156 314 156 330 156 c 0,69,70
 345 156 345 156 356.5 145 c 128,-1,71
 368 134 368 134 368 119 c 0,60,61
334 725 m 1,72,73
 326 798 326 798 284 852 c 0,74,75
 265 877 265 877 232 891 c 0,76,77
 218 898 218 898 201 902 c 128,-1,78
 184 906 184 906 166 906 c 0,79,80
 150 906 150 906 134 902 c 128,-1,81
 118 898 118 898 103 891 c 0,82,83
 74 878 74 878 50 851 c 0,84,85
 40 838 40 838 31.5 823.5 c 128,-1,86
 23 809 23 809 15 793 c 0,87,88
 3 762 3 762 0 725 c 1,89,-1
 16 725 l 1,90,91
 16 738 16 738 17 739 c 1,92,93
 17 742 17 742 18 745.5 c 128,-1,94
 19 749 19 749 20 752 c 0,95,96
 23 759 23 759 25.5 764.5 c 128,-1,97
 28 770 28 770 30 775 c 1,98,99
 52 811 52 811 89.5 832 c 128,-1,100
 127 853 127 853 166 853 c 0,101,102
 184 853 184 853 203 850 c 0,103,104
 210 848 210 848 218.5 845 c 128,-1,105
 227 842 227 842 236 835 c 2,106,107
 254 827 254 827 268.5 816 c 128,-1,108
 283 805 283 805 294 790 c 0,109,110
 315 760 315 760 315 725 c 1,111,-1
 334 725 l 1,72,73
195 752 m 0,112,113
 195 758 195 758 186 769 c 1,114,115
 178 775 178 775 166 775 c 0,116,117
 164 775 164 775 160.5 774 c 128,-1,118
 157 773 157 773 152 773 c 1,119,120
 145 771 145 771 145 769 c 1,121,122
 138 762 138 762 138 752 c 0,123,124
 138 738 138 738 145 732 c 1,125,126
 156 725 156 725 166 725 c 0,127,128
 179 725 179 725 186 732 c 0,129,130
 195 740 195 740 195 752 c 0,112,113
EndSplineSet
EndChar
StartChar: currency
Encoding: 164 164 103
Width: 1024
GlyphClass: 2
Flags: W
Fore
971 742 m 1,0,-1
 971 811 l 1,1,-1
 621 811 l 1,2,-1
 621 825 l 1,3,-1
 987 825 l 1,4,-1
 987 742 l 1,5,-1
 971 742 l 1,0,-1
100 184 m 1,6,-1
 75 184 l 1,7,8
 92 252 92 252 110.5 316.5 c 128,-1,9
 129 381 129 381 147 449 c 1,10,11
 134 436 134 436 118.5 425 c 128,-1,12
 103 414 103 414 87 408 c 128,-1,13
 71 402 71 402 53.5 404 c 128,-1,14
 36 406 36 406 19 420 c 0,15,16
 5 432 5 432 2.5 451 c 128,-1,17
 0 470 0 470 6 486.5 c 128,-1,18
 12 503 12 503 26.5 512 c 128,-1,19
 41 521 41 521 61 514 c 0,20,21
 79 509 79 509 87.5 494 c 128,-1,22
 96 479 96 479 96 462 c 1,23,24
 94 454 94 454 89.5 445 c 128,-1,25
 85 436 85 436 94 434 c 0,26,27
 106 431 106 431 120 440.5 c 128,-1,28
 134 450 134 450 146.5 462.5 c 128,-1,29
 159 475 159 475 167 485 c 0,30,31
 174 496 174 496 175 497 c 1,32,-1
 188 497 l 1,33,34
 188 495 188 495 182 474.5 c 128,-1,35
 176 454 176 454 165.5 417 c 128,-1,36
 155 380 155 380 143.5 339.5 c 128,-1,37
 132 299 132 299 120.5 257 c 128,-1,38
 109 215 109 215 100 184 c 1,6,-1
450 168 m 1,39,-1
 424 168 l 1,40,41
 441 236 441 236 460 300.5 c 128,-1,42
 479 365 479 365 497 432 c 1,43,44
 483 420 483 420 468 408.5 c 128,-1,45
 453 397 453 397 436.5 391.5 c 128,-1,46
 420 386 420 386 402.5 387.5 c 128,-1,47
 385 389 385 389 369 403 c 0,48,49
 354 416 354 416 351.5 435 c 128,-1,50
 349 454 349 454 355.5 470 c 128,-1,51
 362 486 362 486 376.5 495.5 c 128,-1,52
 391 505 391 505 412 498 c 0,53,54
 429 493 429 493 437.5 478 c 128,-1,55
 446 463 446 463 446 445 c 1,56,57
 445 441 445 441 442.5 436.5 c 128,-1,58
 440 432 440 432 439 428.5 c 128,-1,59
 438 425 438 425 439 422 c 128,-1,60
 440 419 440 419 445 418 c 0,61,62
 457 415 457 415 470.5 424 c 128,-1,63
 484 433 484 433 496.5 446 c 128,-1,64
 509 459 509 459 517 469 c 0,65,66
 524 479 524 479 525 480 c 1,67,-1
 539 480 l 1,68,-1
 528 446 l 2,69,70
 519 413 519 413 505.5 363.5 c 128,-1,71
 492 314 492 314 476.5 260.5 c 128,-1,72
 461 207 461 207 450 168 c 1,39,-1
774 717 m 1,73,-1
 774 529 l 1,74,-1
 774 163 l 1,75,76
 757 178 757 178 714 178 c 0,77,78
 699 178 699 178 684.5 174.5 c 128,-1,79
 670 171 670 171 651 163 c 0,80,81
 635 155 635 155 621.5 144.5 c 128,-1,82
 608 134 608 134 599 121 c 0,83,84
 579 94 579 94 579 62 c 0,85,86
 579 47 579 47 584.5 36 c 128,-1,87
 590 25 590 25 599 15 c 1,88,89
 622 0 622 0 650 0 c 0,90,91
 668 0 668 0 684 4 c 128,-1,92
 700 8 700 8 718 15 c 0,93,94
 754 34 754 34 770 56 c 0,95,96
 793 85 793 85 793 118 c 2,97,-1
 793 524 l 1,98,99
 805 524 805 524 820.5 519 c 128,-1,100
 836 514 836 514 849 505 c 2,101,102
 876 492 876 492 899 462 c 2,103,104
 923 440 923 440 934 406 c 0,105,106
 937 397 937 397 939.5 391 c 128,-1,107
 942 385 942 385 942 382 c 1,108,109
 944 377 944 377 944.5 373 c 128,-1,110
 945 369 945 369 947 365 c 1,111,-1
 947 345 l 1,112,-1
 945 333 l 1,113,-1
 942 304 l 1,114,115
 939 293 939 293 936.5 283.5 c 128,-1,116
 934 274 934 274 931 265 c 2,117,-1
 912 220 l 1,118,-1
 928 221 l 1,119,120
 937 236 937 236 941.5 247.5 c 128,-1,121
 946 259 946 259 954 276 c 0,122,123
 963 299 963 299 966.5 320 c 128,-1,124
 970 341 970 341 970 358 c 0,125,126
 970 432 970 432 916 498 c 2,127,-1
 873 551 l 1,128,-1
 848 579 l 1,129,-1
 830 602 l 2,130,131
 823 613 823 613 817.5 624.5 c 128,-1,132
 812 636 812 636 807 650 c 0,133,134
 801 664 801 664 798 680.5 c 128,-1,135
 795 697 795 697 793 717 c 1,136,-1
 774 717 l 1,73,-1
51 742 m 1,137,-1
 51 811 l 1,138,-1
 397 811 l 1,139,-1
 397 825 l 1,140,-1
 35 825 l 1,141,-1
 35 742 l 1,142,-1
 51 742 l 1,137,-1
484 803 m 1,143,-1
 484 810 l 1,144,145
 496 812 496 812 501.5 814 c 128,-1,146
 507 816 507 816 512 821 c 0,147,148
 516 826 516 826 520.5 833.5 c 128,-1,149
 525 841 525 841 525 847 c 0,150,151
 525 867 525 867 500 867 c 0,152,153
 489 867 489 867 482.5 861 c 128,-1,154
 476 855 476 855 468 843 c 1,155,-1
 461 843 l 1,156,157
 465 854 465 854 467.5 858.5 c 128,-1,158
 470 863 470 863 475 867 c 0,159,160
 489 879 489 879 504 879 c 128,-1,161
 519 879 519 879 530 870.5 c 128,-1,162
 541 862 541 862 541 848 c 0,163,164
 541 839 541 839 536 830 c 128,-1,165
 531 821 531 821 520 813 c 1,166,167
 528 810 528 810 529.5 808.5 c 128,-1,168
 531 807 531 807 536 804 c 1,169,170
 540 798 540 798 542.5 793 c 128,-1,171
 545 788 545 788 545 779 c 0,172,173
 545 754 545 754 527 742 c 0,174,175
 510 730 510 730 485 730 c 0,176,177
 461 730 461 730 461 741 c 0,178,179
 461 746 461 746 469 746 c 0,180,181
 472 746 472 746 474.5 745.5 c 128,-1,182
 477 745 477 745 482 743 c 0,183,184
 493 737 493 737 503 740 c 0,185,186
 514 744 514 744 520 749 c 128,-1,187
 526 754 526 754 528 768 c 0,188,189
 529 779 529 779 523 788.5 c 128,-1,190
 517 798 517 798 507 802 c 2,191,192
 506 803 506 803 498 803 c 2,193,-1
 484 803 l 1,143,-1
EndSplineSet
EndChar
StartChar: yen
Encoding: 165 165 104
Width: 512
GlyphClass: 2
Flags: W
Fore
226 -99 m 2,0,1
 183 -99 183 -99 143.5 -85 c 128,-1,2
 104 -71 104 -71 61 -40 c 1,3,4
 59 -40 59 -40 47.5 -21.5 c 128,-1,5
 36 -3 36 -3 24 18 c 128,-1,6
 12 39 12 39 5 54.5 c 128,-1,7
 -2 70 -2 70 5 63 c 1,8,9
 15 56 15 56 25.5 45 c 128,-1,10
 36 34 36 34 44.5 23 c 128,-1,11
 53 12 53 12 59.5 3.5 c 128,-1,12
 66 -5 66 -5 69 -8 c 0,13,14
 110 -41 110 -41 154 -53 c 128,-1,15
 198 -65 198 -65 241 -65 c 256,16,17
 284 -65 284 -65 324 -52 c 128,-1,18
 364 -39 364 -39 403 -10 c 0,19,20
 407 -8 407 -8 413.5 1 c 128,-1,21
 420 10 420 10 429 22 c 128,-1,22
 438 34 438 34 448.5 45.5 c 128,-1,23
 459 57 459 57 468 63 c 0,24,25
 477 68 477 68 469.5 52.5 c 128,-1,26
 462 37 462 37 449 16.5 c 128,-1,27
 436 -4 436 -4 424 -23 c 0,28,29
 414 -39 414 -39 413 -40 c 0,30,31
 372 -71 372 -71 333.5 -85 c 128,-1,32
 295 -99 295 -99 252 -99 c 2,33,-1
 226 -99 l 2,0,1
EndSplineSet
EndChar
StartChar: brokenbar
Encoding: 166 166 105
Width: 256
GlyphClass: 2
Flags: W
Fore
0 252 m 1,0,-1
 0 237 l 1,1,-1
 0 0 l 1,2,-1
 51 0 l 1,3,-1
 51 15 l 1,4,-1
 51 252 l 1,5,-1
 0 252 l 1,0,-1
0 717 m 1,6,-1
 0 701 l 1,7,-1
 0 465 l 1,8,-1
 51 465 l 1,9,-1
 51 480 l 1,10,-1
 51 717 l 1,11,-1
 0 717 l 1,6,-1
EndSplineSet
EndChar
StartChar: section
Encoding: 167 167 106
Width: 1536
GlyphClass: 2
Flags: W
Fore
1397 715 m 1,0,-1
 195 715 l 1,1,-1
 195 162 l 1,2,3
 172 178 172 178 141 178 c 0,4,5
 127 178 127 178 111.5 174.5 c 128,-1,6
 96 171 96 171 79 163 c 0,7,8
 60 154 60 154 46.5 142 c 128,-1,9
 33 130 33 130 23 117 c 0,10,11
 0 91 0 91 0 59 c 0,12,13
 0 35 0 35 23 15 c 1,14,15
 34 8 34 8 45.5 4 c 128,-1,16
 57 0 57 0 73 0 c 0,17,18
 103 0 103 0 137 15.5 c 128,-1,19
 171 31 171 31 193 58 c 0,20,21
 212 84 212 84 212 116 c 2,22,-1
 212 645 l 1,23,-1
 791 645 l 1,24,-1
 791 162 l 1,25,26
 776 170 776 170 763.5 174 c 128,-1,27
 751 178 751 178 735 178 c 0,28,29
 721 178 721 178 705 174.5 c 128,-1,30
 689 171 689 171 672 163 c 0,31,32
 655 153 655 153 641 141.5 c 128,-1,33
 627 130 627 130 615 117 c 0,34,35
 594 90 594 90 594 59 c 0,36,37
 594 34 594 34 615 15 c 1,38,39
 638 0 638 0 666 0 c 0,40,41
 698 0 698 0 732 15.5 c 128,-1,42
 766 31 766 31 786 58 c 0,43,44
 797 73 797 73 802.5 87 c 128,-1,45
 808 101 808 101 808 116 c 2,46,-1
 808 645 l 1,47,-1
 1379 645 l 1,48,-1
 1379 162 l 1,49,50
 1354 178 1354 178 1326 178 c 0,51,52
 1311 178 1311 178 1296 174.5 c 128,-1,53
 1281 171 1281 171 1261 163 c 0,54,55
 1226 143 1226 143 1207 117 c 0,56,57
 1184 90 1184 90 1184 59 c 0,58,59
 1184 36 1184 36 1207 15 c 1,60,61
 1230 0 1230 0 1257 0 c 0,62,63
 1287 0 1287 0 1321 15.5 c 128,-1,64
 1355 31 1355 31 1376 58 c 128,-1,65
 1397 85 1397 85 1397 116 c 2,66,-1
 1397 715 l 1,0,-1
EndSplineSet
EndChar
StartChar: ordfeminine
Encoding: 170 170 109
Width: 512
GlyphClass: 2
Flags: W
Fore
67 206 m 1,0,-1
 0 206 l 1,1,-1
 0 0 l 1,2,-1
 67 0 l 1,3,-1
 67 206 l 1,0,-1
386 0 m 1,4,-1
 451 0 l 1,5,-1
 451 206 l 1,6,-1
 386 206 l 1,7,-1
 386 0 l 1,4,-1
163 120 m 2,8,9
 163 155 163 155 172 167 c 0,10,11
 183 183 183 183 207 184 c 0,12,13
 237 184 237 184 263 157 c 0,14,15
 288 126 288 126 288 86 c 0,16,17
 288 63 288 63 285 54 c 0,18,19
 280 40 280 40 276 37 c 2,20,21
 268 24 268 24 244 19 c 1,22,23
 213 19 213 19 188 49 c 0,24,25
 182 57 182 57 178 64 c 128,-1,26
 174 71 174 71 170 79 c 0,27,28
 165 90 165 90 164 95 c 128,-1,29
 163 100 163 100 163 108 c 2,30,-1
 163 120 l 2,8,9
67 103 m 0,31,32
 67 68 67 68 94 46 c 0,33,34
 122 22 122 22 158 12 c 0,35,36
 170 10 170 10 179.5 8 c 128,-1,37
 189 6 189 6 197 6 c 1,38,39
 198 5 198 5 212 5 c 2,40,-1
 227 5 l 2,41,42
 244 5 244 5 261.5 7 c 128,-1,43
 279 9 279 9 297 15 c 0,44,45
 315 20 315 20 330.5 28 c 128,-1,46
 346 36 346 36 359 47 c 0,47,48
 386 68 386 68 386 103 c 0,49,50
 386 137 386 137 358 161 c 0,51,52
 344 172 344 172 327 179 c 128,-1,53
 310 186 310 186 293 190 c 0,54,55
 262 201 262 201 223 201 c 0,56,57
 206 201 206 201 156 189 c 0,58,59
 136 184 136 184 120 176 c 128,-1,60
 104 168 104 168 91 158 c 0,61,62
 67 136 67 136 67 103 c 0,31,32
EndSplineSet
EndChar
StartChar: guillemotleft
Encoding: 171 171 110
Width: 1024
GlyphClass: 2
Flags: W
Fore
968 739 m 1,0,-1
 984 739 l 1,1,-1
 984 826 l 1,2,-1
 611 826 l 1,3,-1
 611 811 l 1,4,-1
 968 811 l 1,5,-1
 968 739 l 1,0,-1
54 739 m 1,6,-1
 38 739 l 1,7,-1
 38 826 l 1,8,-1
 437 826 l 1,9,-1
 437 811 l 1,10,-1
 54 811 l 1,11,-1
 54 739 l 1,6,-1
514 811 m 1,12,-1
 527 811 l 2,13,14
 536 811 536 811 537 810 c 2,15,16
 547 806 547 806 553 796.5 c 128,-1,17
 559 787 559 787 558 776 c 0,18,19
 556 762 556 762 550 757.5 c 128,-1,20
 544 753 544 753 532 749 c 0,21,22
 522 745 522 745 512 752 c 1,23,24
 507 754 507 754 504.5 754.5 c 128,-1,25
 502 755 502 755 499 755 c 0,26,27
 490 755 490 755 490 750 c 0,28,29
 490 738 490 738 515 738 c 256,30,31
 540 738 540 738 557 751 c 0,32,33
 574 762 574 762 574 787 c 0,34,35
 574 797 574 797 571.5 801.5 c 128,-1,36
 569 806 569 806 565 812 c 1,37,38
 561 815 561 815 559.5 816.5 c 128,-1,39
 558 818 558 818 550 821 c 1,40,41
 561 829 561 829 565.5 838 c 128,-1,42
 570 847 570 847 570 856 c 0,43,44
 570 870 570 870 559.5 878.5 c 128,-1,45
 549 887 549 887 534 887 c 128,-1,46
 519 887 519 887 505 876 c 0,47,48
 500 871 500 871 497.5 866.5 c 128,-1,49
 495 862 495 862 490 851 c 1,50,-1
 498 851 l 1,51,52
 506 863 506 863 512.5 869.5 c 128,-1,53
 519 876 519 876 529 876 c 0,54,55
 555 876 555 876 555 855 c 0,56,57
 555 849 555 849 550.5 842 c 128,-1,58
 546 835 546 835 542 829 c 1,59,60
 537 824 537 824 531 822 c 128,-1,61
 525 820 525 820 514 818 c 1,62,-1
 514 811 l 1,12,-1
623 714 m 1,63,-1
 623 116 l 2,64,65
 623 85 623 85 602 58 c 0,66,67
 582 31 582 31 548 15.5 c 128,-1,68
 514 0 514 0 482 0 c 0,69,70
 456 0 456 0 432 17 c 0,71,72
 411 34 411 34 411 59 c 0,73,74
 411 89 411 89 432 117 c 0,75,76
 451 141 451 141 487 162 c 0,77,78
 506 171 506 171 522 174.5 c 128,-1,79
 538 178 538 178 551 178 c 0,80,81
 579 178 579 178 605 161 c 1,82,-1
 605 714 l 1,83,-1
 623 714 l 1,63,-1
100 184 m 1,84,85
 109 215 109 215 120.5 257 c 128,-1,86
 132 299 132 299 143.5 339.5 c 128,-1,87
 155 380 155 380 165.5 417 c 128,-1,88
 176 454 176 454 182 474.5 c 128,-1,89
 188 495 188 495 188 497 c 1,90,-1
 175 497 l 1,91,-1
 167 485 l 2,92,93
 159 475 159 475 146.5 462.5 c 128,-1,94
 134 450 134 450 120 440.5 c 128,-1,95
 106 431 106 431 94 434 c 0,96,97
 85 436 85 436 89.5 445 c 128,-1,98
 94 454 94 454 96 462 c 1,99,100
 96 479 96 479 87.5 494 c 128,-1,101
 79 509 79 509 61 514 c 0,102,103
 41 521 41 521 26.5 512 c 128,-1,104
 12 503 12 503 6 486.5 c 128,-1,105
 0 470 0 470 2.5 451 c 128,-1,106
 5 432 5 432 19 420 c 0,107,108
 36 406 36 406 53.5 404 c 128,-1,109
 71 402 71 402 87 408 c 128,-1,110
 103 414 103 414 118.5 425 c 128,-1,111
 134 436 134 436 147 449 c 1,112,113
 129 381 129 381 110.5 316.5 c 128,-1,114
 92 252 92 252 75 184 c 1,115,-1
 100 184 l 1,84,85
EndSplineSet
EndChar
StartChar: logicalnot
Encoding: 172 172 111
Width: 512
GlyphClass: 2
Flags: W
Fore
968 739 m 1,0,-1
 984 739 l 1,1,-1
 984 826 l 1,2,-1
 611 826 l 1,3,-1
 611 811 l 1,4,-1
 968 811 l 1,5,-1
 968 739 l 1,0,-1
54 739 m 1,6,-1
 38 739 l 1,7,-1
 38 826 l 1,8,-1
 437 826 l 1,9,-1
 437 811 l 1,10,-1
 54 811 l 1,11,-1
 54 739 l 1,6,-1
514 811 m 1,12,-1
 527 811 l 2,13,14
 536 811 536 811 537 810 c 2,15,16
 547 806 547 806 553 796.5 c 128,-1,17
 559 787 559 787 558 776 c 0,18,19
 556 762 556 762 550 757.5 c 128,-1,20
 544 753 544 753 532 749 c 0,21,22
 522 745 522 745 512 752 c 1,23,24
 507 754 507 754 504.5 754.5 c 128,-1,25
 502 755 502 755 499 755 c 0,26,27
 490 755 490 755 490 750 c 0,28,29
 490 738 490 738 515 738 c 256,30,31
 540 738 540 738 557 751 c 0,32,33
 574 762 574 762 574 787 c 0,34,35
 574 797 574 797 571.5 801.5 c 128,-1,36
 569 806 569 806 565 812 c 1,37,38
 561 815 561 815 559.5 816.5 c 128,-1,39
 558 818 558 818 550 821 c 1,40,41
 561 829 561 829 565.5 838 c 128,-1,42
 570 847 570 847 570 856 c 0,43,44
 570 870 570 870 559.5 878.5 c 128,-1,45
 549 887 549 887 534 887 c 128,-1,46
 519 887 519 887 505 876 c 0,47,48
 500 871 500 871 497.5 866.5 c 128,-1,49
 495 862 495 862 490 851 c 1,50,-1
 498 851 l 1,51,52
 506 863 506 863 512.5 869.5 c 128,-1,53
 519 876 519 876 529 876 c 0,54,55
 555 876 555 876 555 855 c 0,56,57
 555 849 555 849 550.5 842 c 128,-1,58
 546 835 546 835 542 829 c 1,59,60
 537 824 537 824 531 822 c 128,-1,61
 525 820 525 820 514 818 c 1,62,-1
 514 811 l 1,12,-1
212 714 m 1,63,-1
 212 116 l 2,64,65
 212 85 212 85 191 58 c 0,66,67
 171 31 171 31 137 15.5 c 128,-1,68
 103 0 103 0 72 0 c 0,69,70
 45 0 45 0 22 17 c 0,71,72
 0 34 0 34 0 59 c 0,73,74
 0 89 0 89 22 117 c 0,75,76
 40 141 40 141 77 162 c 0,77,78
 95 171 95 171 111 174.5 c 128,-1,79
 127 178 127 178 140 178 c 0,80,81
 168 178 168 178 195 161 c 1,82,-1
 195 714 l 1,83,-1
 212 714 l 1,63,-1
830 184 m 1,84,85
 839 215 839 215 850.5 257 c 128,-1,86
 862 299 862 299 873.5 339.5 c 128,-1,87
 885 380 885 380 895.5 417 c 128,-1,88
 906 454 906 454 912.5 474.5 c 128,-1,89
 919 495 919 495 919 497 c 1,90,-1
 905 497 l 1,91,-1
 897 485 l 2,92,93
 889 475 889 475 876.5 462.5 c 128,-1,94
 864 450 864 450 850.5 440.5 c 128,-1,95
 837 431 837 431 824 434 c 0,96,97
 815 436 815 436 819.5 445 c 128,-1,98
 824 454 824 454 826 462 c 1,99,100
 826 479 826 479 817.5 494 c 128,-1,101
 809 509 809 509 792 514 c 0,102,103
 771 521 771 521 756.5 512 c 128,-1,104
 742 503 742 503 736 486.5 c 128,-1,105
 730 470 730 470 732.5 451 c 128,-1,106
 735 432 735 432 750 420 c 0,107,108
 766 406 766 406 783.5 404 c 128,-1,109
 801 402 801 402 817.5 408 c 128,-1,110
 834 414 834 414 849 425 c 128,-1,111
 864 436 864 436 878 449 c 1,112,113
 859 381 859 381 840.5 316.5 c 128,-1,114
 822 252 822 252 805 184 c 1,115,-1
 830 184 l 1,84,85
EndSplineSet
EndChar
StartChar: uni00AD
Encoding: 173 173 112
Width: 256
GlyphClass: 2
Flags: W
Fore
0 179 m 1,0,-1
 130 179 l 1,1,-1
 130 128 l 1,2,-1
 0 128 l 1,3,-1
 0 179 l 1,0,-1
EndSplineSet
EndChar
StartChar: degree
Encoding: 176 176 115
Width: 256
GlyphClass: 2
Flags: W
Fore
81 309 m 0,0,1
 115 309 115 309 138 286 c 128,-1,2
 161 263 161 263 161 229 c 128,-1,3
 161 195 161 195 138 171.5 c 128,-1,4
 115 148 115 148 81 148 c 0,5,6
 46 148 46 148 23 171.5 c 128,-1,7
 0 195 0 195 0 229 c 128,-1,8
 0 263 0 263 23 286 c 128,-1,9
 46 309 46 309 81 309 c 0,0,1
81 288 m 0,10,11
 57 288 57 288 40 271.5 c 128,-1,12
 23 255 23 255 23 229 c 0,13,14
 23 204 23 204 39.5 186 c 128,-1,15
 56 168 56 168 81 168 c 0,16,17
 104 168 104 168 121.5 186 c 128,-1,18
 139 204 139 204 139 229 c 0,19,20
 139 255 139 255 121.5 271.5 c 128,-1,21
 104 288 104 288 81 288 c 0,10,11
EndSplineSet
EndChar
StartChar: plusminus
Encoding: 177 177 116
Width: 512
GlyphClass: 2
Flags: W
Fore
0 717 m 1,0,-1
 0 0 l 1,1,-1
 53 -1 l 1,2,-1
 53 716 l 1,3,-1
 0 717 l 1,0,-1
179 718 m 1,4,-1
 179 1 l 1,5,-1
 232 0 l 1,6,-1
 232 717 l 1,7,-1
 179 718 l 1,4,-1
EndSplineSet
EndChar
StartChar: twosuperior
Encoding: 178 178 117
Width: 256
GlyphClass: 2
Flags: W
Fore
224 112 m 1,0,-1
 224 80 l 1,1,-1
 175 80 l 1,2,-1
 175 0 l 1,3,-1
 136 0 l 1,4,-1
 136 80 l 1,5,-1
 0 80 l 1,6,-1
 0 112 l 1,7,-1
 153 329 l 1,8,-1
 175 329 l 1,9,-1
 175 112 l 1,10,-1
 224 112 l 1,0,-1
136 112 m 1,11,-1
 136 262 l 1,12,-1
 29 112 l 1,13,-1
 136 112 l 1,11,-1
32 373 m 1,14,-1
 32 392 l 1,15,16
 99 397 99 397 142 425.5 c 128,-1,17
 185 454 185 454 191 517 c 1,18,19
 167 503 167 503 146.5 498.5 c 128,-1,20
 126 494 126 494 109 494 c 0,21,22
 66 494 66 494 39.5 521.5 c 128,-1,23
 13 549 13 549 13 598 c 0,24,25
 13 650 13 650 41.5 680.5 c 128,-1,26
 70 711 70 711 116 711 c 0,27,28
 165 711 165 711 195 675 c 0,29,30
 209 655 209 655 217 627 c 128,-1,31
 225 599 225 599 225 568 c 0,32,33
 225 543 225 543 223.5 519.5 c 128,-1,34
 222 496 222 496 216.5 475.5 c 128,-1,35
 211 455 211 455 199 437 c 128,-1,36
 187 419 187 419 166 404 c 0,37,38
 154 395 154 395 136 389 c 128,-1,39
 118 383 118 383 99 379.5 c 128,-1,40
 80 376 80 376 62 374.5 c 128,-1,41
 44 373 44 373 32 373 c 1,14,-1
105 522 m 2,42,-1
 122 523 l 2,43,44
 127 523 127 523 136 525 c 128,-1,45
 145 527 145 527 154.5 531.5 c 128,-1,46
 164 536 164 536 172 541 c 128,-1,47
 180 546 180 546 183 551 c 1,48,49
 196 566 196 566 189 608 c 0,50,51
 184 647 184 647 163.5 665.5 c 128,-1,52
 143 684 143 684 116 684 c 128,-1,53
 89 684 89 684 68 663.5 c 128,-1,54
 47 643 47 643 45 603 c 0,55,56
 43 560 43 560 59.5 541.5 c 128,-1,57
 76 523 76 523 105 522 c 2,42,-1
EndSplineSet
EndChar
StartChar: threesuperior
Encoding: 179 179 118
Width: 768
GlyphClass: 2
Flags: W
Fore
683 520 m 1,0,-1
 456 520 l 1,1,-1
 456 116 l 2,2,3
 456 85 456 85 435 58 c 128,-1,4
 414 31 414 31 380 15.5 c 128,-1,5
 346 0 346 0 314 0 c 0,6,7
 287 0 287 0 264.5 16.5 c 128,-1,8
 242 33 242 33 242 60 c 0,9,10
 242 89 242 89 264 118 c 0,11,12
 284 143 284 143 319 164 c 1,13,14
 338 172 338 172 354 175.5 c 128,-1,15
 370 179 370 179 384 179 c 0,16,17
 412 179 412 179 438 162 c 1,18,-1
 438 520 l 1,19,-1
 213 520 l 1,20,-1
 213 116 l 2,21,22
 213 87 213 87 194 58 c 0,23,24
 172 31 172 31 138 15.5 c 128,-1,25
 104 0 104 0 73 0 c 0,26,27
 44 0 44 0 22 16 c 0,28,29
 0 33 0 33 0 60 c 0,30,31
 0 90 0 90 22 118 c 0,32,33
 32 129 32 129 46 141 c 128,-1,34
 60 153 60 153 78 164 c 0,35,36
 96 172 96 172 111.5 175.5 c 128,-1,37
 127 179 127 179 141 179 c 0,38,39
 172 179 172 179 196 162 c 1,40,-1
 196 717 l 1,41,-1
 700 717 l 1,42,-1
 700 116 l 2,43,44
 700 88 700 88 680 58 c 0,45,46
 658 31 658 31 624.5 15.5 c 128,-1,47
 591 0 591 0 559 0 c 0,48,49
 531 0 531 0 508.5 16.5 c 128,-1,50
 486 33 486 33 486 60 c 0,51,52
 486 92 486 92 509 118 c 0,53,54
 528 143 528 143 564 164 c 0,55,56
 583 172 583 172 598.5 175.5 c 128,-1,57
 614 179 614 179 629 179 c 0,58,59
 656 179 656 179 683 162 c 1,60,-1
 683 520 l 1,0,-1
683 587 m 1,61,-1
 683 647 l 1,62,-1
 456 647 l 1,63,-1
 456 587 l 1,64,-1
 683 587 l 1,61,-1
438 587 m 1,65,-1
 438 647 l 1,66,-1
 213 647 l 1,67,-1
 213 587 l 1,68,-1
 438 587 l 1,65,-1
EndSplineSet
EndChar
StartChar: mu
Encoding: 181 181 120
Width: 1024
GlyphClass: 2
Flags: W
Fore
37 744 m 1,0,-1
 37 811 l 1,1,-1
 419 811 l 1,2,-1
 419 825 l 1,3,-1
 22 825 l 1,4,-1
 22 744 l 1,5,-1
 37 744 l 1,0,-1
971 740 m 1,6,-1
 971 807 l 1,7,-1
 611 807 l 1,8,-1
 611 821 l 1,9,-1
 986 821 l 1,10,-1
 986 740 l 1,11,-1
 971 740 l 1,6,-1
936 715 m 1,12,-1
 919 715 l 1,13,-1
 919 161 l 1,14,15
 895 179 895 179 865 179 c 0,16,17
 851 179 851 179 835 175.5 c 128,-1,18
 819 172 819 172 802 163 c 0,19,20
 765 142 765 142 745 117 c 0,21,22
 724 89 724 89 724 60 c 0,23,24
 724 32 724 32 745 18 c 0,25,26
 767 0 767 0 796 0 c 0,27,28
 828 0 828 0 861.5 15.5 c 128,-1,29
 895 31 895 31 915 59 c 0,30,31
 927 73 927 73 931.5 86 c 128,-1,32
 936 99 936 99 936 116 c 2,33,-1
 936 715 l 1,12,-1
68 627 m 1,34,-1
 39 627 l 1,35,36
 60 597 60 597 72.5 571.5 c 128,-1,37
 85 546 85 546 85 524 c 0,38,39
 85 498 85 498 66.5 468.5 c 128,-1,40
 48 439 48 439 13 407 c 1,41,-1
 122 258 l 1,42,43
 106 267 106 267 92 271 c 128,-1,44
 78 275 78 275 66 275 c 0,45,46
 39 275 39 275 19 259 c 0,47,48
 11 251 11 251 5.5 239.5 c 128,-1,49
 0 228 0 228 0 214 c 0,50,51
 0 197 0 197 9 181 c 0,52,53
 13 173 13 173 17.5 164.5 c 128,-1,54
 22 156 22 156 30 148 c 2,55,56
 51 119 51 119 97 87 c 1,57,-1
 106 101 l 1,58,59
 96 110 96 110 90 120.5 c 128,-1,60
 84 131 84 131 79 141 c 1,61,62
 71 168 71 168 71 182 c 0,63,64
 72 194 72 194 75 201.5 c 128,-1,65
 78 209 78 209 82 216 c 0,66,67
 90 227 90 227 111 227 c 0,68,69
 127 227 127 227 139 223 c 1,70,71
 148 218 148 218 156 214.5 c 128,-1,72
 164 211 164 211 169 209 c 1,73,-1
 180 223 l 1,74,75
 175 228 175 228 170.5 235 c 128,-1,76
 166 242 166 242 161 249 c 1,77,78
 152 257 152 257 150 263 c 1,79,-1
 127 297 l 2,80,81
 110 330 110 330 110 352 c 0,82,83
 110 378 110 378 126 409.5 c 128,-1,84
 142 441 142 441 183 488 c 1,85,-1
 68 627 l 1,34,-1
492 627 m 1,86,-1
 462 627 l 1,87,88
 507 566 507 566 507 524 c 0,89,90
 507 472 507 472 436 407 c 1,91,-1
 545 258 l 1,92,93
 515 275 515 275 487 275 c 0,94,95
 461 275 461 275 441 259 c 0,96,97
 424 245 424 245 424 214 c 0,98,99
 424 195 424 195 431 181 c 0,100,101
 435 173 435 173 439.5 164.5 c 128,-1,102
 444 156 444 156 452 148 c 0,103,104
 466 131 466 131 483.5 116 c 128,-1,105
 501 101 501 101 520 87 c 1,106,-1
 529 101 l 1,107,108
 519 110 519 110 512.5 120.5 c 128,-1,109
 506 131 506 131 502 141 c 0,110,111
 493 163 493 163 493 182 c 1,112,113
 495 194 495 194 498 201.5 c 128,-1,114
 501 209 501 209 505 216 c 0,115,116
 513 227 513 227 534 227 c 0,117,118
 550 227 550 227 562 223 c 1,119,120
 570 218 570 218 578 214.5 c 128,-1,121
 586 211 586 211 591 209 c 1,122,-1
 603 223 l 1,123,124
 597 229 597 229 593 235.5 c 128,-1,125
 589 242 589 242 585 249 c 1,126,127
 574 259 574 259 572 263 c 2,128,-1
 550 297 l 2,129,130
 542 313 542 313 536.5 327 c 128,-1,131
 531 341 531 341 531 352 c 0,132,133
 531 377 531 377 548.5 409.5 c 128,-1,134
 566 442 566 442 606 488 c 1,135,-1
 492 627 l 1,86,-1
499 803 m 1,136,-1
 499 810 l 1,137,138
 510 812 510 812 515.5 814 c 128,-1,139
 521 816 521 816 526 821 c 0,140,141
 530 826 530 826 535 833.5 c 128,-1,142
 540 841 540 841 540 847 c 0,143,144
 540 867 540 867 514 867 c 0,145,146
 504 867 504 867 497 861 c 128,-1,147
 490 855 490 855 482 843 c 1,148,-1
 475 843 l 1,149,150
 479 854 479 854 481.5 858.5 c 128,-1,151
 484 863 484 863 489 867 c 0,152,153
 504 879 504 879 518 879 c 0,154,155
 534 879 534 879 544.5 870.5 c 128,-1,156
 555 862 555 862 555 848 c 0,157,158
 555 839 555 839 550.5 830 c 128,-1,159
 546 821 546 821 535 813 c 1,160,161
 543 810 543 810 544.5 808.5 c 128,-1,162
 546 807 546 807 550 804 c 1,163,164
 554 798 554 798 556.5 793 c 128,-1,165
 559 788 559 788 559 779 c 0,166,167
 559 754 559 754 542 742 c 0,168,169
 524 730 524 730 500 730 c 0,170,171
 475 730 475 730 475 741 c 0,172,173
 475 746 475 746 483 746 c 0,174,175
 486 746 486 746 489 745.5 c 128,-1,176
 492 745 492 745 497 743 c 1,177,178
 507 737 507 737 517 740 c 0,179,180
 528 744 528 744 534.5 749 c 128,-1,181
 541 754 541 754 543 768 c 0,182,183
 544 779 544 779 537.5 788.5 c 128,-1,184
 531 798 531 798 521 802 c 2,185,186
 520 803 520 803 512 803 c 2,187,-1
 499 803 l 1,136,-1
EndSplineSet
EndChar
StartChar: paragraph
Encoding: 182 182 121
Width: 1024
GlyphClass: 2
Flags: W
Fore
48 744 m 1,0,-1
 48 811 l 1,1,-1
 422 811 l 1,2,-1
 422 825 l 1,3,-1
 32 825 l 1,4,-1
 32 744 l 1,5,-1
 48 744 l 1,0,-1
971 744 m 1,6,-1
 971 811 l 1,7,-1
 611 811 l 1,8,-1
 611 825 l 1,9,-1
 987 825 l 1,10,-1
 987 744 l 1,11,-1
 971 744 l 1,6,-1
829 626 m 1,12,-1
 799 626 l 1,13,14
 845 567 845 567 845 524 c 0,15,16
 845 469 845 469 773 407 c 1,17,-1
 882 258 l 1,18,19
 849 275 849 275 826 275 c 0,20,21
 801 275 801 275 779 260 c 1,22,23
 762 240 762 240 762 213 c 0,24,25
 762 195 762 195 769 181 c 2,26,27
 775 163 775 163 791 147 c 0,28,29
 813 119 813 119 857 87 c 1,30,-1
 866 101 l 1,31,32
 857 110 857 110 851 120 c 128,-1,33
 845 130 845 130 840 140 c 0,34,35
 830 162 830 162 830 182 c 0,36,37
 831 205 831 205 842 215 c 0,38,39
 853 226 853 226 870 226 c 128,-1,40
 887 226 887 226 898 222 c 1,41,42
 907 217 907 217 914.5 214 c 128,-1,43
 922 211 922 211 929 208 c 1,44,-1
 940 222 l 1,45,46
 935 228 935 228 930 234.5 c 128,-1,47
 925 241 925 241 920 248 c 1,48,49
 915 253 915 253 912.5 257 c 128,-1,50
 910 261 910 261 908 263 c 1,51,-1
 886 297 l 2,52,53
 868 330 868 330 868 352 c 0,54,55
 868 377 868 377 886 410 c 0,56,57
 894 424 894 424 908.5 443.5 c 128,-1,58
 923 463 923 463 944 486 c 1,59,-1
 829 626 l 1,12,-1
587 714 m 1,60,-1
 568 714 l 1,61,-1
 568 161 l 1,62,63
 542 178 542 178 514 178 c 0,64,65
 502 178 502 178 485 174 c 128,-1,66
 468 170 468 170 451 162 c 128,-1,67
 434 154 434 154 419 142.5 c 128,-1,68
 404 131 404 131 395 117 c 0,69,70
 384 102 384 102 378.5 89 c 128,-1,71
 373 76 373 76 373 59 c 0,72,73
 373 34 373 34 395 17 c 0,74,75
 407 9 407 9 418.5 4.5 c 128,-1,76
 430 0 430 0 445 0 c 0,77,78
 470 0 470 0 495 9 c 128,-1,79
 520 18 520 18 540.5 34 c 128,-1,80
 561 50 561 50 574 71 c 128,-1,81
 587 92 587 92 587 116 c 2,82,-1
 587 714 l 1,60,-1
212 714 m 1,83,-1
 195 714 l 1,84,-1
 195 161 l 1,85,86
 168 178 168 178 140 178 c 0,87,88
 127 178 127 178 111 174.5 c 128,-1,89
 95 171 95 171 77 162 c 0,90,91
 41 142 41 142 22 117 c 0,92,93
 0 89 0 89 0 59 c 0,94,95
 0 34 0 34 22 17 c 0,96,97
 45 0 45 0 72 0 c 0,98,99
 103 0 103 0 137 15.5 c 128,-1,100
 171 31 171 31 191 58 c 0,101,102
 212 85 212 85 212 116 c 2,103,-1
 212 714 l 1,83,-1
488 810 m 1,104,-1
 488 817 l 1,105,106
 500 819 500 819 505.5 821 c 128,-1,107
 511 823 511 823 516 828 c 1,108,109
 520 834 520 834 524.5 841 c 128,-1,110
 529 848 529 848 529 854 c 0,111,112
 529 874 529 874 504 874 c 0,113,114
 494 874 494 874 487 868 c 128,-1,115
 480 862 480 862 472 850 c 1,116,-1
 465 850 l 1,117,118
 469 861 469 861 471.5 865.5 c 128,-1,119
 474 870 474 870 479 874 c 0,120,121
 494 886 494 886 508 886 c 0,122,123
 523 886 523 886 534 877.5 c 128,-1,124
 545 869 545 869 545 855 c 0,125,126
 545 846 545 846 540.5 837 c 128,-1,127
 536 828 536 828 524 820 c 1,128,129
 532 817 532 817 534 815.5 c 128,-1,130
 536 814 536 814 540 811 c 1,131,132
 544 805 544 805 546.5 800.5 c 128,-1,133
 549 796 549 796 549 786 c 0,134,135
 549 761 549 761 531 750 c 0,136,137
 514 737 514 737 489 737 c 0,138,139
 465 737 465 737 465 749 c 0,140,141
 465 754 465 754 473 754 c 0,142,143
 476 754 476 754 478.5 753.5 c 128,-1,144
 481 753 481 753 486 751 c 1,145,146
 497 744 497 744 507 748 c 0,147,148
 518 752 518 752 524 756.5 c 128,-1,149
 530 761 530 761 532 775 c 0,150,151
 534 786 534 786 527.5 795.5 c 128,-1,152
 521 805 521 805 511 809 c 2,153,154
 510 810 510 810 502 810 c 2,155,-1
 488 810 l 1,104,-1
EndSplineSet
EndChar
StartChar: onesuperior
Encoding: 185 185 124
Width: 1024
GlyphClass: 2
Flags: W
Fore
98 808 m 2,0,-1
 98 730 l 1,1,-1
 77 730 l 1,2,-1
 77 751 l 1,3,4
 69 741 69 741 60 735.5 c 128,-1,5
 51 730 51 730 37 730 c 0,6,7
 19 730 19 730 9.5 741.5 c 128,-1,8
 0 753 0 753 0 766 c 0,9,10
 0 790 0 790 14 799 c 128,-1,11
 28 808 28 808 77 808 c 1,12,-1
 77 819 l 2,13,14
 77 827 77 827 74 833 c 128,-1,15
 71 839 71 839 51 839 c 2,16,-1
 20 839 l 1,17,-1
 20 856 l 1,18,-1
 57 856 l 2,19,20
 87 856 87 856 92.5 842 c 128,-1,21
 98 828 98 828 98 808 c 2,0,-1
77 788 m 1,22,-1
 76 790 l 1,23,24
 53 790 53 790 36.5 788 c 128,-1,25
 20 786 20 786 20 767 c 0,26,27
 20 756 20 756 27.5 753.5 c 128,-1,28
 35 751 35 751 43 751 c 0,29,30
 56 751 56 751 65.5 758 c 128,-1,31
 75 765 75 765 77 773 c 2,32,33
 78 774 78 774 77.5 777.5 c 128,-1,34
 77 781 77 781 77 783 c 2,35,-1
 77 788 l 1,22,-1
265 903 m 1,36,-1
 265 856 l 1,37,-1
 298 856 l 1,38,-1
 298 839 l 1,39,-1
 265 839 l 1,40,-1
 265 773 l 2,41,42
 265 751 265 751 281 751 c 0,43,44
 286 751 286 751 291.5 750.5 c 128,-1,45
 297 750 297 750 298 751 c 1,46,-1
 298 730 l 1,47,-1
 275 730 l 2,48,49
 262 730 262 730 252 740 c 1,50,51
 244 752 244 752 244 773 c 2,52,-1
 244 839 l 1,53,-1
 218 839 l 1,54,-1
 218 856 l 1,55,-1
 244 856 l 1,56,-1
 244 903 l 1,57,-1
 265 903 l 1,36,-1
365 790 m 1,58,-1
 358 790 l 1,59,60
 358 767 358 767 371 759 c 128,-1,61
 384 751 384 751 400 751 c 2,62,-1
 440 751 l 1,63,-1
 440 730 l 1,64,-1
 395 730 l 2,65,66
 366 730 366 730 351.5 747 c 128,-1,67
 337 764 337 764 337 794 c 0,68,69
 337 821 337 821 351.5 838.5 c 128,-1,70
 366 856 366 856 393 856 c 0,71,72
 424 856 424 856 432 841 c 128,-1,73
 440 826 440 826 440 808 c 2,74,-1
 440 790 l 1,75,-1
 365 790 l 1,58,-1
419 808 m 1,76,77
 419 819 419 819 415.5 829 c 128,-1,78
 412 839 412 839 392 839 c 0,79,80
 378 839 378 839 368 830 c 128,-1,81
 358 821 358 821 358 808 c 1,82,-1
 419 808 l 1,76,77
485 825 m 1,83,-1
 485 856 l 1,84,-1
 508 856 l 1,85,-1
 508 839 l 1,86,87
 513 848 513 848 520.5 852 c 128,-1,88
 528 856 528 856 545 856 c 0,89,90
 556 856 556 856 566.5 852 c 128,-1,91
 577 848 577 848 582 837 c 1,92,93
 587 848 587 848 598 852 c 128,-1,94
 609 856 609 856 626 856 c 0,95,96
 632 856 632 856 639 854.5 c 128,-1,97
 646 853 646 853 652 848 c 128,-1,98
 658 843 658 843 662 833 c 128,-1,99
 666 823 666 823 666 808 c 2,100,-1
 666 730 l 1,101,-1
 642 730 l 1,102,-1
 642 806 l 2,103,104
 642 824 642 824 637.5 831.5 c 128,-1,105
 633 839 633 839 620 839 c 0,106,107
 597 839 597 839 588 816 c 0,108,109
 587 813 587 813 586.5 807 c 128,-1,110
 586 801 586 801 586 799 c 2,111,-1
 586 730 l 1,112,-1
 564 730 l 1,113,-1
 564 808 l 2,114,115
 564 825 564 825 559.5 832 c 128,-1,116
 555 839 555 839 542 839 c 0,117,118
 532 839 532 839 521 830 c 128,-1,119
 510 821 510 821 508 813 c 2,120,121
 507 811 507 811 507.5 806.5 c 128,-1,122
 508 802 508 802 508 798 c 2,123,-1
 508 730 l 1,124,-1
 485 730 l 1,125,-1
 485 825 l 1,83,-1
716 819 m 1,126,-1
 716 840 l 2,127,128
 716 845 716 845 716.5 848 c 128,-1,129
 717 851 717 851 716 856 c 1,130,-1
 737 856 l 1,131,-1
 737 839 l 1,132,133
 745 850 745 850 757.5 853 c 128,-1,134
 770 856 770 856 784 856 c 0,135,136
 807 856 807 856 821.5 841 c 128,-1,137
 836 826 836 826 836 799 c 0,138,139
 836 764 836 764 818 747 c 128,-1,140
 800 730 800 730 777 730 c 0,141,142
 766 730 766 730 755 735.5 c 128,-1,143
 744 741 744 741 739 750 c 1,144,-1
 737 750 l 1,145,-1
 737 682 l 1,146,-1
 716 682 l 1,147,-1
 716 819 l 1,126,-1
737 792 m 1,148,-1
 737 784 l 2,149,150
 736 775 736 775 748.5 763 c 128,-1,151
 761 751 761 751 772 751 c 0,152,153
 793 751 793 751 803.5 763.5 c 128,-1,154
 814 776 814 776 814 798 c 0,155,156
 814 817 814 817 807 828 c 128,-1,157
 800 839 800 839 781 839 c 0,158,159
 770 839 770 839 756.5 831 c 128,-1,160
 743 823 743 823 739 810 c 0,161,162
 738 806 738 806 737 804 c 1,163,-1
 737 802 l 1,164,-1
 737 796 l 1,165,-1
 737 792 l 1,148,-1
938 730 m 0,166,167
 911 730 911 730 894.5 747.5 c 128,-1,168
 878 765 878 765 878 795 c 0,169,170
 878 827 878 827 896 841.5 c 128,-1,171
 914 856 914 856 941 856 c 256,172,173
 968 856 968 856 984 842 c 128,-1,174
 1000 828 1000 828 1000 799 c 0,175,176
 1000 764 1000 764 981 747 c 128,-1,177
 962 730 962 730 938 730 c 0,166,167
935 751 m 2,178,-1
 941 751 l 2,179,180
 957 751 957 751 968.5 763 c 128,-1,181
 980 775 980 775 980 797 c 0,182,183
 980 813 980 813 972 826 c 128,-1,184
 964 839 964 839 942 839 c 0,185,186
 923 839 923 839 911 826.5 c 128,-1,187
 899 814 899 814 899 797 c 0,188,189
 899 775 899 775 909 763 c 128,-1,190
 919 751 919 751 935 751 c 2,178,-1
EndSplineSet
EndChar
StartChar: ordmasculine
Encoding: 186 186 125
Width: 512
GlyphClass: 2
Flags: W
Fore
230 716 m 1,0,-1
 230 528 l 1,1,-1
 230 162 l 1,2,3
 214 178 214 178 170 178 c 0,4,5
 142 178 142 178 109 163 c 0,6,7
 91 155 91 155 78.5 143.5 c 128,-1,8
 66 132 66 132 55 120 c 0,9,10
 44 106 44 106 39.5 91.5 c 128,-1,11
 35 77 35 77 35 61 c 0,12,13
 35 31 35 31 56 15 c 0,14,15
 76 0 76 0 108 0 c 0,16,17
 141 0 141 0 174 15 c 0,18,19
 212 33 212 33 225 55 c 0,20,21
 248 84 248 84 248 116 c 2,22,-1
 248 522 l 1,23,24
 260 522 260 522 276 517 c 128,-1,25
 292 512 292 512 306 504 c 0,26,27
 333 490 333 490 355 462 c 0,28,29
 380 436 380 436 390 404 c 0,30,31
 398 381 398 381 398 380 c 0,32,33
 399 376 399 376 399.5 372 c 128,-1,34
 400 368 400 368 402 364 c 1,35,-1
 402 343 l 1,36,-1
 401 331 l 1,37,-1
 398 303 l 2,38,39
 396 292 396 292 393 282.5 c 128,-1,40
 390 273 390 273 387 264 c 2,41,-1
 370 219 l 1,42,-1
 385 220 l 1,43,44
 393 234 393 234 397.5 246 c 128,-1,45
 402 258 402 258 410 275 c 0,46,47
 419 298 419 298 422 319 c 128,-1,48
 425 340 425 340 425 357 c 0,49,50
 425 430 425 430 374 497 c 2,51,-1
 329 549 l 1,52,-1
 304 579 l 1,53,-1
 287 600 l 2,54,55
 271 622 271 622 264 647 c 0,56,57
 259 662 259 662 254.5 678.5 c 128,-1,58
 250 695 250 695 248 716 c 1,59,-1
 230 716 l 1,0,-1
334 727 m 1,60,61
 326 800 326 800 284 854 c 0,62,63
 265 879 265 879 232 893 c 0,64,65
 218 900 218 900 201 904 c 128,-1,66
 184 908 184 908 166 908 c 0,67,68
 150 908 150 908 134 904 c 128,-1,69
 118 900 118 900 103 893 c 0,70,71
 74 880 74 880 50 853 c 0,72,73
 40 840 40 840 31.5 825.5 c 128,-1,74
 23 811 23 811 15 795 c 0,75,76
 3 764 3 764 0 727 c 1,77,-1
 16 727 l 1,78,79
 16 740 16 740 17 741 c 1,80,81
 17 744 17 744 18 747.5 c 128,-1,82
 19 751 19 751 20 754 c 0,83,84
 23 761 23 761 25.5 766.5 c 128,-1,85
 28 772 28 772 30 777 c 1,86,87
 52 813 52 813 89.5 834 c 128,-1,88
 127 855 127 855 166 855 c 0,89,90
 184 855 184 855 203 852 c 0,91,92
 210 850 210 850 218.5 847 c 128,-1,93
 227 844 227 844 236 837 c 2,94,95
 254 829 254 829 268.5 818 c 128,-1,96
 283 807 283 807 294 792 c 0,97,98
 315 762 315 762 315 727 c 1,99,-1
 334 727 l 1,60,61
195 754 m 0,100,101
 195 760 195 760 186 771 c 1,102,103
 178 777 178 777 166 777 c 0,104,105
 164 777 164 777 160.5 776 c 128,-1,106
 157 775 157 775 152 775 c 1,107,108
 145 773 145 773 145 771 c 1,109,110
 138 764 138 764 138 754 c 0,111,112
 138 740 138 740 145 734 c 1,113,114
 156 727 156 727 166 727 c 0,115,116
 179 727 179 727 186 734 c 0,117,118
 195 742 195 742 195 754 c 0,100,101
EndSplineSet
EndChar
StartChar: guillemotright
Encoding: 187 187 126
Width: 1024
GlyphClass: 2
Flags: W
Fore
968 739 m 1,0,-1
 984 739 l 1,1,-1
 984 826 l 1,2,-1
 611 826 l 1,3,-1
 611 811 l 1,4,-1
 968 811 l 1,5,-1
 968 739 l 1,0,-1
195 714 m 1,6,-1
 212 714 l 1,7,8
 214 695 214 695 218 677.5 c 128,-1,9
 222 660 222 660 228 646 c 0,10,11
 232 633 232 633 238 621 c 128,-1,12
 244 609 244 609 251 598 c 1,13,-1
 269 578 l 1,14,-1
 293 547 l 1,15,-1
 337 495 l 2,16,17
 389 428 389 428 389 357 c 0,18,19
 389 339 389 339 386 318.5 c 128,-1,20
 383 298 383 298 374 275 c 0,21,22
 367 258 367 258 362 245.5 c 128,-1,23
 357 233 357 233 349 219 c 1,24,-1
 333 219 l 1,25,-1
 350 264 l 2,26,27
 354 274 354 274 356.5 283.5 c 128,-1,28
 359 293 359 293 361 302 c 2,29,-1
 367 331 l 1,30,-1
 367 342 l 1,31,-1
 367 364 l 1,32,33
 364 371 364 371 364 380 c 1,34,35
 360 387 360 387 354 404 c 0,36,37
 348 420 348 420 340 433.5 c 128,-1,38
 332 447 332 447 319 461 c 0,39,40
 297 489 297 489 270 503 c 0,41,42
 256 511 256 511 240 516 c 128,-1,43
 224 521 224 521 212 521 c 1,44,-1
 212 117 l 2,45,46
 212 84 212 84 191 57 c 0,47,48
 173 32 173 32 138 16 c 0,49,50
 106 0 106 0 73 0 c 0,51,52
 41 0 41 0 22 16 c 0,53,54
 0 30 0 30 0 62 c 128,-1,55
 0 94 0 94 19 120 c 0,56,57
 40 147 40 147 74 163 c 128,-1,58
 108 179 108 179 134 179 c 0,59,60
 177 179 177 179 195 162 c 1,61,-1
 195 527 l 1,62,-1
 195 714 l 1,6,-1
54 739 m 1,63,-1
 38 739 l 1,64,-1
 38 826 l 1,65,-1
 437 826 l 1,66,-1
 437 811 l 1,67,-1
 54 811 l 1,68,-1
 54 739 l 1,63,-1
514 811 m 1,69,-1
 527 811 l 2,70,71
 536 811 536 811 537 810 c 2,72,73
 547 806 547 806 553 796.5 c 128,-1,74
 559 787 559 787 558 776 c 0,75,76
 556 762 556 762 550 757.5 c 128,-1,77
 544 753 544 753 532 749 c 0,78,79
 522 745 522 745 512 752 c 1,80,81
 507 754 507 754 504.5 754.5 c 128,-1,82
 502 755 502 755 499 755 c 0,83,84
 490 755 490 755 490 750 c 0,85,86
 490 738 490 738 515 738 c 256,87,88
 540 738 540 738 557 751 c 0,89,90
 574 762 574 762 574 787 c 0,91,92
 574 797 574 797 571.5 801.5 c 128,-1,93
 569 806 569 806 565 812 c 1,94,95
 561 815 561 815 559.5 816.5 c 128,-1,96
 558 818 558 818 550 821 c 1,97,98
 561 829 561 829 565.5 838 c 128,-1,99
 570 847 570 847 570 856 c 0,100,101
 570 870 570 870 559.5 878.5 c 128,-1,102
 549 887 549 887 534 887 c 128,-1,103
 519 887 519 887 505 876 c 0,104,105
 500 871 500 871 497.5 866.5 c 128,-1,106
 495 862 495 862 490 851 c 1,107,-1
 498 851 l 1,108,109
 506 863 506 863 512.5 869.5 c 128,-1,110
 519 876 519 876 529 876 c 0,111,112
 555 876 555 876 555 855 c 0,113,114
 555 849 555 849 550.5 842 c 128,-1,115
 546 835 546 835 542 829 c 1,116,117
 537 824 537 824 531 822 c 128,-1,118
 525 820 525 820 514 818 c 1,119,-1
 514 811 l 1,69,-1
623 714 m 1,120,-1
 623 116 l 2,121,122
 623 85 623 85 602 58 c 0,123,124
 582 31 582 31 548 15.5 c 128,-1,125
 514 0 514 0 482 0 c 0,126,127
 456 0 456 0 432 17 c 0,128,129
 411 34 411 34 411 59 c 0,130,131
 411 89 411 89 432 117 c 0,132,133
 451 141 451 141 487 162 c 0,134,135
 506 171 506 171 522 174.5 c 128,-1,136
 538 178 538 178 551 178 c 0,137,138
 579 178 579 178 605 161 c 1,139,-1
 605 714 l 1,140,-1
 623 714 l 1,120,-1
EndSplineSet
EndChar
StartChar: onequarter
Encoding: 188 188 127
Width: 1024
GlyphClass: 3
Flags: W
Fore
968 739 m 1,0,-1
 984 739 l 1,1,-1
 984 826 l 1,2,-1
 611 826 l 1,3,-1
 611 811 l 1,4,-1
 968 811 l 1,5,-1
 968 739 l 1,0,-1
770 714 m 1,6,-1
 787 714 l 1,7,8
 790 695 790 695 794 677.5 c 128,-1,9
 798 660 798 660 804 646 c 0,10,11
 808 633 808 633 813.5 621 c 128,-1,12
 819 609 819 609 826 598 c 1,13,-1
 845 578 l 1,14,-1
 868 547 l 1,15,-1
 912 495 l 2,16,17
 965 428 965 428 965 357 c 0,18,19
 965 339 965 339 961.5 318.5 c 128,-1,20
 958 298 958 298 949 275 c 0,21,22
 942 258 942 258 937.5 245.5 c 128,-1,23
 933 233 933 233 925 219 c 1,24,-1
 908 219 l 1,25,-1
 926 264 l 2,26,27
 930 274 930 274 932.5 283.5 c 128,-1,28
 935 293 935 293 937 302 c 2,29,-1
 942 331 l 1,30,-1
 942 342 l 1,31,-1
 942 364 l 1,32,33
 939 371 939 371 939 380 c 1,34,35
 936 387 936 387 930 404 c 0,36,37
 924 420 924 420 915.5 433.5 c 128,-1,38
 907 447 907 447 895 461 c 0,39,40
 872 489 872 489 846 503 c 0,41,42
 831 511 831 511 815.5 516 c 128,-1,43
 800 521 800 521 787 521 c 1,44,-1
 787 117 l 2,45,46
 787 84 787 84 767 57 c 0,47,48
 749 32 749 32 714 16 c 0,49,50
 682 0 682 0 648 0 c 0,51,52
 616 0 616 0 597 16 c 0,53,54
 575 30 575 30 575 62 c 128,-1,55
 575 94 575 94 595 120 c 0,56,57
 615 147 615 147 649 163 c 128,-1,58
 683 179 683 179 710 179 c 0,59,60
 753 179 753 179 770 162 c 1,61,-1
 770 527 l 1,62,-1
 770 714 l 1,6,-1
54 739 m 1,63,-1
 38 739 l 1,64,-1
 38 826 l 1,65,-1
 437 826 l 1,66,-1
 437 811 l 1,67,-1
 54 811 l 1,68,-1
 54 739 l 1,63,-1
514 811 m 1,69,-1
 527 811 l 2,70,71
 536 811 536 811 537 810 c 2,72,73
 547 806 547 806 553 796.5 c 128,-1,74
 559 787 559 787 558 776 c 0,75,76
 556 762 556 762 550 757.5 c 128,-1,77
 544 753 544 753 532 749 c 0,78,79
 522 745 522 745 512 752 c 1,80,81
 507 754 507 754 504.5 754.5 c 128,-1,82
 502 755 502 755 499 755 c 0,83,84
 490 755 490 755 490 750 c 0,85,86
 490 738 490 738 515 738 c 256,87,88
 540 738 540 738 557 751 c 0,89,90
 574 762 574 762 574 787 c 0,91,92
 574 797 574 797 571.5 801.5 c 128,-1,93
 569 806 569 806 565 812 c 1,94,95
 561 815 561 815 559.5 816.5 c 128,-1,96
 558 818 558 818 550 821 c 1,97,98
 561 829 561 829 565.5 838 c 128,-1,99
 570 847 570 847 570 856 c 0,100,101
 570 870 570 870 559.5 878.5 c 128,-1,102
 549 887 549 887 534 887 c 128,-1,103
 519 887 519 887 505 876 c 0,104,105
 500 871 500 871 497.5 866.5 c 128,-1,106
 495 862 495 862 490 851 c 1,107,-1
 498 851 l 1,108,109
 506 863 506 863 512.5 869.5 c 128,-1,110
 519 876 519 876 529 876 c 0,111,112
 555 876 555 876 555 855 c 0,113,114
 555 849 555 849 550.5 842 c 128,-1,115
 546 835 546 835 542 829 c 1,116,117
 537 824 537 824 531 822 c 128,-1,118
 525 820 525 820 514 818 c 1,119,-1
 514 811 l 1,69,-1
212 714 m 1,120,-1
 212 116 l 2,121,122
 212 85 212 85 191 58 c 0,123,124
 171 31 171 31 137 15.5 c 128,-1,125
 103 0 103 0 72 0 c 0,126,127
 45 0 45 0 22 17 c 0,128,129
 0 34 0 34 0 59 c 0,130,131
 0 89 0 89 22 117 c 0,132,133
 40 141 40 141 77 162 c 0,134,135
 95 171 95 171 111 174.5 c 128,-1,136
 127 178 127 178 140 178 c 0,137,138
 168 178 168 178 195 161 c 1,139,-1
 195 714 l 1,140,-1
 212 714 l 1,120,-1
EndSplineSet
Ligature2: "'frac' Diagonal Fractions in Latin lookup 0 subtable" one slash four
EndChar
StartChar: onehalf
Encoding: 189 189 128
Width: 256
GlyphClass: 3
Flags: W
Fore
20 127 m 1,0,-1
 102 143 l 1,1,-1
 102 72 l 1,2,-1
 20 53 l 1,3,-1
 20 127 l 1,0,-1
0 -2 m 1,4,-1
 102 16 l 1,5,-1
 102 -98 l 1,6,-1
 125 -98 l 1,7,-1
 125 203 l 1,8,-1
 20 180 l 1,9,-1
 20 299 l 1,10,-1
 0 299 l 1,11,-1
 0 -2 l 1,4,-1
EndSplineSet
Ligature2: "'frac' Diagonal Fractions in Latin lookup 0 subtable" one slash two
EndChar
StartChar: threequarters
Encoding: 190 190 129
Width: 1024
GlyphClass: 3
Flags: W
Fore
802 519 m 1,0,-1
 924 519 l 1,1,-1
 924 162 l 1,2,3
 897 179 897 179 869 179 c 0,4,5
 855 179 855 179 839 175.5 c 128,-1,6
 823 172 823 172 805 164 c 0,7,8
 771 143 771 143 750 118 c 0,9,10
 728 90 728 90 728 60 c 0,11,12
 728 33 728 33 750 16 c 0,13,14
 772 0 772 0 801 0 c 0,15,16
 831 0 831 0 865 15.5 c 128,-1,17
 899 31 899 31 921 58 c 0,18,19
 941 85 941 85 941 116 c 2,20,-1
 941 717 l 1,21,-1
 196 717 l 1,22,-1
 196 162 l 1,23,24
 172 179 172 179 141 179 c 0,25,26
 127 179 127 179 111.5 175.5 c 128,-1,27
 96 172 96 172 78 164 c 0,28,29
 60 153 60 153 46 141 c 128,-1,30
 32 129 32 129 22 118 c 0,31,32
 0 90 0 90 0 60 c 0,33,34
 0 33 0 33 22 16 c 0,35,36
 44 0 44 0 73 0 c 0,37,38
 104 0 104 0 138 15.5 c 128,-1,39
 172 31 172 31 194 58 c 0,40,41
 213 87 213 87 213 114 c 2,42,-1
 213 519 l 1,43,-1
 341 519 l 1,44,-1
 341 588 l 1,45,-1
 214 588 l 1,46,-1
 213 588 l 1,47,-1
 213 647 l 1,48,-1
 457 647 l 1,49,-1
 457 162 l 2,50,51
 457 154 457 154 451 156 c 128,-1,52
 445 158 445 158 436.5 163 c 128,-1,53
 428 168 428 168 418.5 173.5 c 128,-1,54
 409 179 409 179 401 179 c 0,55,56
 387 179 387 179 371.5 175.5 c 128,-1,57
 356 172 356 172 338 164 c 0,58,59
 302 143 302 143 283 118 c 0,60,61
 260 92 260 92 260 60 c 0,62,63
 260 33 260 33 282.5 16.5 c 128,-1,64
 305 0 305 0 333 0 c 0,65,66
 365 0 365 0 398.5 15.5 c 128,-1,67
 432 31 432 31 454 58 c 0,68,69
 474 88 474 88 474 116 c 2,70,-1
 474 647 l 1,71,-1
 924 647 l 1,72,-1
 924 588 l 1,73,-1
 802 588 l 1,74,-1
 802 519 l 1,0,-1
EndSplineSet
Ligature2: "'frac' Diagonal Fractions in Latin lookup 0 subtable" three slash four
EndChar
StartChar: Agrave
Encoding: 192 192 131
Width: 512
GlyphClass: 2
Flags: W
Fore
252 172 m 1,0,-1
 252 171 l 1,1,2
 282 148 282 148 301.5 128.5 c 128,-1,3
 321 109 321 109 321 79 c 0,4,5
 321 41 321 41 295 20.5 c 128,-1,6
 269 0 269 0 223 0 c 0,7,8
 180 0 180 0 151 18.5 c 128,-1,9
 122 37 122 37 122 75 c 0,10,11
 122 87 122 87 125.5 97.5 c 128,-1,12
 129 108 129 108 137.5 118 c 128,-1,13
 146 128 146 128 160 139.5 c 128,-1,14
 174 151 174 151 195 166 c 1,15,16
 174 182 174 182 162.5 193.5 c 128,-1,17
 151 205 151 205 144.5 215 c 128,-1,18
 138 225 138 225 136 235 c 128,-1,19
 134 245 134 245 134 257 c 0,20,21
 134 290 134 290 160.5 311.5 c 128,-1,22
 187 333 187 333 226 333 c 0,23,24
 263 333 263 333 287 314 c 128,-1,25
 311 295 311 295 311 263 c 0,26,27
 311 239 311 239 300.5 216 c 128,-1,28
 290 193 290 193 252 172 c 1,0,-1
247 130 m 2,29,-1
 219 150 l 1,30,31
 196 132 196 132 176 115 c 128,-1,32
 156 98 156 98 154 75 c 0,33,34
 153 62 153 62 159 52.5 c 128,-1,35
 165 43 165 43 175.5 37 c 128,-1,36
 186 31 186 31 199.5 28 c 128,-1,37
 213 25 213 25 227 25 c 0,38,39
 251 25 251 25 266.5 36.5 c 128,-1,40
 282 48 282 48 284 66 c 0,41,42
 285 76 285 76 284.5 83.5 c 128,-1,43
 284 91 284 91 279.5 98 c 128,-1,44
 275 105 275 105 267.5 112.5 c 128,-1,45
 260 120 260 120 247 130 c 2,29,-1
205 204 m 2,46,-1
 227 188 l 1,47,48
 252 206 252 206 266 222 c 128,-1,49
 280 238 280 238 278 259 c 0,50,51
 275 283 275 283 260.5 293 c 128,-1,52
 246 303 246 303 227 303 c 0,53,54
 204 303 204 303 185.5 292.5 c 128,-1,55
 167 282 167 282 167 262 c 128,-1,56
 167 242 167 242 174 231 c 128,-1,57
 181 220 181 220 205 204 c 2,46,-1
88 711 m 1,58,-1
 92 711 l 1,59,-1
 92 418 l 2,60,61
 92 400 92 400 100.5 396.5 c 128,-1,62
 109 393 109 393 138 393 c 1,63,-1
 138 382 l 1,64,-1
 4 382 l 1,65,-1
 4 393 l 1,66,67
 32 394 32 394 41 399 c 128,-1,68
 50 404 50 404 50 428 c 2,69,-1
 50 630 l 2,70,71
 50 641 50 641 49 650 c 128,-1,72
 48 659 48 659 42 663 c 0,73,74
 38 665 38 665 32 662.5 c 128,-1,75
 26 660 26 660 20 658 c 1,76,-1
 0 646 l 1,77,-1
 0 668 l 1,78,-1
 88 711 l 1,58,-1
404 418 m 1,79,-1
 404 381 l 1,80,-1
 196 381 l 1,81,-1
 196 387 l 1,82,-1
 259 466 l 2,83,84
 273 484 273 484 288.5 502.5 c 128,-1,85
 304 521 304 521 316.5 539 c 128,-1,86
 329 557 329 557 337 574 c 128,-1,87
 345 591 345 591 345 606 c 0,88,89
 345 637 345 637 326 656 c 128,-1,90
 307 675 307 675 275 675 c 0,91,92
 251 675 251 675 239.5 663 c 128,-1,93
 228 651 228 651 214 613 c 1,94,-1
 196 613 l 1,95,96
 202 640 202 640 208.5 654 c 128,-1,97
 215 668 215 668 226 681 c 0,98,99
 254 711 254 711 297 711 c 0,100,101
 315 711 315 711 332 704 c 128,-1,102
 349 697 349 697 361.5 686 c 128,-1,103
 374 675 374 675 381 659.5 c 128,-1,104
 388 644 388 644 388 626 c 0,105,106
 388 595 388 595 372 567.5 c 128,-1,107
 356 540 356 540 325 503 c 2,108,-1
 250 418 l 1,109,-1
 404 418 l 1,79,-1
EndSplineSet
EndChar
StartChar: Aacute
Encoding: 193 193 132
Width: 256
GlyphClass: 2
Flags: W
Fore
224 493 m 1,0,-1
 224 461 l 1,1,-1
 175 461 l 1,2,-1
 175 380 l 1,3,-1
 136 380 l 1,4,-1
 136 461 l 1,5,-1
 0 461 l 1,6,-1
 0 493 l 1,7,-1
 153 710 l 1,8,-1
 175 710 l 1,9,-1
 175 493 l 1,10,-1
 224 493 l 1,0,-1
136 493 m 1,11,-1
 136 643 l 1,12,-1
 29 493 l 1,13,-1
 136 493 l 1,11,-1
147 174 m 1,14,-1
 147 173 l 1,15,16
 177 151 177 151 196.5 131 c 128,-1,17
 216 111 216 111 216 81 c 0,18,19
 216 43 216 43 190.5 22 c 128,-1,20
 165 1 165 1 119 1 c 0,21,22
 76 1 76 1 46.5 20 c 128,-1,23
 17 39 17 39 17 77 c 0,24,25
 17 89 17 89 21 99.5 c 128,-1,26
 25 110 25 110 33.5 120 c 128,-1,27
 42 130 42 130 56 141.5 c 128,-1,28
 70 153 70 153 90 168 c 1,29,30
 70 184 70 184 58 195.5 c 128,-1,31
 46 207 46 207 40 217 c 128,-1,32
 34 227 34 227 32 237 c 128,-1,33
 30 247 30 247 30 259 c 0,34,35
 30 292 30 292 56.5 313.5 c 128,-1,36
 83 335 83 335 122 335 c 0,37,38
 159 335 159 335 183 316 c 128,-1,39
 207 297 207 297 207 265 c 0,40,41
 207 241 207 241 196 218 c 128,-1,42
 185 195 185 195 147 174 c 1,14,-1
142 132 m 2,43,-1
 115 152 l 1,44,45
 91 134 91 134 71 117 c 128,-1,46
 51 100 51 100 49 77 c 0,47,48
 48 65 48 65 54 55 c 128,-1,49
 60 45 60 45 71 39 c 128,-1,50
 82 33 82 33 95.5 30 c 128,-1,51
 109 27 109 27 123 27 c 0,52,53
 146 27 146 27 161.5 38.5 c 128,-1,54
 177 50 177 50 179 68 c 0,55,56
 180 78 180 78 179.5 85.5 c 128,-1,57
 179 93 179 93 175 100.5 c 128,-1,58
 171 108 171 108 163.5 115 c 128,-1,59
 156 122 156 122 142 132 c 2,43,-1
100 206 m 2,60,-1
 123 190 l 1,61,62
 147 208 147 208 161 224 c 128,-1,63
 175 240 175 240 173 261 c 0,64,65
 171 285 171 285 156 295 c 128,-1,66
 141 305 141 305 123 305 c 0,67,68
 99 305 99 305 80.5 294.5 c 128,-1,69
 62 284 62 284 62 264 c 128,-1,70
 62 244 62 244 69.5 233 c 128,-1,71
 77 222 77 222 100 206 c 2,60,-1
EndSplineSet
EndChar
StartChar: Acircumflex
Encoding: 194 194 133
Width: 512
GlyphClass: 2
Flags: W
Fore
265 717 m 1,0,-1
 247 717 l 1,1,-1
 247 162 l 1,2,3
 223 179 223 179 193 179 c 0,4,5
 178 179 178 179 162.5 175.5 c 128,-1,6
 147 172 147 172 129 164 c 1,7,8
 112 153 112 153 97.5 141 c 128,-1,9
 83 129 83 129 73 118 c 0,10,11
 51 90 51 90 51 60 c 0,12,13
 51 33 51 33 73 16 c 0,14,15
 95 0 95 0 124 0 c 0,16,17
 156 0 156 0 189.5 15.5 c 128,-1,18
 223 31 223 31 245 58 c 0,19,20
 265 88 265 88 265 116 c 2,21,-1
 265 717 l 1,0,-1
393 108 m 0,22,23
 393 92 393 92 382 81 c 128,-1,24
 371 70 371 70 355 70 c 0,25,26
 340 70 340 70 328.5 81 c 128,-1,27
 317 92 317 92 317 108 c 0,28,29
 317 123 317 123 328.5 134 c 128,-1,30
 340 145 340 145 355 145 c 0,31,32
 371 145 371 145 382 134 c 128,-1,33
 393 123 393 123 393 108 c 0,22,23
334 731 m 1,34,35
 326 804 326 804 284 858 c 0,36,37
 265 883 265 883 232 897 c 0,38,39
 218 904 218 904 201 908 c 128,-1,40
 184 912 184 912 166 912 c 0,41,42
 150 912 150 912 134 908 c 128,-1,43
 118 904 118 904 103 897 c 0,44,45
 74 884 74 884 50 857 c 0,46,47
 40 844 40 844 31.5 829.5 c 128,-1,48
 23 815 23 815 15 799 c 0,49,50
 3 768 3 768 0 731 c 1,51,-1
 16 731 l 1,52,53
 16 744 16 744 17 745 c 1,54,55
 17 749 17 749 18 752 c 2,56,-1
 20 758 l 2,57,58
 23 765 23 765 25.5 770.5 c 128,-1,59
 28 776 28 776 30 781 c 1,60,61
 52 817 52 817 89.5 838 c 128,-1,62
 127 859 127 859 166 859 c 0,63,64
 184 859 184 859 203 856 c 0,65,66
 210 854 210 854 218.5 851 c 128,-1,67
 227 848 227 848 236 841 c 1,68,69
 254 834 254 834 268.5 822.5 c 128,-1,70
 283 811 283 811 294 796 c 0,71,72
 315 766 315 766 315 731 c 1,73,-1
 334 731 l 1,34,35
195 758 m 0,74,75
 195 764 195 764 186 775 c 1,76,77
 178 781 178 781 166 781 c 0,78,79
 164 781 164 781 160.5 780 c 128,-1,80
 157 779 157 779 152 779 c 1,81,82
 145 777 145 777 145 775 c 1,83,84
 138 768 138 768 138 758 c 0,85,86
 138 744 138 744 145 738 c 1,87,88
 156 731 156 731 166 731 c 0,89,90
 179 731 179 731 186 738 c 0,91,92
 195 746 195 746 195 758 c 0,74,75
EndSplineSet
EndChar
StartChar: Atilde
Encoding: 195 195 134
Width: 256
GlyphClass: 2
Flags: W
Fore
0 181 m 1,0,-1
 256 181 l 1,1,-1
 256 128 l 1,2,-1
 0 128 l 1,3,-1
 0 181 l 1,0,-1
EndSplineSet
EndChar
StartChar: Adieresis
Encoding: 196 196 135
Width: 512
GlyphClass: 2
Flags: W
Fore
0 181 m 1,0,-1
 255 181 l 1,1,-1
 255 128 l 1,2,-1
 0 128 l 1,3,-1
 0 181 l 1,0,-1
EndSplineSet
EndChar
StartChar: Aring
Encoding: 197 197 136
Width: 256
GlyphClass: 2
Flags: W
Fore
224 112 m 1,0,-1
 224 80 l 1,1,-1
 175 80 l 1,2,-1
 175 0 l 1,3,-1
 136 0 l 1,4,-1
 136 80 l 1,5,-1
 0 80 l 1,6,-1
 0 112 l 1,7,-1
 153 329 l 1,8,-1
 175 329 l 1,9,-1
 175 112 l 1,10,-1
 224 112 l 1,0,-1
136 112 m 1,11,-1
 136 262 l 1,12,-1
 29 112 l 1,13,-1
 136 112 l 1,11,-1
151 552 m 1,14,-1
 151 551 l 1,15,16
 180 528 180 528 199.5 508 c 128,-1,17
 219 488 219 488 219 459 c 0,18,19
 219 421 219 421 193.5 400 c 128,-1,20
 168 379 168 379 122 379 c 0,21,22
 79 379 79 379 49.5 398 c 128,-1,23
 20 417 20 417 20 455 c 0,24,25
 20 467 20 467 24 477 c 128,-1,26
 28 487 28 487 36.5 497.5 c 128,-1,27
 45 508 45 508 59 519 c 128,-1,28
 73 530 73 530 93 546 c 1,29,30
 73 562 73 562 61 573.5 c 128,-1,31
 49 585 49 585 43 595 c 128,-1,32
 37 605 37 605 35 615 c 128,-1,33
 33 625 33 625 33 637 c 0,34,35
 33 670 33 670 59.5 691.5 c 128,-1,36
 86 713 86 713 125 713 c 0,37,38
 162 713 162 713 186 694 c 128,-1,39
 210 675 210 675 210 643 c 0,40,41
 210 618 210 618 199 595 c 128,-1,42
 188 572 188 572 151 552 c 1,14,-1
145 510 m 2,43,-1
 118 529 l 1,44,45
 94 512 94 512 74 495 c 128,-1,46
 54 478 54 478 52 455 c 0,47,48
 51 442 51 442 57 432.5 c 128,-1,49
 63 423 63 423 74 417 c 128,-1,50
 85 411 85 411 98.5 407.5 c 128,-1,51
 112 404 112 404 126 404 c 0,52,53
 150 404 150 404 165 416 c 128,-1,54
 180 428 180 428 182 445 c 0,55,56
 183 456 183 456 182.5 463.5 c 128,-1,57
 182 471 182 471 178 478 c 128,-1,58
 174 485 174 485 166.5 492.5 c 128,-1,59
 159 500 159 500 145 510 c 2,43,-1
103 584 m 2,60,-1
 126 568 l 1,61,62
 151 586 151 586 164.5 601.5 c 128,-1,63
 178 617 178 617 176 639 c 0,64,65
 174 663 174 663 159 673 c 128,-1,66
 144 683 144 683 126 683 c 0,67,68
 102 683 102 683 84 672.5 c 128,-1,69
 66 662 66 662 66 642 c 128,-1,70
 66 622 66 622 73 611 c 128,-1,71
 80 600 80 600 103 584 c 2,60,-1
EndSplineSet
EndChar
StartChar: AE
Encoding: 198 198 137
Width: 256
GlyphClass: 2
Flags: W
Fore
197 713 m 1,0,-1
 197 681 l 1,1,-1
 100 390 l 1,2,-1
 65 390 l 1,3,-1
 159 677 l 1,4,-1
 8 677 l 1,5,-1
 8 713 l 1,6,-1
 197 713 l 1,0,-1
224 112 m 1,7,-1
 224 80 l 1,8,-1
 175 80 l 1,9,-1
 175 0 l 1,10,-1
 136 0 l 1,11,-1
 136 80 l 1,12,-1
 0 80 l 1,13,-1
 0 112 l 1,14,-1
 153 329 l 1,15,-1
 175 329 l 1,16,-1
 175 112 l 1,17,-1
 224 112 l 1,7,-1
136 112 m 1,18,-1
 136 262 l 1,19,-1
 29 112 l 1,20,-1
 136 112 l 1,18,-1
EndSplineSet
EndChar
StartChar: Egrave
Encoding: 200 200 139
Width: 512
GlyphClass: 2
Flags: W
Fore
196 717 m 1,0,-1
 213 717 l 1,1,2
 215 696 215 696 219.5 679.5 c 128,-1,3
 224 663 224 663 229 648 c 0,4,5
 238 622 238 622 252 601 c 2,6,-1
 269 580 l 1,7,-1
 294 550 l 1,8,-1
 339 498 l 2,9,10
 390 431 390 431 390 358 c 0,11,12
 390 341 390 341 387 320 c 128,-1,13
 384 299 384 299 375 276 c 0,14,15
 368 259 368 259 363 247.5 c 128,-1,16
 358 236 358 236 350 221 c 1,17,-1
 335 220 l 1,18,-1
 352 265 l 2,19,20
 355 274 355 274 358 283.5 c 128,-1,21
 361 293 361 293 364 304 c 1,22,-1
 367 332 l 1,23,-1
 368 344 l 1,24,-1
 368 365 l 1,25,26
 366 369 366 369 365.5 373 c 128,-1,27
 365 377 365 377 364 381 c 1,28,-1
 361 387 l 1,29,30
 359 393 359 393 355 406 c 0,31,32
 345 437 345 437 321 463 c 0,33,34
 299 490 299 490 271 505 c 0,35,36
 257 513 257 513 241 518 c 128,-1,37
 225 523 225 523 213 523 c 1,38,-1
 213 117 l 2,39,40
 213 85 213 85 190 56 c 0,41,42
 176 33 176 33 139 16 c 0,43,44
 108 0 108 0 73 0 c 0,45,46
 41 0 41 0 22 16 c 0,47,48
 0 32 0 32 0 62 c 0,49,50
 0 78 0 78 4.5 93 c 128,-1,51
 9 108 9 108 20 121 c 0,52,53
 31 133 31 133 43.5 144.5 c 128,-1,54
 56 156 56 156 74 164 c 0,55,56
 108 179 108 179 135 179 c 0,57,58
 179 179 179 179 196 163 c 1,59,-1
 196 529 l 1,60,-1
 196 717 l 1,0,-1
EndSplineSet
EndChar
StartChar: Eacute
Encoding: 201 201 140
Width: 512
GlyphClass: 2
Flags: W
Fore
196 717 m 1,0,-1
 213 717 l 1,1,2
 215 696 215 696 219.5 679.5 c 128,-1,3
 224 663 224 663 229 648 c 0,4,5
 238 622 238 622 252 601 c 2,6,-1
 269 580 l 1,7,-1
 294 550 l 1,8,-1
 339 498 l 2,9,10
 390 431 390 431 390 358 c 0,11,12
 390 341 390 341 387 320 c 128,-1,13
 384 299 384 299 375 276 c 0,14,15
 368 259 368 259 363 247.5 c 128,-1,16
 358 236 358 236 350 221 c 1,17,-1
 335 220 l 1,18,-1
 352 265 l 2,19,20
 355 274 355 274 358 283.5 c 128,-1,21
 361 293 361 293 364 304 c 1,22,-1
 367 332 l 1,23,-1
 368 344 l 1,24,-1
 368 365 l 1,25,26
 366 369 366 369 365.5 373 c 128,-1,27
 365 377 365 377 364 381 c 1,28,-1
 361 387 l 1,29,30
 359 393 359 393 355 406 c 0,31,32
 345 437 345 437 321 463 c 0,33,34
 299 490 299 490 271 505 c 0,35,36
 257 513 257 513 241 518 c 128,-1,37
 225 523 225 523 213 523 c 1,38,-1
 213 117 l 2,39,40
 213 85 213 85 190 56 c 0,41,42
 176 33 176 33 139 16 c 0,43,44
 108 0 108 0 73 0 c 0,45,46
 41 0 41 0 22 16 c 0,47,48
 0 32 0 32 0 62 c 0,49,50
 0 78 0 78 4.5 93 c 128,-1,51
 9 108 9 108 20 121 c 0,52,53
 31 133 31 133 43.5 144.5 c 128,-1,54
 56 156 56 156 74 164 c 0,55,56
 108 179 108 179 135 179 c 0,57,58
 179 179 179 179 196 163 c 1,59,-1
 196 529 l 1,60,-1
 196 717 l 1,0,-1
EndSplineSet
EndChar
StartChar: Edieresis
Encoding: 203 203 141
Width: 512
GlyphClass: 2
Flags: W
Fore
17 194 m 1,0,1
 30 194 30 194 45.5 199 c 128,-1,2
 61 204 61 204 76 212 c 0,3,4
 103 226 103 226 125 254 c 0,5,6
 150 280 150 280 160 311 c 0,7,8
 164 324 164 324 166 330 c 128,-1,9
 168 336 168 336 168.5 338 c 128,-1,10
 169 340 169 340 169.5 344 c 128,-1,11
 170 348 170 348 172 352 c 1,12,-1
 172 373 l 1,13,-1
 171 385 l 1,14,-1
 168 413 l 2,15,16
 166 424 166 424 163 433 c 128,-1,17
 160 442 160 442 157 452 c 2,18,-1
 139 497 l 1,19,-1
 155 496 l 1,20,21
 163 481 163 481 167.5 469.5 c 128,-1,22
 172 458 172 458 179 440 c 0,23,24
 188 418 188 418 191.5 397 c 128,-1,25
 195 376 195 376 195 358 c 0,26,27
 195 286 195 286 143 219 c 2,28,-1
 98 167 l 1,29,-1
 74 137 l 1,30,-1
 56 116 l 2,31,32
 42 95 42 95 34 69 c 0,33,34
 29 54 29 54 24 37 c 128,-1,35
 19 20 19 20 17 0 c 1,36,-1
 0 0 l 1,37,-1
 0 600 l 2,38,39
 0 632 0 632 23 660 c 1,40,41
 37 684 37 684 74 700 c 0,42,43
 105 717 105 717 140 717 c 0,44,45
 172 717 172 717 191 700 c 0,46,47
 213 685 213 685 213 654 c 0,48,49
 213 639 213 639 208.5 624 c 128,-1,50
 204 609 204 609 193 596 c 0,51,52
 182 584 182 584 169.5 572.5 c 128,-1,53
 157 561 157 561 139 553 c 0,54,55
 105 538 105 538 78 538 c 0,56,57
 34 538 34 538 17 554 c 1,58,-1
 17 194 l 1,0,1
EndSplineSet
EndChar
StartChar: Igrave
Encoding: 204 204 142
Width: 256
GlyphClass: 2
Flags: W
Fore
54 441 m 1,0,-1
 33 441 l 1,1,2
 26 479 26 479 20 514 c 128,-1,3
 14 549 14 549 9.5 577 c 128,-1,4
 5 605 5 605 2.5 624.5 c 128,-1,5
 0 644 0 644 0 650 c 0,6,7
 0 668 0 668 13 680 c 128,-1,8
 26 692 26 692 44 692 c 0,9,10
 61 692 61 692 74 680.5 c 128,-1,11
 87 669 87 669 87 652 c 0,12,13
 87 629 87 629 80.5 585 c 128,-1,14
 74 541 74 541 61 482 c 0,15,16
 59 472 59 472 57.5 462.5 c 128,-1,17
 56 453 56 453 54 441 c 1,0,-1
EndSplineSet
EndChar
StartChar: Iacute
Encoding: 205 205 143
Width: 256
GlyphClass: 2
Flags: W
Fore
129 317 m 0,0,1
 152 317 152 317 168.5 300 c 128,-1,2
 185 283 185 283 185 259 c 0,3,4
 185 237 185 237 168.5 220.5 c 128,-1,5
 152 204 152 204 128 204 c 256,6,7
 104 204 104 204 88 220.5 c 128,-1,8
 72 237 72 237 72 260 c 0,9,10
 72 284 72 284 88.5 300.5 c 128,-1,11
 105 317 105 317 129 317 c 0,0,1
EndSplineSet
EndChar
StartChar: Icircumflex
Encoding: 206 206 144
Width: 256
GlyphClass: 2
Flags: W
Fore
0 263 m 1,0,-1
 256 263 l 1,1,-1
 256 199 l 1,2,-1
 0 199 l 1,3,-1
 0 263 l 1,0,-1
EndSplineSet
EndChar
StartChar: Eth
Encoding: 208 208 146
Width: 512
GlyphClass: 2
Flags: W
Fore
254 151 m 1,0,1
 258 165 258 165 268 170 c 0,2,3
 274 173 274 173 278 175 c 128,-1,4
 282 177 282 177 286 178 c 1,5,-1
 295 178 l 2,6,7
 308 178 308 178 316 169 c 0,8,9
 326 160 326 160 326 144 c 0,10,11
 326 139 326 139 325 133 c 128,-1,12
 324 127 324 127 319 120 c 1,13,-1
 311 104 l 1,14,-1
 301 92 l 1,15,-1
 276 65 l 1,16,-1
 254 43 l 1,17,-1
 254 151 l 1,0,1
230 104 m 1,18,-1
 230 0 l 1,19,20
 244 13 244 13 255 22.5 c 128,-1,21
 266 32 266 32 276 39 c 2,22,-1
 329 77 l 2,23,24
 352 94 352 94 367.5 111.5 c 128,-1,25
 383 129 383 129 383 150 c 0,26,27
 383 162 383 162 377.5 171.5 c 128,-1,28
 372 181 372 181 361 189 c 0,29,30
 345 203 345 203 318 203 c 0,31,32
 287 203 287 203 254 179 c 1,33,-1
 254 430 l 1,34,-1
 230 430 l 1,35,-1
 230 190 l 1,36,37
 212 203 212 203 188 203 c 128,-1,38
 164 203 164 203 125 179 c 1,39,-1
 125 430 l 1,40,-1
 102 430 l 1,41,-1
 102 0 l 1,42,43
 113 10 113 10 122.5 19.5 c 128,-1,44
 132 29 132 29 141 35 c 2,45,-1
 159 50 l 1,46,-1
 180 62 l 1,47,-1
 197 75 l 1,48,-1
 209 84 l 1,49,-1
 219 92 l 1,50,-1
 230 104 l 1,18,-1
125 151 m 1,51,52
 128 161 128 161 140 170 c 1,53,-1
 153 175 l 1,54,-1
 165 177 l 1,55,56
 196 177 196 177 196 144 c 0,57,58
 196 121 196 121 177 99 c 0,59,60
 166 85 166 85 152.5 71 c 128,-1,61
 139 57 139 57 125 43 c 1,62,-1
 125 151 l 1,51,52
EndSplineSet
EndChar
StartChar: Ntilde
Encoding: 209 209 147
Width: 1024
GlyphClass: 2
Flags: W
Fore
930 717 m 1,0,-1
 195 717 l 1,1,-1
 195 162 l 1,2,3
 181 170 181 170 169 173.5 c 128,-1,4
 157 177 157 177 141 177 c 0,5,6
 127 177 127 177 111.5 174 c 128,-1,7
 96 171 96 171 78 163 c 0,8,9
 60 154 60 154 46.5 141.5 c 128,-1,10
 33 129 33 129 23 118 c 0,11,12
 0 92 0 92 0 60 c 0,13,14
 0 33 0 33 23 16 c 0,15,16
 34 8 34 8 45.5 4 c 128,-1,17
 57 0 57 0 73 0 c 0,18,19
 103 0 103 0 137 15.5 c 128,-1,20
 171 31 171 31 191 59 c 0,21,22
 203 73 203 73 207.5 86.5 c 128,-1,23
 212 100 212 100 212 115 c 2,24,-1
 212 646 l 1,25,-1
 912 646 l 1,26,-1
 912 162 l 1,27,28
 889 177 889 177 859 177 c 0,29,30
 845 177 845 177 828.5 174 c 128,-1,31
 812 171 812 171 794 163 c 0,32,33
 776 154 776 154 763 141.5 c 128,-1,34
 750 129 750 129 740 118 c 0,35,36
 717 88 717 88 717 60 c 0,37,38
 717 34 717 34 740 16 c 0,39,40
 763 0 763 0 790 0 c 0,41,42
 820 0 820 0 854 15.5 c 128,-1,43
 888 31 888 31 910 59 c 0,44,45
 930 85 930 85 930 115 c 2,46,-1
 930 717 l 1,0,-1
966 741 m 1,47,-1
 966 807 l 1,48,-1
 611 807 l 1,49,-1
 611 821 l 1,50,-1
 981 821 l 1,51,-1
 981 741 l 1,52,-1
 966 741 l 1,47,-1
530 99 m 1,53,-1
 505 99 l 1,54,55
 522 167 522 167 541 231 c 128,-1,56
 560 295 560 295 578 362 c 1,57,58
 564 350 564 350 549 339.5 c 128,-1,59
 534 329 534 329 517.5 322.5 c 128,-1,60
 501 316 501 316 483.5 317.5 c 128,-1,61
 466 319 466 319 450 333 c 0,62,63
 435 345 435 345 432.5 364 c 128,-1,64
 430 383 430 383 436 400 c 128,-1,65
 442 417 442 417 456.5 426 c 128,-1,66
 471 435 471 435 492 428 c 0,67,68
 510 423 510 423 518.5 408 c 128,-1,69
 527 393 527 393 527 376 c 1,70,71
 524 368 524 368 520 359 c 128,-1,72
 516 350 516 350 526 347 c 0,73,74
 538 344 538 344 551.5 354 c 128,-1,75
 565 364 565 364 577 376 c 128,-1,76
 589 388 589 388 597 399 c 0,77,78
 604 409 604 409 605 410 c 1,79,-1
 620 413 l 1,80,-1
 530 99 l 1,53,-1
50 745 m 1,81,-1
 50 811 l 1,82,-1
 419 811 l 1,83,-1
 419 825 l 1,84,-1
 35 825 l 1,85,-1
 35 745 l 1,86,-1
 50 745 l 1,81,-1
492 811 m 1,87,-1
 492 818 l 1,88,89
 503 820 503 820 508.5 822 c 128,-1,90
 514 824 514 824 519 829 c 1,91,92
 523 835 523 835 527.5 842 c 128,-1,93
 532 849 532 849 532 855 c 0,94,95
 532 876 532 876 507 876 c 0,96,97
 497 876 497 876 490 869.5 c 128,-1,98
 483 863 483 863 475 851 c 1,99,-1
 468 851 l 1,100,101
 472 862 472 862 474.5 866.5 c 128,-1,102
 477 871 477 871 482 876 c 1,103,104
 497 887 497 887 511 887 c 0,105,106
 526 887 526 887 537 878.5 c 128,-1,107
 548 870 548 870 548 856 c 0,108,109
 548 847 548 847 543.5 838 c 128,-1,110
 539 829 539 829 527 821 c 1,111,112
 536 818 536 818 537.5 816.5 c 128,-1,113
 539 815 539 815 543 812 c 1,114,115
 547 806 547 806 549.5 801.5 c 128,-1,116
 552 797 552 797 552 787 c 0,117,118
 552 762 552 762 535 751 c 0,119,120
 517 738 517 738 493 738 c 0,121,122
 468 738 468 738 468 750 c 0,123,124
 468 755 468 755 476 755 c 0,125,126
 479 755 479 755 481.5 754.5 c 128,-1,127
 484 754 484 754 489 752 c 1,128,129
 500 745 500 745 510 749 c 0,130,131
 521 753 521 753 527.5 757.5 c 128,-1,132
 534 762 534 762 536 776 c 0,133,134
 537 787 537 787 530.5 796.5 c 128,-1,135
 524 806 524 806 514 810 c 2,136,137
 513 811 513 811 505 811 c 2,138,-1
 492 811 l 1,87,-1
EndSplineSet
EndChar
StartChar: Ograve
Encoding: 210 210 148
Width: 1024
GlyphClass: 2
Flags: W
Fore
974 745 m 1,0,-1
 974 814 l 1,1,-1
 593 814 l 1,2,-1
 593 828 l 1,3,-1
 990 828 l 1,4,-1
 990 745 l 1,5,-1
 974 745 l 1,0,-1
100 184 m 1,6,-1
 74 184 l 1,7,-1
 147 449 l 1,8,9
 134 436 134 436 118.5 425 c 128,-1,10
 103 414 103 414 87 408 c 128,-1,11
 71 402 71 402 53.5 404 c 128,-1,12
 36 406 36 406 19 420 c 0,13,14
 5 432 5 432 2.5 451 c 128,-1,15
 0 470 0 470 6 486.5 c 128,-1,16
 12 503 12 503 26.5 512 c 128,-1,17
 41 521 41 521 61 514 c 0,18,19
 79 509 79 509 87 494 c 128,-1,20
 95 479 95 479 95 462 c 0,21,22
 95 458 95 458 93 453.5 c 128,-1,23
 91 449 91 449 89.5 445 c 128,-1,24
 88 441 88 441 88.5 438 c 128,-1,25
 89 435 89 435 94 434 c 0,26,27
 106 431 106 431 120 440.5 c 128,-1,28
 134 450 134 450 146.5 462.5 c 128,-1,29
 159 475 159 475 167 485 c 0,30,31
 174 496 174 496 175 497 c 1,32,-1
 187 497 l 1,33,34
 187 495 187 495 181 474.5 c 128,-1,35
 175 454 175 454 165 417 c 128,-1,36
 155 380 155 380 143 339 c 128,-1,37
 131 298 131 298 120 256.5 c 128,-1,38
 109 215 109 215 100 184 c 1,6,-1
883 184 m 1,39,-1
 858 184 l 1,40,41
 876 252 876 252 893.5 316.5 c 128,-1,42
 911 381 911 381 930 449 c 1,43,44
 916 436 916 436 901 425 c 128,-1,45
 886 414 886 414 869.5 408 c 128,-1,46
 853 402 853 402 835.5 404 c 128,-1,47
 818 406 818 406 802 420 c 0,48,49
 787 432 787 432 784.5 451 c 128,-1,50
 782 470 782 470 789 486.5 c 128,-1,51
 796 503 796 503 810 512 c 128,-1,52
 824 521 824 521 845 514 c 0,53,54
 862 509 862 509 870.5 494 c 128,-1,55
 879 479 879 479 879 462 c 0,56,57
 878 454 878 454 873 445 c 128,-1,58
 868 436 868 436 878 434 c 0,59,60
 889 431 889 431 903.5 440.5 c 128,-1,61
 918 450 918 450 930 462.5 c 128,-1,62
 942 475 942 475 950 485 c 0,63,64
 957 496 957 496 958 497 c 1,65,-1
 972 497 l 1,66,67
 972 495 972 495 965.5 474.5 c 128,-1,68
 959 454 959 454 948.5 417 c 128,-1,69
 938 380 938 380 926 339 c 128,-1,70
 914 298 914 298 902.5 256.5 c 128,-1,71
 891 215 891 215 883 184 c 1,39,-1
492 717 m 1,72,-1
 492 529 l 1,73,-1
 492 163 l 1,74,75
 471 178 471 178 431 178 c 0,76,77
 418 178 418 178 402 174.5 c 128,-1,78
 386 171 386 171 369 163 c 0,79,80
 337 146 337 146 315 121 c 0,81,82
 295 94 295 94 295 62 c 0,83,84
 295 34 295 34 316 15 c 1,85,86
 327 8 327 8 339.5 4 c 128,-1,87
 352 0 352 0 368 0 c 128,-1,88
 384 0 384 0 400.5 4 c 128,-1,89
 417 8 417 8 434 15 c 0,90,91
 452 25 452 25 465 34.5 c 128,-1,92
 478 44 478 44 486 56 c 0,93,94
 508 84 508 84 508 118 c 2,95,-1
 508 524 l 1,96,97
 520 524 520 524 536.5 519 c 128,-1,98
 553 514 553 514 566 505 c 0,99,100
 594 490 594 490 616 462 c 0,101,102
 641 435 641 435 651 406 c 0,103,104
 654 397 654 397 656 391 c 128,-1,105
 658 385 658 385 659 382 c 1,106,107
 659 377 659 377 660.5 373 c 128,-1,108
 662 369 662 369 663 365 c 1,109,-1
 663 345 l 1,110,-1
 663 333 l 1,111,-1
 658 304 l 2,112,113
 656 293 656 293 653 283.5 c 128,-1,114
 650 274 650 274 647 265 c 2,115,-1
 630 220 l 1,116,-1
 645 221 l 1,117,118
 653 236 653 236 657.5 247.5 c 128,-1,119
 662 259 662 259 670 276 c 0,120,121
 680 299 680 299 682.5 320 c 128,-1,122
 685 341 685 341 685 358 c 0,123,124
 685 394 685 394 672.5 429.5 c 128,-1,125
 660 465 660 465 634 498 c 2,126,-1
 589 551 l 1,127,-1
 564 579 l 1,128,-1
 548 602 l 2,129,130
 536 621 536 621 524 650 c 0,131,132
 519 664 519 664 514.5 680.5 c 128,-1,133
 510 697 510 697 508 717 c 1,134,-1
 492 717 l 1,72,-1
50 745 m 1,135,-1
 50 814 l 1,136,-1
 419 814 l 1,137,-1
 419 828 l 1,138,-1
 34 828 l 1,139,-1
 34 745 l 1,140,-1
 50 745 l 1,135,-1
478 814 m 1,141,-1
 478 821 l 1,142,143
 489 823 489 823 495 825 c 128,-1,144
 501 827 501 827 506 833 c 0,145,146
 510 838 510 838 514.5 845 c 128,-1,147
 519 852 519 852 519 858 c 0,148,149
 519 879 519 879 494 879 c 0,150,151
 483 879 483 879 476.5 872.5 c 128,-1,152
 470 866 470 866 462 854 c 1,153,-1
 455 854 l 1,154,155
 459 865 459 865 461.5 869.5 c 128,-1,156
 464 874 464 874 469 879 c 0,157,158
 483 890 483 890 498 890 c 128,-1,159
 513 890 513 890 524 881.5 c 128,-1,160
 535 873 535 873 535 859 c 0,161,162
 535 850 535 850 530 841.5 c 128,-1,163
 525 833 525 833 514 824 c 1,164,165
 522 821 522 821 523.5 819.5 c 128,-1,166
 525 818 525 818 529 815 c 1,167,168
 534 809 534 809 536.5 804.5 c 128,-1,169
 539 800 539 800 539 791 c 0,170,171
 539 765 539 765 521 754 c 0,172,173
 504 741 504 741 479 741 c 0,174,175
 455 741 455 741 455 753 c 0,176,177
 455 758 455 758 463 758 c 0,178,179
 466 758 466 758 468.5 757.5 c 128,-1,180
 471 757 471 757 476 755 c 1,181,182
 486 749 486 749 497 752 c 0,183,184
 508 756 508 756 514 760.5 c 128,-1,185
 520 765 520 765 522 779 c 0,186,187
 523 791 523 791 517 800 c 128,-1,188
 511 809 511 809 501 813 c 2,189,190
 500 814 500 814 492 814 c 2,191,-1
 478 814 l 1,141,-1
EndSplineSet
EndChar
